G75*
G70*
%OFA0B0*%
%FSLAX24Y24*%
%IPPOS*%
%LPD*%
%AMOC8*
5,1,8,0,0,1.08239X$1,22.5*
%
%ADD10C,0.0000*%
%ADD11C,0.1000*%
%ADD12C,0.0787*%
%ADD13C,0.0594*%
%ADD14C,0.0100*%
%ADD15C,0.0242*%
%ADD16C,0.0120*%
%ADD17C,0.0472*%
%ADD18C,0.0320*%
D10*
X003736Y007660D02*
X033762Y007660D01*
X033763Y007660D02*
X033820Y007666D01*
X033877Y007676D01*
X033933Y007690D01*
X033988Y007708D01*
X034042Y007729D01*
X034094Y007754D01*
X034144Y007783D01*
X034192Y007815D01*
X034238Y007850D01*
X034282Y007888D01*
X034322Y007928D01*
X034360Y007972D01*
X034395Y008018D01*
X034427Y008066D01*
X034456Y008116D01*
X034481Y008168D01*
X034502Y008222D01*
X034520Y008277D01*
X034534Y008333D01*
X034544Y008390D01*
X034550Y008447D01*
X034550Y030637D01*
X034550Y030638D02*
X034544Y030695D01*
X034534Y030752D01*
X034520Y030808D01*
X034502Y030863D01*
X034481Y030917D01*
X034456Y030969D01*
X034427Y031019D01*
X034395Y031067D01*
X034360Y031113D01*
X034322Y031157D01*
X034282Y031197D01*
X034238Y031235D01*
X034192Y031270D01*
X034144Y031302D01*
X034094Y031331D01*
X034042Y031356D01*
X033988Y031377D01*
X033933Y031395D01*
X033877Y031409D01*
X033820Y031419D01*
X033763Y031425D01*
X033762Y031425D02*
X003736Y031425D01*
X003679Y031419D01*
X003622Y031409D01*
X003566Y031395D01*
X003511Y031377D01*
X003457Y031356D01*
X003405Y031331D01*
X003355Y031302D01*
X003307Y031270D01*
X003261Y031235D01*
X003217Y031197D01*
X003177Y031157D01*
X003139Y031113D01*
X003104Y031067D01*
X003072Y031019D01*
X003043Y030969D01*
X003018Y030917D01*
X002997Y030863D01*
X002979Y030808D01*
X002965Y030752D01*
X002955Y030695D01*
X002949Y030638D01*
X002949Y030637D02*
X002949Y008447D01*
X002955Y008390D01*
X002965Y008333D01*
X002979Y008277D01*
X002997Y008222D01*
X003018Y008168D01*
X003043Y008116D01*
X003072Y008066D01*
X003104Y008018D01*
X003139Y007972D01*
X003177Y007928D01*
X003217Y007888D01*
X003261Y007850D01*
X003307Y007815D01*
X003355Y007783D01*
X003405Y007754D01*
X003457Y007729D01*
X003511Y007708D01*
X003566Y007690D01*
X003622Y007676D01*
X003679Y007666D01*
X003736Y007660D01*
X004287Y009629D02*
X004289Y009679D01*
X004295Y009729D01*
X004305Y009778D01*
X004319Y009826D01*
X004336Y009873D01*
X004357Y009918D01*
X004382Y009962D01*
X004410Y010003D01*
X004442Y010042D01*
X004476Y010079D01*
X004513Y010113D01*
X004553Y010143D01*
X004595Y010170D01*
X004639Y010194D01*
X004685Y010215D01*
X004732Y010231D01*
X004780Y010244D01*
X004830Y010253D01*
X004879Y010258D01*
X004930Y010259D01*
X004980Y010256D01*
X005029Y010249D01*
X005078Y010238D01*
X005126Y010223D01*
X005172Y010205D01*
X005217Y010183D01*
X005260Y010157D01*
X005301Y010128D01*
X005340Y010096D01*
X005376Y010061D01*
X005408Y010023D01*
X005438Y009983D01*
X005465Y009940D01*
X005488Y009896D01*
X005507Y009850D01*
X005523Y009802D01*
X005535Y009753D01*
X005543Y009704D01*
X005547Y009654D01*
X005547Y009604D01*
X005543Y009554D01*
X005535Y009505D01*
X005523Y009456D01*
X005507Y009408D01*
X005488Y009362D01*
X005465Y009318D01*
X005438Y009275D01*
X005408Y009235D01*
X005376Y009197D01*
X005340Y009162D01*
X005301Y009130D01*
X005260Y009101D01*
X005217Y009075D01*
X005172Y009053D01*
X005126Y009035D01*
X005078Y009020D01*
X005029Y009009D01*
X004980Y009002D01*
X004930Y008999D01*
X004879Y009000D01*
X004830Y009005D01*
X004780Y009014D01*
X004732Y009027D01*
X004685Y009043D01*
X004639Y009064D01*
X004595Y009088D01*
X004553Y009115D01*
X004513Y009145D01*
X004476Y009179D01*
X004442Y009216D01*
X004410Y009255D01*
X004382Y009296D01*
X004357Y009340D01*
X004336Y009385D01*
X004319Y009432D01*
X004305Y009480D01*
X004295Y009529D01*
X004289Y009579D01*
X004287Y009629D01*
X004287Y029456D02*
X004289Y029506D01*
X004295Y029556D01*
X004305Y029605D01*
X004319Y029653D01*
X004336Y029700D01*
X004357Y029745D01*
X004382Y029789D01*
X004410Y029830D01*
X004442Y029869D01*
X004476Y029906D01*
X004513Y029940D01*
X004553Y029970D01*
X004595Y029997D01*
X004639Y030021D01*
X004685Y030042D01*
X004732Y030058D01*
X004780Y030071D01*
X004830Y030080D01*
X004879Y030085D01*
X004930Y030086D01*
X004980Y030083D01*
X005029Y030076D01*
X005078Y030065D01*
X005126Y030050D01*
X005172Y030032D01*
X005217Y030010D01*
X005260Y029984D01*
X005301Y029955D01*
X005340Y029923D01*
X005376Y029888D01*
X005408Y029850D01*
X005438Y029810D01*
X005465Y029767D01*
X005488Y029723D01*
X005507Y029677D01*
X005523Y029629D01*
X005535Y029580D01*
X005543Y029531D01*
X005547Y029481D01*
X005547Y029431D01*
X005543Y029381D01*
X005535Y029332D01*
X005523Y029283D01*
X005507Y029235D01*
X005488Y029189D01*
X005465Y029145D01*
X005438Y029102D01*
X005408Y029062D01*
X005376Y029024D01*
X005340Y028989D01*
X005301Y028957D01*
X005260Y028928D01*
X005217Y028902D01*
X005172Y028880D01*
X005126Y028862D01*
X005078Y028847D01*
X005029Y028836D01*
X004980Y028829D01*
X004930Y028826D01*
X004879Y028827D01*
X004830Y028832D01*
X004780Y028841D01*
X004732Y028854D01*
X004685Y028870D01*
X004639Y028891D01*
X004595Y028915D01*
X004553Y028942D01*
X004513Y028972D01*
X004476Y029006D01*
X004442Y029043D01*
X004410Y029082D01*
X004382Y029123D01*
X004357Y029167D01*
X004336Y029212D01*
X004319Y029259D01*
X004305Y029307D01*
X004295Y029356D01*
X004289Y029406D01*
X004287Y029456D01*
X031951Y029456D02*
X031953Y029506D01*
X031959Y029556D01*
X031969Y029605D01*
X031983Y029653D01*
X032000Y029700D01*
X032021Y029745D01*
X032046Y029789D01*
X032074Y029830D01*
X032106Y029869D01*
X032140Y029906D01*
X032177Y029940D01*
X032217Y029970D01*
X032259Y029997D01*
X032303Y030021D01*
X032349Y030042D01*
X032396Y030058D01*
X032444Y030071D01*
X032494Y030080D01*
X032543Y030085D01*
X032594Y030086D01*
X032644Y030083D01*
X032693Y030076D01*
X032742Y030065D01*
X032790Y030050D01*
X032836Y030032D01*
X032881Y030010D01*
X032924Y029984D01*
X032965Y029955D01*
X033004Y029923D01*
X033040Y029888D01*
X033072Y029850D01*
X033102Y029810D01*
X033129Y029767D01*
X033152Y029723D01*
X033171Y029677D01*
X033187Y029629D01*
X033199Y029580D01*
X033207Y029531D01*
X033211Y029481D01*
X033211Y029431D01*
X033207Y029381D01*
X033199Y029332D01*
X033187Y029283D01*
X033171Y029235D01*
X033152Y029189D01*
X033129Y029145D01*
X033102Y029102D01*
X033072Y029062D01*
X033040Y029024D01*
X033004Y028989D01*
X032965Y028957D01*
X032924Y028928D01*
X032881Y028902D01*
X032836Y028880D01*
X032790Y028862D01*
X032742Y028847D01*
X032693Y028836D01*
X032644Y028829D01*
X032594Y028826D01*
X032543Y028827D01*
X032494Y028832D01*
X032444Y028841D01*
X032396Y028854D01*
X032349Y028870D01*
X032303Y028891D01*
X032259Y028915D01*
X032217Y028942D01*
X032177Y028972D01*
X032140Y029006D01*
X032106Y029043D01*
X032074Y029082D01*
X032046Y029123D01*
X032021Y029167D01*
X032000Y029212D01*
X031983Y029259D01*
X031969Y029307D01*
X031959Y029356D01*
X031953Y029406D01*
X031951Y029456D01*
X031951Y009629D02*
X031953Y009679D01*
X031959Y009729D01*
X031969Y009778D01*
X031983Y009826D01*
X032000Y009873D01*
X032021Y009918D01*
X032046Y009962D01*
X032074Y010003D01*
X032106Y010042D01*
X032140Y010079D01*
X032177Y010113D01*
X032217Y010143D01*
X032259Y010170D01*
X032303Y010194D01*
X032349Y010215D01*
X032396Y010231D01*
X032444Y010244D01*
X032494Y010253D01*
X032543Y010258D01*
X032594Y010259D01*
X032644Y010256D01*
X032693Y010249D01*
X032742Y010238D01*
X032790Y010223D01*
X032836Y010205D01*
X032881Y010183D01*
X032924Y010157D01*
X032965Y010128D01*
X033004Y010096D01*
X033040Y010061D01*
X033072Y010023D01*
X033102Y009983D01*
X033129Y009940D01*
X033152Y009896D01*
X033171Y009850D01*
X033187Y009802D01*
X033199Y009753D01*
X033207Y009704D01*
X033211Y009654D01*
X033211Y009604D01*
X033207Y009554D01*
X033199Y009505D01*
X033187Y009456D01*
X033171Y009408D01*
X033152Y009362D01*
X033129Y009318D01*
X033102Y009275D01*
X033072Y009235D01*
X033040Y009197D01*
X033004Y009162D01*
X032965Y009130D01*
X032924Y009101D01*
X032881Y009075D01*
X032836Y009053D01*
X032790Y009035D01*
X032742Y009020D01*
X032693Y009009D01*
X032644Y009002D01*
X032594Y008999D01*
X032543Y009000D01*
X032494Y009005D01*
X032444Y009014D01*
X032396Y009027D01*
X032349Y009043D01*
X032303Y009064D01*
X032259Y009088D01*
X032217Y009115D01*
X032177Y009145D01*
X032140Y009179D01*
X032106Y009216D01*
X032074Y009255D01*
X032046Y009296D01*
X032021Y009340D01*
X032000Y009385D01*
X031983Y009432D01*
X031969Y009480D01*
X031959Y009529D01*
X031953Y009579D01*
X031951Y009629D01*
D11*
X004689Y018527D03*
X004689Y020527D03*
X004689Y024402D03*
X004689Y026402D03*
D12*
X032708Y027043D03*
X032708Y025043D03*
X032708Y023043D03*
X032708Y021043D03*
D13*
X032995Y018910D02*
X032402Y018910D01*
X032402Y017910D02*
X032995Y017910D01*
X032995Y016910D02*
X032402Y016910D01*
X032402Y015910D02*
X032995Y015910D01*
X032995Y014910D02*
X032402Y014910D01*
X032402Y013910D02*
X032995Y013910D01*
X032995Y012910D02*
X032402Y012910D01*
X032402Y011910D02*
X032995Y011910D01*
D14*
X032747Y011896D02*
X034400Y011896D01*
X034400Y011994D02*
X033434Y011994D01*
X033431Y012015D02*
X033409Y012082D01*
X033378Y012144D01*
X033336Y012201D01*
X033286Y012251D01*
X033230Y012292D01*
X033167Y012324D01*
X033100Y012346D01*
X033031Y012357D01*
X032747Y012357D01*
X032747Y011958D01*
X033440Y011958D01*
X033431Y012015D01*
X033404Y012093D02*
X034400Y012093D01*
X034400Y012191D02*
X033344Y012191D01*
X033233Y012290D02*
X034400Y012290D01*
X034400Y012388D02*
X030099Y012388D01*
X030159Y012448D02*
X030410Y012700D01*
X032005Y012700D01*
X032023Y012657D01*
X032149Y012531D01*
X032313Y012463D01*
X033084Y012463D01*
X033248Y012531D01*
X033374Y012657D01*
X033442Y012821D01*
X033442Y012999D01*
X033374Y013163D01*
X033248Y013289D01*
X033084Y013357D01*
X032313Y013357D01*
X032149Y013289D01*
X032023Y013163D01*
X032005Y013120D01*
X030237Y013120D01*
X029862Y012745D01*
X024622Y012745D01*
X024602Y012765D01*
X024502Y012806D01*
X024395Y012806D01*
X024295Y012765D01*
X024219Y012689D01*
X024177Y012589D01*
X024177Y012481D01*
X024219Y012381D01*
X024295Y012305D01*
X024395Y012264D01*
X024502Y012264D01*
X024602Y012305D01*
X024622Y012325D01*
X030035Y012325D01*
X030159Y012448D01*
X030197Y012487D02*
X032256Y012487D01*
X032297Y012346D02*
X032230Y012324D01*
X032167Y012292D01*
X032111Y012251D01*
X032061Y012201D01*
X032019Y012144D01*
X031988Y012082D01*
X031966Y012015D01*
X031957Y011958D01*
X032650Y011958D01*
X032650Y011862D01*
X031957Y011862D01*
X031966Y011805D01*
X031988Y011738D01*
X032019Y011676D01*
X032061Y011619D01*
X032111Y011569D01*
X032167Y011528D01*
X032230Y011496D01*
X032297Y011474D01*
X032366Y011463D01*
X032650Y011463D01*
X032650Y011862D01*
X032747Y011862D01*
X032747Y011958D01*
X032650Y011958D01*
X032650Y012357D01*
X032366Y012357D01*
X032297Y012346D01*
X032164Y012290D02*
X024564Y012290D01*
X024333Y012290D02*
X019417Y012290D01*
X019377Y012306D02*
X019270Y012306D01*
X019170Y012265D01*
X019094Y012189D01*
X019052Y012089D01*
X019052Y011981D01*
X019094Y011881D01*
X019114Y011862D01*
X019114Y009833D01*
X019094Y009814D01*
X019052Y009714D01*
X019052Y009606D01*
X019094Y009506D01*
X019170Y009430D01*
X019270Y009389D01*
X019377Y009389D01*
X019477Y009430D01*
X019553Y009506D01*
X019595Y009606D01*
X019595Y009714D01*
X019553Y009814D01*
X019534Y009833D01*
X019534Y011862D01*
X019553Y011881D01*
X019595Y011981D01*
X019595Y012089D01*
X019553Y012189D01*
X019477Y012265D01*
X019377Y012306D01*
X019230Y012290D02*
X018491Y012290D01*
X018470Y012311D02*
X018470Y012339D01*
X018428Y012439D01*
X018352Y012515D01*
X018252Y012556D01*
X018145Y012556D01*
X018045Y012515D01*
X018034Y012503D01*
X018034Y014323D01*
X018409Y014698D01*
X018409Y015237D01*
X018428Y015256D01*
X018470Y015356D01*
X018470Y015464D01*
X018428Y015564D01*
X018352Y015640D01*
X018252Y015681D01*
X018145Y015681D01*
X018045Y015640D01*
X017969Y015564D01*
X017927Y015464D01*
X017927Y015356D01*
X017969Y015256D01*
X017989Y015237D01*
X017989Y014872D01*
X017737Y014620D01*
X017659Y014542D01*
X017659Y015323D01*
X017724Y015389D01*
X017752Y015389D01*
X017852Y015430D01*
X017928Y015506D01*
X017970Y015606D01*
X017970Y015714D01*
X017928Y015814D01*
X017852Y015890D01*
X017752Y015931D01*
X017645Y015931D01*
X017545Y015890D01*
X017469Y015814D01*
X017427Y015714D01*
X017427Y015686D01*
X017362Y015620D01*
X017362Y015620D01*
X017239Y015497D01*
X017239Y013708D01*
X017219Y013689D01*
X017177Y013589D01*
X017177Y013481D01*
X017219Y013381D01*
X017295Y013305D01*
X017395Y013264D01*
X017502Y013264D01*
X017602Y013305D01*
X017614Y013317D01*
X017614Y012198D01*
X017737Y012075D01*
X018364Y011448D01*
X018364Y009208D01*
X018344Y009189D01*
X018302Y009089D01*
X018302Y008981D01*
X018344Y008881D01*
X018420Y008805D01*
X018520Y008764D01*
X018614Y008764D01*
X018614Y008372D01*
X018487Y008245D01*
X011082Y008245D01*
X011053Y008314D01*
X010977Y008390D01*
X010877Y008431D01*
X010770Y008431D01*
X010670Y008390D01*
X010594Y008314D01*
X010552Y008214D01*
X010552Y008106D01*
X010594Y008006D01*
X010670Y007930D01*
X010770Y007889D01*
X010798Y007889D01*
X010862Y007825D01*
X018660Y007825D01*
X018784Y007948D01*
X019034Y008198D01*
X019034Y011747D01*
X018910Y011870D01*
X018470Y012311D01*
X018449Y012388D02*
X024216Y012388D01*
X024177Y012487D02*
X018380Y012487D01*
X018034Y012585D02*
X024177Y012585D01*
X024217Y012684D02*
X021105Y012684D01*
X021102Y012680D02*
X021178Y012756D01*
X021220Y012856D01*
X021220Y012964D01*
X021178Y013064D01*
X021102Y013140D01*
X021002Y013181D01*
X020895Y013181D01*
X020795Y013140D01*
X020775Y013120D01*
X019035Y013120D01*
X018595Y013561D01*
X018595Y013589D01*
X018553Y013689D01*
X018477Y013765D01*
X018377Y013806D01*
X018270Y013806D01*
X018170Y013765D01*
X018094Y013689D01*
X018052Y013589D01*
X018052Y013481D01*
X018094Y013381D01*
X018170Y013305D01*
X018270Y013264D01*
X018298Y013264D01*
X018739Y012823D01*
X018862Y012700D01*
X020775Y012700D01*
X020795Y012680D01*
X020895Y012639D01*
X021002Y012639D01*
X021102Y012680D01*
X021189Y012782D02*
X024337Y012782D01*
X024560Y012782D02*
X025726Y012782D01*
X025770Y012764D02*
X025670Y012805D01*
X025594Y012881D01*
X025552Y012981D01*
X025552Y013089D01*
X025594Y013189D01*
X025670Y013265D01*
X025770Y013306D01*
X025877Y013306D01*
X025977Y013265D01*
X025997Y013245D01*
X029362Y013245D01*
X029552Y013436D01*
X029552Y013464D01*
X029594Y013564D01*
X029670Y013640D01*
X029770Y013681D01*
X029798Y013681D01*
X030114Y013997D01*
X030237Y014120D01*
X032005Y014120D01*
X032023Y014163D01*
X032149Y014289D01*
X032313Y014357D01*
X033084Y014357D01*
X033248Y014289D01*
X033374Y014163D01*
X033442Y013999D01*
X033442Y013821D01*
X033374Y013657D01*
X033248Y013531D01*
X033084Y013463D01*
X032313Y013463D01*
X032149Y013531D01*
X032023Y013657D01*
X032005Y013700D01*
X030410Y013700D01*
X030095Y013384D01*
X030095Y013356D01*
X030053Y013256D01*
X029977Y013180D01*
X029877Y013139D01*
X029849Y013139D01*
X029535Y012825D01*
X025997Y012825D01*
X025977Y012805D01*
X025877Y012764D01*
X025770Y012764D01*
X025921Y012782D02*
X029899Y012782D01*
X029997Y012881D02*
X029591Y012881D01*
X029690Y012979D02*
X030096Y012979D01*
X030194Y013078D02*
X029788Y013078D01*
X029967Y013176D02*
X032036Y013176D01*
X032134Y013275D02*
X030061Y013275D01*
X030095Y013373D02*
X034400Y013373D01*
X034400Y013275D02*
X033263Y013275D01*
X033361Y013176D02*
X034400Y013176D01*
X034400Y013078D02*
X033410Y013078D01*
X033442Y012979D02*
X034400Y012979D01*
X034400Y012881D02*
X033442Y012881D01*
X033426Y012782D02*
X034400Y012782D01*
X034400Y012684D02*
X033385Y012684D01*
X033302Y012585D02*
X034400Y012585D01*
X034400Y012487D02*
X033141Y012487D01*
X032747Y012290D02*
X032650Y012290D01*
X032650Y012191D02*
X032747Y012191D01*
X032747Y012093D02*
X032650Y012093D01*
X032650Y011994D02*
X032747Y011994D01*
X032747Y011862D02*
X033440Y011862D01*
X033431Y011805D01*
X033409Y011738D01*
X033378Y011676D01*
X033336Y011619D01*
X033286Y011569D01*
X033230Y011528D01*
X033167Y011496D01*
X033100Y011474D01*
X033031Y011463D01*
X032747Y011463D01*
X032747Y011862D01*
X032747Y011797D02*
X032650Y011797D01*
X032650Y011699D02*
X032747Y011699D01*
X032747Y011600D02*
X032650Y011600D01*
X032650Y011502D02*
X032747Y011502D01*
X032650Y011896D02*
X019559Y011896D01*
X019534Y011797D02*
X031969Y011797D01*
X032008Y011699D02*
X019534Y011699D01*
X019534Y011600D02*
X032080Y011600D01*
X032219Y011502D02*
X020865Y011502D01*
X020852Y011515D02*
X020752Y011556D01*
X020645Y011556D01*
X020545Y011515D01*
X020469Y011439D01*
X020427Y011339D01*
X020427Y011231D01*
X020469Y011131D01*
X020489Y011112D01*
X020489Y008918D01*
X020420Y008890D01*
X020344Y008814D01*
X020302Y008714D01*
X020302Y008606D01*
X020344Y008506D01*
X020355Y008495D01*
X019910Y008495D01*
X019720Y008686D01*
X019720Y008714D01*
X019678Y008814D01*
X019602Y008890D01*
X019502Y008931D01*
X019395Y008931D01*
X019295Y008890D01*
X019219Y008814D01*
X019177Y008714D01*
X019177Y008606D01*
X019219Y008506D01*
X019295Y008430D01*
X019395Y008389D01*
X019423Y008389D01*
X019737Y008075D01*
X022535Y008075D01*
X022659Y008198D01*
X023034Y008573D01*
X023034Y010987D01*
X023053Y011006D01*
X023095Y011106D01*
X023095Y011214D01*
X023053Y011314D01*
X022977Y011390D01*
X022877Y011431D01*
X022770Y011431D01*
X022670Y011390D01*
X022594Y011314D01*
X022552Y011214D01*
X022552Y011106D01*
X022594Y011006D01*
X022614Y010987D01*
X022614Y008747D01*
X022362Y008495D01*
X020792Y008495D01*
X020803Y008506D01*
X020845Y008606D01*
X020845Y008634D01*
X020909Y008698D01*
X020909Y011112D01*
X020928Y011131D01*
X020970Y011231D01*
X020970Y011339D01*
X020928Y011439D01*
X020852Y011515D01*
X020943Y011403D02*
X022702Y011403D01*
X022590Y011305D02*
X020970Y011305D01*
X020959Y011206D02*
X022552Y011206D01*
X022552Y011108D02*
X020909Y011108D01*
X020909Y011009D02*
X022593Y011009D01*
X022614Y010911D02*
X020909Y010911D01*
X020909Y010812D02*
X022614Y010812D01*
X022614Y010714D02*
X020909Y010714D01*
X020909Y010615D02*
X022614Y010615D01*
X022614Y010517D02*
X020909Y010517D01*
X020909Y010418D02*
X022614Y010418D01*
X022614Y010320D02*
X020909Y010320D01*
X020909Y010221D02*
X022614Y010221D01*
X022614Y010123D02*
X020909Y010123D01*
X020909Y010024D02*
X022614Y010024D01*
X022614Y009926D02*
X020909Y009926D01*
X020909Y009827D02*
X022614Y009827D01*
X022614Y009729D02*
X020909Y009729D01*
X020909Y009630D02*
X022614Y009630D01*
X022614Y009532D02*
X020909Y009532D01*
X020909Y009433D02*
X022614Y009433D01*
X022614Y009335D02*
X020909Y009335D01*
X020909Y009236D02*
X022614Y009236D01*
X022614Y009138D02*
X020909Y009138D01*
X020909Y009039D02*
X022614Y009039D01*
X022614Y008941D02*
X020909Y008941D01*
X020909Y008842D02*
X022614Y008842D01*
X022610Y008744D02*
X020909Y008744D01*
X020855Y008645D02*
X022512Y008645D01*
X022413Y008547D02*
X020820Y008547D01*
X020327Y008547D02*
X019859Y008547D01*
X019760Y008645D02*
X020302Y008645D01*
X020315Y008744D02*
X019707Y008744D01*
X019650Y008842D02*
X020372Y008842D01*
X020489Y008941D02*
X019034Y008941D01*
X019034Y009039D02*
X020489Y009039D01*
X020489Y009138D02*
X019034Y009138D01*
X019034Y009236D02*
X020489Y009236D01*
X020489Y009335D02*
X019034Y009335D01*
X019034Y009433D02*
X019167Y009433D01*
X019083Y009532D02*
X019034Y009532D01*
X019034Y009630D02*
X019052Y009630D01*
X019059Y009729D02*
X019034Y009729D01*
X019034Y009827D02*
X019107Y009827D01*
X019114Y009926D02*
X019034Y009926D01*
X019034Y010024D02*
X019114Y010024D01*
X019114Y010123D02*
X019034Y010123D01*
X019034Y010221D02*
X019114Y010221D01*
X019114Y010320D02*
X019034Y010320D01*
X019034Y010418D02*
X019114Y010418D01*
X019114Y010517D02*
X019034Y010517D01*
X019034Y010615D02*
X019114Y010615D01*
X019114Y010714D02*
X019034Y010714D01*
X019034Y010812D02*
X019114Y010812D01*
X019114Y010911D02*
X019034Y010911D01*
X019034Y011009D02*
X019114Y011009D01*
X019114Y011108D02*
X019034Y011108D01*
X019034Y011206D02*
X019114Y011206D01*
X019114Y011305D02*
X019034Y011305D01*
X019034Y011403D02*
X019114Y011403D01*
X019114Y011502D02*
X019034Y011502D01*
X019034Y011600D02*
X019114Y011600D01*
X019114Y011699D02*
X019034Y011699D01*
X018983Y011797D02*
X019114Y011797D01*
X019088Y011896D02*
X018885Y011896D01*
X018910Y011870D02*
X018910Y011870D01*
X018786Y011994D02*
X019052Y011994D01*
X019054Y012093D02*
X018688Y012093D01*
X018589Y012191D02*
X019096Y012191D01*
X019551Y012191D02*
X032053Y012191D01*
X031993Y012093D02*
X019593Y012093D01*
X019595Y011994D02*
X031963Y011994D01*
X032095Y012585D02*
X030296Y012585D01*
X030394Y012684D02*
X032012Y012684D01*
X032293Y013472D02*
X030182Y013472D01*
X030281Y013570D02*
X032110Y013570D01*
X032018Y013669D02*
X030379Y013669D01*
X030081Y013964D02*
X029261Y013964D01*
X029227Y013930D02*
X029303Y014006D01*
X029345Y014106D01*
X029345Y014134D01*
X030910Y015700D01*
X032005Y015700D01*
X032023Y015657D01*
X032149Y015531D01*
X032313Y015463D01*
X033084Y015463D01*
X033248Y015531D01*
X033374Y015657D01*
X033442Y015821D01*
X033442Y015999D01*
X033374Y016163D01*
X033248Y016289D01*
X033084Y016357D01*
X032313Y016357D01*
X032149Y016289D01*
X032023Y016163D01*
X032005Y016120D01*
X030737Y016120D01*
X030614Y015997D01*
X029048Y014431D01*
X029020Y014431D01*
X028920Y014390D01*
X028844Y014314D01*
X028802Y014214D01*
X028802Y014186D01*
X028362Y013745D01*
X023707Y013745D01*
X023678Y013814D01*
X023602Y013890D01*
X023502Y013931D01*
X023395Y013931D01*
X023295Y013890D01*
X023219Y013814D01*
X023177Y013714D01*
X023177Y013606D01*
X023219Y013506D01*
X023295Y013430D01*
X023395Y013389D01*
X023423Y013389D01*
X023487Y013325D01*
X028535Y013325D01*
X029099Y013889D01*
X029127Y013889D01*
X029227Y013930D01*
X029076Y013866D02*
X029982Y013866D01*
X029884Y013767D02*
X028978Y013767D01*
X028879Y013669D02*
X029739Y013669D01*
X029600Y013570D02*
X028781Y013570D01*
X028682Y013472D02*
X029556Y013472D01*
X029490Y013373D02*
X028584Y013373D01*
X028384Y013767D02*
X025885Y013767D01*
X025877Y013764D02*
X025977Y013805D01*
X026053Y013881D01*
X026095Y013981D01*
X026095Y014089D01*
X026053Y014189D01*
X025977Y014265D01*
X025877Y014306D01*
X025849Y014306D01*
X024909Y015247D01*
X024785Y015370D01*
X023660Y015370D01*
X023220Y015811D01*
X023220Y015839D01*
X023178Y015939D01*
X023102Y016015D01*
X023002Y016056D01*
X022895Y016056D01*
X022795Y016015D01*
X022719Y015939D01*
X022677Y015839D01*
X022677Y015731D01*
X022719Y015631D01*
X022795Y015555D01*
X022895Y015514D01*
X022923Y015514D01*
X023364Y015073D01*
X023487Y014950D01*
X024612Y014950D01*
X025552Y014009D01*
X025552Y013981D01*
X025594Y013881D01*
X025670Y013805D01*
X025770Y013764D01*
X025877Y013764D01*
X025762Y013767D02*
X023698Y013767D01*
X023626Y013866D02*
X025610Y013866D01*
X025560Y013964D02*
X020761Y013964D01*
X020727Y013930D02*
X020803Y014006D01*
X020845Y014106D01*
X020845Y014214D01*
X020803Y014314D01*
X020727Y014390D01*
X020627Y014431D01*
X020520Y014431D01*
X020420Y014390D01*
X020400Y014370D01*
X019112Y014370D01*
X018923Y014181D01*
X018895Y014181D01*
X018795Y014140D01*
X018719Y014064D01*
X018677Y013964D01*
X018677Y013856D01*
X018719Y013756D01*
X018795Y013680D01*
X018895Y013639D01*
X019002Y013639D01*
X019102Y013680D01*
X019178Y013756D01*
X019220Y013856D01*
X019220Y013884D01*
X019285Y013950D01*
X020400Y013950D01*
X020420Y013930D01*
X020520Y013889D01*
X020627Y013889D01*
X020727Y013930D01*
X020826Y014063D02*
X025499Y014063D01*
X025401Y014161D02*
X024556Y014161D01*
X024602Y014180D02*
X024678Y014256D01*
X024720Y014356D01*
X024720Y014464D01*
X024678Y014564D01*
X024602Y014640D01*
X024502Y014681D01*
X024395Y014681D01*
X024295Y014640D01*
X024275Y014620D01*
X022160Y014620D01*
X021595Y015186D01*
X021595Y015214D01*
X021553Y015314D01*
X021477Y015390D01*
X021377Y015431D01*
X021270Y015431D01*
X021170Y015390D01*
X021150Y015370D01*
X020285Y015370D01*
X020034Y015622D01*
X020034Y017622D01*
X019409Y018247D01*
X019285Y018370D01*
X017285Y018370D01*
X016909Y018747D01*
X016909Y018862D01*
X016928Y018881D01*
X016970Y018981D01*
X016970Y019089D01*
X016928Y019189D01*
X016852Y019265D01*
X016752Y019306D01*
X016645Y019306D01*
X016545Y019265D01*
X016469Y019189D01*
X016427Y019089D01*
X016427Y018981D01*
X016469Y018881D01*
X016489Y018862D01*
X016489Y018573D01*
X016612Y018450D01*
X017112Y017950D01*
X019112Y017950D01*
X019614Y017448D01*
X019614Y015448D01*
X019737Y015325D01*
X020112Y014950D01*
X021150Y014950D01*
X021170Y014930D01*
X021270Y014889D01*
X021298Y014889D01*
X021987Y014200D01*
X024275Y014200D01*
X024295Y014180D01*
X024395Y014139D01*
X024502Y014139D01*
X024602Y014180D01*
X024680Y014260D02*
X025302Y014260D01*
X025204Y014358D02*
X024720Y014358D01*
X024720Y014457D02*
X025105Y014457D01*
X025007Y014555D02*
X024682Y014555D01*
X024569Y014654D02*
X024908Y014654D01*
X024810Y014752D02*
X022028Y014752D01*
X021930Y014851D02*
X024711Y014851D01*
X024613Y014949D02*
X021831Y014949D01*
X021733Y015048D02*
X023389Y015048D01*
X023364Y015073D02*
X023364Y015073D01*
X023291Y015146D02*
X021634Y015146D01*
X021582Y015245D02*
X023192Y015245D01*
X023094Y015343D02*
X021524Y015343D01*
X021336Y014851D02*
X018409Y014851D01*
X018409Y014949D02*
X021151Y014949D01*
X021435Y014752D02*
X018409Y014752D01*
X018364Y014654D02*
X021533Y014654D01*
X021632Y014555D02*
X018266Y014555D01*
X018167Y014457D02*
X021730Y014457D01*
X021829Y014358D02*
X020759Y014358D01*
X020826Y014260D02*
X021927Y014260D01*
X022127Y014654D02*
X024328Y014654D01*
X024341Y014161D02*
X020845Y014161D01*
X020883Y013176D02*
X018979Y013176D01*
X018881Y013275D02*
X025694Y013275D01*
X025589Y013176D02*
X021015Y013176D01*
X021164Y013078D02*
X025552Y013078D01*
X025553Y012979D02*
X021213Y012979D01*
X021220Y012881D02*
X025595Y012881D01*
X025953Y013275D02*
X029391Y013275D01*
X029326Y014063D02*
X030179Y014063D01*
X029766Y014555D02*
X032125Y014555D01*
X032149Y014531D02*
X032313Y014463D01*
X033084Y014463D01*
X033248Y014531D01*
X033374Y014657D01*
X033442Y014821D01*
X033442Y014999D01*
X033374Y015163D01*
X033248Y015289D01*
X033084Y015357D01*
X032313Y015357D01*
X032149Y015289D01*
X032023Y015163D01*
X031955Y014999D01*
X031955Y014821D01*
X032023Y014657D01*
X032149Y014531D01*
X032026Y014654D02*
X029864Y014654D01*
X029963Y014752D02*
X031983Y014752D01*
X031955Y014851D02*
X030061Y014851D01*
X030160Y014949D02*
X031955Y014949D01*
X031975Y015048D02*
X030258Y015048D01*
X030357Y015146D02*
X032016Y015146D01*
X032104Y015245D02*
X030455Y015245D01*
X030554Y015343D02*
X032279Y015343D01*
X032140Y015540D02*
X030751Y015540D01*
X030849Y015639D02*
X032041Y015639D01*
X032010Y016131D02*
X024217Y016131D01*
X024160Y016075D02*
X026724Y018639D01*
X026752Y018639D01*
X026852Y018680D01*
X026928Y018756D01*
X026970Y018856D01*
X026970Y018964D01*
X026928Y019064D01*
X026852Y019140D01*
X026752Y019181D01*
X026645Y019181D01*
X026545Y019140D01*
X026469Y019064D01*
X026427Y018964D01*
X026427Y018936D01*
X023987Y016495D01*
X022542Y016495D01*
X022553Y016506D01*
X022595Y016606D01*
X022595Y016714D01*
X022553Y016814D01*
X022477Y016890D01*
X022377Y016931D01*
X022349Y016931D01*
X022034Y017247D01*
X022034Y019372D01*
X021910Y019495D01*
X021660Y019745D01*
X016372Y019745D01*
X016352Y019765D01*
X016252Y019806D01*
X016145Y019806D01*
X016045Y019765D01*
X015969Y019689D01*
X015927Y019589D01*
X015927Y019481D01*
X015969Y019381D01*
X016045Y019305D01*
X016145Y019264D01*
X016252Y019264D01*
X016352Y019305D01*
X016372Y019325D01*
X021487Y019325D01*
X021614Y019198D01*
X021614Y017073D01*
X022052Y016634D01*
X022052Y016606D01*
X022094Y016506D01*
X022105Y016495D01*
X021997Y016495D01*
X021977Y016515D01*
X021877Y016556D01*
X021770Y016556D01*
X021670Y016515D01*
X021594Y016439D01*
X021552Y016339D01*
X021552Y016231D01*
X021594Y016131D01*
X020034Y016131D01*
X020034Y016033D02*
X021725Y016033D01*
X021770Y016014D02*
X021670Y016055D01*
X021594Y016131D01*
X021553Y016230D02*
X020034Y016230D01*
X020034Y016328D02*
X021552Y016328D01*
X021589Y016427D02*
X020034Y016427D01*
X020034Y016525D02*
X021695Y016525D01*
X021952Y016525D02*
X022086Y016525D01*
X022052Y016624D02*
X020034Y016624D01*
X020034Y016722D02*
X021964Y016722D01*
X021866Y016821D02*
X020034Y016821D01*
X020034Y016919D02*
X021767Y016919D01*
X021669Y017018D02*
X020034Y017018D01*
X020034Y017116D02*
X021614Y017116D01*
X021614Y017215D02*
X020034Y017215D01*
X020034Y017313D02*
X021614Y017313D01*
X021614Y017412D02*
X020034Y017412D01*
X020034Y017510D02*
X021614Y017510D01*
X021614Y017609D02*
X020034Y017609D01*
X019948Y017707D02*
X021614Y017707D01*
X021614Y017806D02*
X019850Y017806D01*
X019751Y017904D02*
X021614Y017904D01*
X021614Y018003D02*
X019653Y018003D01*
X019554Y018101D02*
X021614Y018101D01*
X021614Y018200D02*
X019456Y018200D01*
X019357Y018298D02*
X021614Y018298D01*
X021614Y018397D02*
X017259Y018397D01*
X017160Y018495D02*
X021614Y018495D01*
X021614Y018594D02*
X017062Y018594D01*
X016963Y018692D02*
X021614Y018692D01*
X021614Y018791D02*
X016909Y018791D01*
X016931Y018889D02*
X021614Y018889D01*
X021614Y018988D02*
X016970Y018988D01*
X016970Y019086D02*
X021614Y019086D01*
X021614Y019185D02*
X016930Y019185D01*
X016808Y019283D02*
X021528Y019283D01*
X021827Y019579D02*
X022108Y019579D01*
X022114Y019573D02*
X022114Y017323D01*
X022237Y017200D01*
X022677Y016759D01*
X022677Y016731D01*
X022719Y016631D01*
X022795Y016555D01*
X022895Y016514D01*
X023002Y016514D01*
X023102Y016555D01*
X023178Y016631D01*
X023220Y016731D01*
X023220Y016839D01*
X023178Y016939D01*
X023102Y017015D01*
X023002Y017056D01*
X022974Y017056D01*
X022534Y017497D01*
X022534Y019747D01*
X022159Y020122D01*
X022035Y020245D01*
X015612Y020245D01*
X015199Y019832D01*
X014785Y020245D01*
X011903Y020245D01*
X011883Y020265D01*
X011784Y020306D01*
X011676Y020306D01*
X011576Y020265D01*
X011500Y020189D01*
X011459Y020089D01*
X011459Y019981D01*
X011500Y019881D01*
X011576Y019805D01*
X011676Y019764D01*
X011784Y019764D01*
X011883Y019805D01*
X011903Y019825D01*
X014612Y019825D01*
X014927Y019509D01*
X014927Y019481D01*
X014969Y019381D01*
X014989Y019362D01*
X014989Y017333D01*
X014969Y017314D01*
X014927Y017214D01*
X014927Y017106D01*
X014969Y017006D01*
X015045Y016930D01*
X015145Y016889D01*
X015252Y016889D01*
X015352Y016930D01*
X015428Y017006D01*
X015470Y017106D01*
X015470Y017214D01*
X015428Y017314D01*
X015409Y017333D01*
X015409Y019362D01*
X015428Y019381D01*
X015470Y019481D01*
X015470Y019509D01*
X015785Y019825D01*
X021862Y019825D01*
X022114Y019573D01*
X022114Y019480D02*
X021925Y019480D01*
X022024Y019382D02*
X022114Y019382D01*
X022114Y019283D02*
X022034Y019283D01*
X022034Y019185D02*
X022114Y019185D01*
X022114Y019086D02*
X022034Y019086D01*
X022034Y018988D02*
X022114Y018988D01*
X022114Y018889D02*
X022034Y018889D01*
X022034Y018791D02*
X022114Y018791D01*
X022114Y018692D02*
X022034Y018692D01*
X022034Y018594D02*
X022114Y018594D01*
X022114Y018495D02*
X022034Y018495D01*
X022034Y018397D02*
X022114Y018397D01*
X022114Y018298D02*
X022034Y018298D01*
X022034Y018200D02*
X022114Y018200D01*
X022114Y018101D02*
X022034Y018101D01*
X022034Y018003D02*
X022114Y018003D01*
X022114Y017904D02*
X022034Y017904D01*
X022034Y017806D02*
X022114Y017806D01*
X022114Y017707D02*
X022034Y017707D01*
X022034Y017609D02*
X022114Y017609D01*
X022114Y017510D02*
X022034Y017510D01*
X022034Y017412D02*
X022114Y017412D01*
X022123Y017313D02*
X022034Y017313D01*
X022066Y017215D02*
X022222Y017215D01*
X022164Y017116D02*
X022320Y017116D01*
X022263Y017018D02*
X022419Y017018D01*
X022406Y016919D02*
X022517Y016919D01*
X022546Y016821D02*
X022616Y016821D01*
X022591Y016722D02*
X022681Y016722D01*
X022727Y016624D02*
X022595Y016624D01*
X022561Y016525D02*
X022868Y016525D01*
X023029Y016525D02*
X024017Y016525D01*
X024115Y016624D02*
X023170Y016624D01*
X023216Y016722D02*
X024214Y016722D01*
X024312Y016821D02*
X023220Y016821D01*
X023186Y016919D02*
X024411Y016919D01*
X024509Y017018D02*
X023095Y017018D01*
X022914Y017116D02*
X024608Y017116D01*
X024706Y017215D02*
X022816Y017215D01*
X022717Y017313D02*
X024805Y017313D01*
X024903Y017412D02*
X022619Y017412D01*
X022534Y017510D02*
X025002Y017510D01*
X025100Y017609D02*
X022534Y017609D01*
X022534Y017707D02*
X025199Y017707D01*
X025297Y017806D02*
X022534Y017806D01*
X022534Y017904D02*
X025396Y017904D01*
X025494Y018003D02*
X022534Y018003D01*
X022534Y018101D02*
X025593Y018101D01*
X025691Y018200D02*
X022534Y018200D01*
X022534Y018298D02*
X025790Y018298D01*
X025888Y018397D02*
X022534Y018397D01*
X022534Y018495D02*
X025987Y018495D01*
X026085Y018594D02*
X022534Y018594D01*
X022534Y018692D02*
X026184Y018692D01*
X026282Y018791D02*
X022534Y018791D01*
X022534Y018889D02*
X026381Y018889D01*
X026437Y018988D02*
X022534Y018988D01*
X022534Y019086D02*
X026491Y019086D01*
X026906Y019086D02*
X030239Y019086D01*
X030239Y018988D02*
X026960Y018988D01*
X026970Y018889D02*
X030239Y018889D01*
X030239Y018791D02*
X026942Y018791D01*
X026864Y018692D02*
X030239Y018692D01*
X030239Y018594D02*
X026679Y018594D01*
X026581Y018495D02*
X030239Y018495D01*
X030239Y018397D02*
X026482Y018397D01*
X026384Y018298D02*
X030263Y018298D01*
X030239Y018323D02*
X031739Y016823D01*
X031862Y016700D01*
X032005Y016700D01*
X032023Y016657D01*
X032149Y016531D01*
X032313Y016463D01*
X033084Y016463D01*
X033248Y016531D01*
X033374Y016657D01*
X033442Y016821D01*
X033442Y016999D01*
X033374Y017163D01*
X033248Y017289D01*
X033084Y017357D01*
X032313Y017357D01*
X032149Y017289D01*
X032023Y017163D01*
X032014Y017142D01*
X030659Y018497D01*
X030659Y021497D01*
X030535Y021620D01*
X029160Y022995D01*
X013247Y022995D01*
X013227Y023015D01*
X013127Y023056D01*
X013020Y023056D01*
X012920Y023015D01*
X012844Y022939D01*
X012802Y022839D01*
X012802Y022731D01*
X012844Y022631D01*
X012920Y022555D01*
X013020Y022514D01*
X013127Y022514D01*
X013227Y022555D01*
X013247Y022575D01*
X028987Y022575D01*
X030239Y021323D01*
X030239Y018323D01*
X030362Y018200D02*
X026285Y018200D01*
X026187Y018101D02*
X030460Y018101D01*
X030559Y018003D02*
X026088Y018003D01*
X025990Y017904D02*
X030657Y017904D01*
X030756Y017806D02*
X025891Y017806D01*
X025793Y017707D02*
X030854Y017707D01*
X030953Y017609D02*
X025694Y017609D01*
X025596Y017510D02*
X031051Y017510D01*
X031150Y017412D02*
X025497Y017412D01*
X025399Y017313D02*
X031248Y017313D01*
X031347Y017215D02*
X025300Y017215D01*
X025202Y017116D02*
X031445Y017116D01*
X031544Y017018D02*
X025103Y017018D01*
X025005Y016919D02*
X031642Y016919D01*
X031741Y016821D02*
X024906Y016821D01*
X024808Y016722D02*
X031839Y016722D01*
X032056Y016624D02*
X024709Y016624D01*
X024611Y016525D02*
X032163Y016525D01*
X032243Y016328D02*
X024414Y016328D01*
X024512Y016427D02*
X034400Y016427D01*
X034400Y016525D02*
X033234Y016525D01*
X033341Y016624D02*
X034400Y016624D01*
X034400Y016722D02*
X033401Y016722D01*
X033442Y016821D02*
X034400Y016821D01*
X034400Y016919D02*
X033442Y016919D01*
X033434Y017018D02*
X034400Y017018D01*
X034400Y017116D02*
X033394Y017116D01*
X033323Y017215D02*
X034400Y017215D01*
X034400Y017313D02*
X033190Y017313D01*
X033084Y017463D02*
X033248Y017531D01*
X033374Y017657D01*
X033442Y017821D01*
X033442Y017999D01*
X033374Y018163D01*
X033248Y018289D01*
X033084Y018357D01*
X032313Y018357D01*
X032149Y018289D01*
X032080Y018220D01*
X032077Y018220D01*
X031884Y018413D01*
X031884Y022972D01*
X031836Y023086D01*
X031749Y023173D01*
X030961Y023961D01*
X030874Y024048D01*
X030760Y024095D01*
X024887Y024095D01*
X024773Y024048D01*
X024686Y023961D01*
X024639Y023847D01*
X024639Y023723D01*
X024686Y023609D01*
X024773Y023522D01*
X024887Y023475D01*
X030570Y023475D01*
X031264Y022782D01*
X031264Y018223D01*
X031311Y018109D01*
X031398Y018022D01*
X031773Y017647D01*
X031887Y017600D01*
X032080Y017600D01*
X032149Y017531D01*
X032313Y017463D01*
X033084Y017463D01*
X033197Y017510D02*
X034400Y017510D01*
X034400Y017412D02*
X031744Y017412D01*
X031645Y017510D02*
X032200Y017510D01*
X032207Y017313D02*
X031842Y017313D01*
X031941Y017215D02*
X032074Y017215D01*
X031866Y017609D02*
X031547Y017609D01*
X031448Y017707D02*
X031713Y017707D01*
X031615Y017806D02*
X031350Y017806D01*
X031251Y017904D02*
X031516Y017904D01*
X031418Y018003D02*
X031153Y018003D01*
X031054Y018101D02*
X031319Y018101D01*
X031273Y018200D02*
X030956Y018200D01*
X030857Y018298D02*
X031264Y018298D01*
X031264Y018397D02*
X030759Y018397D01*
X030660Y018495D02*
X031264Y018495D01*
X031264Y018594D02*
X030659Y018594D01*
X030659Y018692D02*
X031264Y018692D01*
X031264Y018791D02*
X030659Y018791D01*
X030659Y018889D02*
X031264Y018889D01*
X031264Y018988D02*
X030659Y018988D01*
X030659Y019086D02*
X031264Y019086D01*
X031264Y019185D02*
X030659Y019185D01*
X030659Y019283D02*
X031264Y019283D01*
X031264Y019382D02*
X030659Y019382D01*
X030659Y019480D02*
X031264Y019480D01*
X031264Y019579D02*
X030659Y019579D01*
X030659Y019677D02*
X031264Y019677D01*
X031264Y019776D02*
X030659Y019776D01*
X030659Y019874D02*
X031264Y019874D01*
X031264Y019973D02*
X030659Y019973D01*
X030659Y020071D02*
X031264Y020071D01*
X031264Y020170D02*
X030659Y020170D01*
X030659Y020268D02*
X031264Y020268D01*
X031264Y020367D02*
X030659Y020367D01*
X030659Y020465D02*
X031264Y020465D01*
X031264Y020564D02*
X030659Y020564D01*
X030659Y020662D02*
X031264Y020662D01*
X031264Y020761D02*
X030659Y020761D01*
X030659Y020859D02*
X031264Y020859D01*
X031264Y020958D02*
X030659Y020958D01*
X030659Y021056D02*
X031264Y021056D01*
X031264Y021155D02*
X030659Y021155D01*
X030659Y021253D02*
X031264Y021253D01*
X031264Y021352D02*
X030659Y021352D01*
X030659Y021450D02*
X031264Y021450D01*
X031264Y021549D02*
X030607Y021549D01*
X030508Y021647D02*
X031264Y021647D01*
X031264Y021746D02*
X030410Y021746D01*
X030311Y021844D02*
X031264Y021844D01*
X031264Y021943D02*
X030213Y021943D01*
X030114Y022041D02*
X031264Y022041D01*
X031264Y022140D02*
X030016Y022140D01*
X029917Y022238D02*
X031264Y022238D01*
X031264Y022337D02*
X029819Y022337D01*
X029720Y022435D02*
X031264Y022435D01*
X031264Y022534D02*
X029622Y022534D01*
X029523Y022632D02*
X031264Y022632D01*
X031264Y022731D02*
X029425Y022731D01*
X029326Y022829D02*
X031216Y022829D01*
X031118Y022928D02*
X029228Y022928D01*
X029028Y022534D02*
X013175Y022534D01*
X012972Y022534D02*
X003099Y022534D01*
X003099Y022632D02*
X012844Y022632D01*
X012803Y022731D02*
X003099Y022731D01*
X003099Y022829D02*
X012802Y022829D01*
X012839Y022928D02*
X003099Y022928D01*
X003099Y023026D02*
X012947Y023026D01*
X013200Y023026D02*
X031019Y023026D01*
X030921Y023125D02*
X003099Y023125D01*
X003099Y023223D02*
X030822Y023223D01*
X030724Y023322D02*
X003099Y023322D01*
X003099Y023420D02*
X030625Y023420D01*
X031108Y023814D02*
X034400Y023814D01*
X034400Y023716D02*
X031206Y023716D01*
X031305Y023617D02*
X034400Y023617D01*
X034400Y023519D02*
X032982Y023519D01*
X033016Y023504D02*
X032816Y023587D01*
X032600Y023587D01*
X032400Y023504D01*
X032247Y023351D01*
X032165Y023151D01*
X032165Y022935D01*
X032247Y022735D01*
X032400Y022582D01*
X032600Y022500D01*
X032816Y022500D01*
X033016Y022582D01*
X033169Y022735D01*
X033252Y022935D01*
X033252Y023151D01*
X033169Y023351D01*
X033016Y023504D01*
X033101Y023420D02*
X034400Y023420D01*
X034400Y023322D02*
X033182Y023322D01*
X033222Y023223D02*
X034400Y023223D01*
X034400Y023125D02*
X033252Y023125D01*
X033252Y023026D02*
X034400Y023026D01*
X034400Y022928D02*
X033249Y022928D01*
X033208Y022829D02*
X034400Y022829D01*
X034400Y022731D02*
X033164Y022731D01*
X033066Y022632D02*
X034400Y022632D01*
X034400Y022534D02*
X032898Y022534D01*
X032518Y022534D02*
X031884Y022534D01*
X031884Y022632D02*
X032351Y022632D01*
X032252Y022731D02*
X031884Y022731D01*
X031884Y022829D02*
X032209Y022829D01*
X032168Y022928D02*
X031884Y022928D01*
X031861Y023026D02*
X032165Y023026D01*
X032165Y023125D02*
X031797Y023125D01*
X031749Y023173D02*
X031749Y023173D01*
X031699Y023223D02*
X032194Y023223D01*
X032235Y023322D02*
X031600Y023322D01*
X031502Y023420D02*
X032316Y023420D01*
X032435Y023519D02*
X031403Y023519D01*
X031009Y023913D02*
X034400Y023913D01*
X034400Y024011D02*
X030911Y024011D01*
X030961Y023961D02*
X030961Y023961D01*
X032247Y024735D02*
X032400Y024582D01*
X032600Y024500D01*
X032816Y024500D01*
X033016Y024582D01*
X033169Y024735D01*
X033252Y024935D01*
X033252Y025151D01*
X033169Y025351D01*
X033016Y025504D01*
X032816Y025587D01*
X032600Y025587D01*
X032400Y025504D01*
X032247Y025351D01*
X032165Y025151D01*
X032165Y024935D01*
X032247Y024735D01*
X032282Y024701D02*
X005267Y024701D01*
X005273Y024690D02*
X005230Y024764D01*
X005178Y024831D01*
X005118Y024891D01*
X005051Y024943D01*
X004977Y024986D01*
X004898Y025019D01*
X004816Y025041D01*
X004739Y025051D01*
X004739Y024452D01*
X004639Y024452D01*
X004639Y025051D01*
X004562Y025041D01*
X004479Y025019D01*
X004401Y024986D01*
X004327Y024943D01*
X004259Y024891D01*
X004199Y024831D01*
X004147Y024764D01*
X004104Y024690D01*
X004072Y024611D01*
X004050Y024529D01*
X004040Y024452D01*
X004639Y024452D01*
X004639Y024352D01*
X004040Y024352D01*
X004050Y024275D01*
X004072Y024192D01*
X004104Y024114D01*
X004147Y024040D01*
X004199Y023972D01*
X004259Y023912D01*
X004327Y023860D01*
X004401Y023817D01*
X004479Y023785D01*
X004562Y023763D01*
X004639Y023753D01*
X004639Y024352D01*
X004739Y024352D01*
X004739Y024452D01*
X005338Y024452D01*
X005328Y024529D01*
X005305Y024611D01*
X005273Y024690D01*
X005308Y024602D02*
X032381Y024602D01*
X032591Y024504D02*
X005331Y024504D01*
X005338Y024352D02*
X004739Y024352D01*
X004739Y023753D01*
X004816Y023763D01*
X004898Y023785D01*
X004977Y023817D01*
X005051Y023860D01*
X005118Y023912D01*
X005178Y023972D01*
X005230Y024040D01*
X005273Y024114D01*
X005305Y024192D01*
X005328Y024275D01*
X005338Y024352D01*
X005332Y024307D02*
X034400Y024307D01*
X034400Y024405D02*
X004739Y024405D01*
X004739Y024307D02*
X004639Y024307D01*
X004639Y024405D02*
X003099Y024405D01*
X003099Y024307D02*
X004046Y024307D01*
X004068Y024208D02*
X003099Y024208D01*
X003099Y024110D02*
X004107Y024110D01*
X004169Y024011D02*
X003099Y024011D01*
X003099Y023913D02*
X004259Y023913D01*
X004409Y023814D02*
X003099Y023814D01*
X003099Y023716D02*
X024642Y023716D01*
X024639Y023814D02*
X004968Y023814D01*
X005119Y023913D02*
X024666Y023913D01*
X024736Y024011D02*
X005208Y024011D01*
X005271Y024110D02*
X034400Y024110D01*
X034400Y024208D02*
X005310Y024208D01*
X004739Y024208D02*
X004639Y024208D01*
X004639Y024110D02*
X004739Y024110D01*
X004739Y024011D02*
X004639Y024011D01*
X004639Y023913D02*
X004739Y023913D01*
X004739Y023814D02*
X004639Y023814D01*
X004639Y024504D02*
X004739Y024504D01*
X004739Y024602D02*
X004639Y024602D01*
X004639Y024701D02*
X004739Y024701D01*
X004739Y024799D02*
X004639Y024799D01*
X004639Y024898D02*
X004739Y024898D01*
X004739Y024996D02*
X004639Y024996D01*
X004425Y024996D02*
X003099Y024996D01*
X003099Y024898D02*
X004267Y024898D01*
X004174Y024799D02*
X003099Y024799D01*
X003099Y024701D02*
X004111Y024701D01*
X004069Y024602D02*
X003099Y024602D01*
X003099Y024504D02*
X004046Y024504D01*
X004952Y024996D02*
X032165Y024996D01*
X032165Y025095D02*
X003099Y025095D01*
X003099Y025193D02*
X032182Y025193D01*
X032223Y025292D02*
X003099Y025292D01*
X003099Y025390D02*
X032286Y025390D01*
X032385Y025489D02*
X003099Y025489D01*
X003099Y025587D02*
X034400Y025587D01*
X034400Y025489D02*
X033032Y025489D01*
X033131Y025390D02*
X034400Y025390D01*
X034400Y025292D02*
X033194Y025292D01*
X033235Y025193D02*
X034400Y025193D01*
X034400Y025095D02*
X033252Y025095D01*
X033252Y024996D02*
X034400Y024996D01*
X034400Y024898D02*
X033236Y024898D01*
X033196Y024799D02*
X034400Y024799D01*
X034400Y024701D02*
X033134Y024701D01*
X033036Y024602D02*
X034400Y024602D01*
X034400Y024504D02*
X032826Y024504D01*
X032221Y024799D02*
X005203Y024799D01*
X005110Y024898D02*
X032180Y024898D01*
X032600Y026500D02*
X032816Y026500D01*
X033016Y026582D01*
X033169Y026735D01*
X033252Y026935D01*
X033252Y027151D01*
X033169Y027351D01*
X033016Y027504D01*
X032816Y027587D01*
X032600Y027587D01*
X032400Y027504D01*
X032247Y027351D01*
X032165Y027151D01*
X032165Y026935D01*
X032247Y026735D01*
X032400Y026582D01*
X032600Y026500D01*
X032425Y026572D02*
X005322Y026572D01*
X005339Y026531D02*
X005240Y026770D01*
X005057Y026953D01*
X004818Y027052D01*
X004559Y027052D01*
X004320Y026953D01*
X004138Y026770D01*
X004039Y026531D01*
X004039Y026272D01*
X004138Y026033D01*
X004320Y025851D01*
X004559Y025752D01*
X004818Y025752D01*
X005057Y025851D01*
X005240Y026033D01*
X005339Y026272D01*
X005339Y026531D01*
X005339Y026474D02*
X034400Y026474D01*
X034400Y026572D02*
X032991Y026572D01*
X033104Y026671D02*
X034400Y026671D01*
X034400Y026769D02*
X033183Y026769D01*
X033224Y026868D02*
X034400Y026868D01*
X034400Y026966D02*
X033252Y026966D01*
X033252Y027065D02*
X034400Y027065D01*
X034400Y027163D02*
X033247Y027163D01*
X033206Y027262D02*
X034400Y027262D01*
X034400Y027360D02*
X033161Y027360D01*
X033062Y027459D02*
X034400Y027459D01*
X034400Y027557D02*
X032889Y027557D01*
X032528Y027557D02*
X003099Y027557D01*
X003099Y027459D02*
X032355Y027459D01*
X032256Y027360D02*
X003099Y027360D01*
X003099Y027262D02*
X032210Y027262D01*
X032169Y027163D02*
X003099Y027163D01*
X003099Y027065D02*
X032165Y027065D01*
X032165Y026966D02*
X005025Y026966D01*
X005142Y026868D02*
X032193Y026868D01*
X032233Y026769D02*
X005240Y026769D01*
X005281Y026671D02*
X032312Y026671D01*
X032581Y028005D02*
X033030Y028076D01*
X033434Y028282D01*
X033434Y028282D01*
X033755Y028603D01*
X033755Y028603D01*
X033961Y029008D01*
X034032Y029456D01*
X033961Y029905D01*
X033755Y030309D01*
X033434Y030630D01*
X033030Y030836D01*
X032581Y030907D01*
X032133Y030836D01*
X031728Y030630D01*
X031407Y030309D01*
X031201Y029905D01*
X031201Y029905D01*
X031130Y029456D01*
X031201Y029008D01*
X031201Y029008D01*
X031407Y028603D01*
X031728Y028282D01*
X031728Y028282D01*
X032133Y028076D01*
X032581Y028005D01*
X032581Y028005D01*
X032301Y028050D02*
X005197Y028050D01*
X005365Y028076D02*
X004917Y028005D01*
X004917Y028005D01*
X004469Y028076D01*
X004469Y028076D01*
X004064Y028282D01*
X004064Y028282D01*
X003743Y028603D01*
X003743Y028603D01*
X003537Y029008D01*
X003537Y029008D01*
X003466Y029456D01*
X003466Y029456D01*
X003537Y029905D01*
X003537Y029905D01*
X003743Y030309D01*
X003743Y030309D01*
X004064Y030630D01*
X004064Y030630D01*
X004469Y030836D01*
X004469Y030836D01*
X004917Y030907D01*
X004917Y030907D01*
X005365Y030836D01*
X005365Y030836D01*
X005770Y030630D01*
X005770Y030630D01*
X006091Y030309D01*
X006091Y030309D01*
X006297Y029905D01*
X006297Y029905D01*
X006368Y029456D01*
X006368Y029456D01*
X006297Y029008D01*
X006091Y028603D01*
X005770Y028282D01*
X005770Y028282D01*
X005770Y028282D01*
X005365Y028076D01*
X005365Y028076D01*
X005506Y028148D02*
X031992Y028148D01*
X032133Y028076D02*
X032133Y028076D01*
X031799Y028247D02*
X005700Y028247D01*
X005833Y028345D02*
X031666Y028345D01*
X031567Y028444D02*
X005931Y028444D01*
X006030Y028542D02*
X031469Y028542D01*
X031407Y028603D02*
X031407Y028603D01*
X031388Y028641D02*
X006110Y028641D01*
X006160Y028739D02*
X031338Y028739D01*
X031288Y028838D02*
X006210Y028838D01*
X006261Y028936D02*
X031238Y028936D01*
X031197Y029035D02*
X006301Y029035D01*
X006317Y029133D02*
X031181Y029133D01*
X031166Y029232D02*
X006333Y029232D01*
X006348Y029330D02*
X031150Y029330D01*
X031135Y029429D02*
X006364Y029429D01*
X006357Y029527D02*
X031141Y029527D01*
X031130Y029456D02*
X031130Y029456D01*
X031157Y029626D02*
X006341Y029626D01*
X006326Y029724D02*
X031173Y029724D01*
X031188Y029823D02*
X006310Y029823D01*
X006289Y029921D02*
X031210Y029921D01*
X031260Y030020D02*
X006239Y030020D01*
X006188Y030118D02*
X031310Y030118D01*
X031360Y030217D02*
X006138Y030217D01*
X006085Y030315D02*
X031413Y030315D01*
X031407Y030309D02*
X031407Y030309D01*
X031512Y030414D02*
X005987Y030414D01*
X005888Y030512D02*
X031610Y030512D01*
X031709Y030611D02*
X005790Y030611D01*
X005615Y030709D02*
X031883Y030709D01*
X031728Y030630D02*
X031728Y030630D01*
X032076Y030808D02*
X005422Y030808D01*
X004925Y030906D02*
X032573Y030906D01*
X032581Y030907D02*
X032581Y030907D01*
X032590Y030906D02*
X034308Y030906D01*
X034276Y030975D02*
X034380Y030749D01*
X034400Y030629D01*
X034400Y008456D01*
X034380Y008336D01*
X034276Y008110D01*
X034100Y007934D01*
X033874Y007830D01*
X033754Y007810D01*
X003745Y007810D01*
X003624Y007830D01*
X003398Y007934D01*
X003223Y008110D01*
X003119Y008336D01*
X003099Y008456D01*
X003099Y019453D01*
X003106Y019448D01*
X003114Y019450D01*
X003144Y019450D01*
X003183Y019436D01*
X003207Y019448D01*
X003261Y019442D01*
X003272Y019450D01*
X004000Y019450D01*
X003993Y019444D01*
X003977Y019439D01*
X003969Y019424D01*
X003955Y019413D01*
X003940Y019405D01*
X003923Y019404D01*
X003912Y019390D01*
X003897Y019382D01*
X003892Y019366D01*
X003881Y019352D01*
X003868Y019342D01*
X003851Y019336D01*
X003843Y019321D01*
X003830Y019310D01*
X003828Y019293D01*
X003820Y019278D01*
X003809Y019265D01*
X003794Y019257D01*
X003789Y019240D01*
X003778Y019227D01*
X003780Y019210D01*
X003775Y019193D01*
X003767Y019178D01*
X003753Y019167D01*
X003752Y019150D01*
X003744Y019135D01*
X003749Y019118D01*
X003747Y019101D01*
X003747Y019101D01*
X003739Y019092D01*
X003739Y019073D01*
X003728Y019038D01*
X003739Y019017D01*
X003739Y019016D01*
X003731Y018940D01*
X003739Y018930D01*
X003739Y013114D01*
X003733Y013108D01*
X003739Y013028D01*
X003739Y012948D01*
X003744Y012942D01*
X003749Y012864D01*
X003741Y012851D01*
X003755Y012779D01*
X003760Y012706D01*
X003771Y012696D01*
X003788Y012611D01*
X003781Y012597D01*
X003805Y012528D01*
X003819Y012456D01*
X003832Y012447D01*
X003860Y012365D01*
X003855Y012350D01*
X003887Y012285D01*
X003911Y012215D01*
X003925Y012208D01*
X003963Y012131D01*
X003960Y012116D01*
X004001Y012055D01*
X004033Y011989D01*
X004048Y011984D01*
X004096Y011912D01*
X004095Y011897D01*
X004143Y011842D01*
X004184Y011781D01*
X004199Y011778D01*
X004256Y011713D01*
X004257Y011697D01*
X004312Y011649D01*
X004361Y011594D01*
X004376Y011593D01*
X004441Y011536D01*
X004444Y011520D01*
X004505Y011480D01*
X004560Y011431D01*
X004576Y011432D01*
X004648Y011384D01*
X004653Y011370D01*
X004718Y011337D01*
X004779Y011297D01*
X004795Y011300D01*
X004872Y011261D01*
X004879Y011247D01*
X004948Y011224D01*
X005014Y011191D01*
X005029Y011196D01*
X005111Y011169D01*
X005119Y011156D01*
X005191Y011141D01*
X005260Y011118D01*
X005275Y011125D01*
X005359Y011108D01*
X005370Y011096D01*
X005443Y011091D01*
X005514Y011077D01*
X005527Y011086D01*
X005606Y011081D01*
X005612Y011075D01*
X005692Y011075D01*
X005772Y011070D01*
X005778Y011075D01*
X007678Y011075D01*
X007694Y011061D01*
X007760Y011068D01*
X007789Y011065D01*
X007800Y011059D01*
X007813Y011063D01*
X007826Y011061D01*
X007837Y011070D01*
X007864Y011078D01*
X007892Y011081D01*
X007905Y011077D01*
X007916Y011083D01*
X007930Y011084D01*
X007938Y011095D01*
X007963Y011108D01*
X007990Y011116D01*
X008004Y011115D01*
X008014Y011123D01*
X008027Y011127D01*
X008033Y011139D01*
X008055Y011157D01*
X008080Y011170D01*
X008093Y011171D01*
X008102Y011182D01*
X008113Y011188D01*
X008117Y011201D01*
X008135Y011223D01*
X008157Y011240D01*
X008170Y011244D01*
X008176Y011256D01*
X008186Y011265D01*
X008188Y011278D01*
X008201Y011303D01*
X008219Y011325D01*
X008231Y011331D01*
X008235Y011344D01*
X008243Y011354D01*
X008242Y011367D01*
X008250Y011394D01*
X008274Y011438D01*
X008284Y011448D01*
X008284Y011504D01*
X008300Y011557D01*
X008284Y011587D01*
X008284Y012460D01*
X008291Y012469D01*
X008284Y012541D01*
X008295Y012561D01*
X008284Y012599D01*
X008284Y012622D01*
X008275Y012630D01*
X008275Y012634D01*
X008281Y012653D01*
X008271Y012671D01*
X008269Y012691D01*
X008254Y012704D01*
X008249Y012711D01*
X008247Y012720D01*
X008249Y012740D01*
X008236Y012756D01*
X008230Y012775D01*
X008212Y012784D01*
X008207Y012791D01*
X008203Y012799D01*
X008201Y012819D01*
X008185Y012832D01*
X008176Y012850D01*
X008156Y012855D01*
X008149Y012861D01*
X008144Y012868D01*
X008138Y012887D01*
X008120Y012897D01*
X008107Y012912D01*
X008087Y012914D01*
X008080Y012918D01*
X008073Y012924D01*
X008063Y012942D01*
X008044Y012948D01*
X008028Y012960D01*
X008008Y012958D01*
X008000Y012961D01*
X007992Y012965D01*
X007979Y012981D01*
X007959Y012983D01*
X007941Y012992D01*
X007922Y012986D01*
X007919Y012987D01*
X007910Y012995D01*
X007888Y012995D01*
X007850Y013006D01*
X007829Y012995D01*
X007758Y013003D01*
X007748Y012995D01*
X006333Y012995D01*
X006295Y012998D01*
X006267Y013006D01*
X006241Y013018D01*
X006218Y013034D01*
X006198Y013054D01*
X006181Y013078D01*
X006169Y013104D01*
X006162Y013131D01*
X006159Y013169D01*
X006159Y017220D01*
X006168Y017228D01*
X006179Y017223D01*
X006246Y017243D01*
X006316Y017254D01*
X006323Y017264D01*
X006335Y017260D01*
X006398Y017291D01*
X006466Y017312D01*
X006471Y017323D01*
X006484Y017320D01*
X006541Y017361D01*
X006604Y017392D01*
X006608Y017404D01*
X006621Y017404D01*
X006671Y017453D01*
X006729Y017494D01*
X006731Y017506D01*
X006743Y017508D01*
X006785Y017564D01*
X006836Y017613D01*
X006836Y017626D01*
X006848Y017629D01*
X006881Y017692D01*
X006908Y017728D01*
X006908Y017728D01*
X006916Y017704D01*
X006931Y017697D01*
X006935Y017681D01*
X006956Y017668D01*
X006969Y017647D01*
X006986Y017643D01*
X006993Y017628D01*
X007016Y017620D01*
X007034Y017602D01*
X007050Y017602D01*
X007061Y017589D01*
X007085Y017586D01*
X007106Y017573D01*
X007114Y017575D01*
X007144Y017575D01*
X007183Y017561D01*
X007207Y017573D01*
X007261Y017567D01*
X007272Y017575D01*
X008500Y017575D01*
X008511Y017567D01*
X008565Y017573D01*
X008589Y017561D01*
X008628Y017575D01*
X008658Y017575D01*
X008666Y017573D01*
X008687Y017586D01*
X008711Y017589D01*
X008722Y017602D01*
X008738Y017602D01*
X008756Y017620D01*
X008779Y017628D01*
X008786Y017643D01*
X008803Y017647D01*
X008816Y017668D01*
X008837Y017681D01*
X008841Y017697D01*
X008856Y017704D01*
X008864Y017728D01*
X008881Y017745D01*
X008881Y017762D01*
X008894Y017772D01*
X008897Y017797D01*
X008910Y017818D01*
X008909Y017825D01*
X008909Y017855D01*
X008922Y017895D01*
X008911Y017919D01*
X008917Y017973D01*
X008909Y017983D01*
X008909Y020959D01*
X008915Y020967D01*
X008909Y021044D01*
X008909Y021079D01*
X008916Y021092D01*
X008909Y021121D01*
X008909Y021122D01*
X008908Y021122D01*
X008899Y021158D01*
X008894Y021212D01*
X008895Y021216D01*
X008893Y021221D01*
X008893Y021227D01*
X008889Y021230D01*
X008866Y021278D01*
X008853Y021330D01*
X008853Y021334D01*
X008850Y021339D01*
X008849Y021344D01*
X008845Y021347D01*
X008814Y021390D01*
X008792Y021439D01*
X008792Y021443D01*
X008787Y021447D01*
X008785Y021453D01*
X008781Y021454D01*
X008743Y021492D01*
X008712Y021536D01*
X008712Y021540D01*
X008707Y021543D01*
X008704Y021548D01*
X008699Y021549D01*
X008655Y021580D01*
X008618Y021617D01*
X008616Y021622D01*
X008611Y021624D01*
X008607Y021628D01*
X008602Y021628D01*
X008554Y021651D01*
X008510Y021681D01*
X008508Y021685D01*
X008502Y021687D01*
X008498Y021690D01*
X008493Y021689D01*
X008442Y021703D01*
X008393Y021725D01*
X008390Y021729D01*
X008385Y021730D01*
X008379Y021732D01*
X008375Y021730D01*
X008322Y021735D01*
X008286Y021745D01*
X008285Y021745D01*
X008256Y021753D01*
X008242Y021745D01*
X008208Y021745D01*
X008130Y021752D01*
X008122Y021745D01*
X003525Y021745D01*
X003517Y021752D01*
X003439Y021745D01*
X003430Y021745D01*
X003413Y021755D01*
X003377Y021745D01*
X003362Y021745D01*
X003356Y021739D01*
X003347Y021737D01*
X003323Y021735D01*
X003310Y021739D01*
X003295Y021732D01*
X003278Y021731D01*
X003270Y021721D01*
X003248Y021710D01*
X003225Y021704D01*
X003212Y021707D01*
X003198Y021697D01*
X003182Y021693D01*
X003175Y021681D01*
X003156Y021667D01*
X003134Y021657D01*
X003120Y021657D01*
X003109Y021645D01*
X003099Y021641D01*
X003099Y030629D01*
X003119Y030749D01*
X003223Y030975D01*
X003398Y031151D01*
X003624Y031255D01*
X003745Y031275D01*
X033754Y031275D01*
X033874Y031255D01*
X034100Y031151D01*
X034276Y030975D01*
X034246Y031005D02*
X003252Y031005D01*
X003191Y030906D02*
X004909Y030906D01*
X004412Y030808D02*
X003146Y030808D01*
X003112Y030709D02*
X004219Y030709D01*
X004044Y030611D02*
X003099Y030611D01*
X003099Y030512D02*
X003946Y030512D01*
X003847Y030414D02*
X003099Y030414D01*
X003099Y030315D02*
X003749Y030315D01*
X003696Y030217D02*
X003099Y030217D01*
X003099Y030118D02*
X003646Y030118D01*
X003595Y030020D02*
X003099Y030020D01*
X003099Y029921D02*
X003545Y029921D01*
X003524Y029823D02*
X003099Y029823D01*
X003099Y029724D02*
X003508Y029724D01*
X003493Y029626D02*
X003099Y029626D01*
X003099Y029527D02*
X003477Y029527D01*
X003470Y029429D02*
X003099Y029429D01*
X003099Y029330D02*
X003486Y029330D01*
X003501Y029232D02*
X003099Y029232D01*
X003099Y029133D02*
X003517Y029133D01*
X003533Y029035D02*
X003099Y029035D01*
X003099Y028936D02*
X003574Y028936D01*
X003624Y028838D02*
X003099Y028838D01*
X003099Y028739D02*
X003674Y028739D01*
X003724Y028641D02*
X003099Y028641D01*
X003099Y028542D02*
X003804Y028542D01*
X003903Y028444D02*
X003099Y028444D01*
X003099Y028345D02*
X004001Y028345D01*
X004134Y028247D02*
X003099Y028247D01*
X003099Y028148D02*
X004328Y028148D01*
X004637Y028050D02*
X003099Y028050D01*
X003099Y027951D02*
X034400Y027951D01*
X034400Y027853D02*
X003099Y027853D01*
X003099Y027754D02*
X034400Y027754D01*
X034400Y027656D02*
X003099Y027656D01*
X003099Y026966D02*
X004353Y026966D01*
X004235Y026868D02*
X003099Y026868D01*
X003099Y026769D02*
X004137Y026769D01*
X004096Y026671D02*
X003099Y026671D01*
X003099Y026572D02*
X004056Y026572D01*
X004039Y026474D02*
X003099Y026474D01*
X003099Y026375D02*
X004039Y026375D01*
X004039Y026277D02*
X003099Y026277D01*
X003099Y026178D02*
X004078Y026178D01*
X004119Y026080D02*
X003099Y026080D01*
X003099Y025981D02*
X004190Y025981D01*
X004289Y025883D02*
X003099Y025883D01*
X003099Y025784D02*
X004481Y025784D01*
X004896Y025784D02*
X034400Y025784D01*
X034400Y025686D02*
X003099Y025686D01*
X003099Y023617D02*
X024683Y023617D01*
X024782Y023519D02*
X003099Y023519D01*
X003099Y022435D02*
X028677Y022435D01*
X028648Y022423D02*
X028561Y022336D01*
X028514Y022222D01*
X028514Y020098D01*
X028561Y019984D01*
X028648Y019897D01*
X028762Y019850D01*
X028885Y019850D01*
X028999Y019897D01*
X029086Y019984D01*
X029134Y020098D01*
X029134Y022222D01*
X029086Y022336D01*
X028999Y022423D01*
X028885Y022470D01*
X028762Y022470D01*
X028648Y022423D01*
X028562Y022337D02*
X003099Y022337D01*
X003099Y022238D02*
X028520Y022238D01*
X028514Y022140D02*
X003099Y022140D01*
X003099Y022041D02*
X028514Y022041D01*
X028514Y021943D02*
X003099Y021943D01*
X003099Y021844D02*
X028514Y021844D01*
X028514Y021746D02*
X008283Y021746D01*
X008285Y021745D02*
X008285Y021745D01*
X008243Y021746D02*
X008202Y021746D01*
X008123Y021746D02*
X003524Y021746D01*
X003445Y021746D02*
X003429Y021746D01*
X003379Y021746D02*
X003099Y021746D01*
X003099Y021647D02*
X003110Y021647D01*
X003099Y019382D02*
X003897Y019382D01*
X003823Y019283D02*
X003099Y019283D01*
X003099Y019185D02*
X003770Y019185D01*
X003739Y019086D02*
X003099Y019086D01*
X003099Y018988D02*
X003736Y018988D01*
X003739Y018889D02*
X003099Y018889D01*
X003099Y018791D02*
X003739Y018791D01*
X003739Y018692D02*
X003099Y018692D01*
X003099Y018594D02*
X003739Y018594D01*
X003739Y018495D02*
X003099Y018495D01*
X003099Y018397D02*
X003739Y018397D01*
X003739Y018298D02*
X003099Y018298D01*
X003099Y018200D02*
X003739Y018200D01*
X003739Y018101D02*
X003099Y018101D01*
X003099Y018003D02*
X003739Y018003D01*
X003739Y017904D02*
X003099Y017904D01*
X003099Y017806D02*
X003739Y017806D01*
X003739Y017707D02*
X003099Y017707D01*
X003099Y017609D02*
X003739Y017609D01*
X003739Y017510D02*
X003099Y017510D01*
X003099Y017412D02*
X003739Y017412D01*
X003739Y017313D02*
X003099Y017313D01*
X003099Y017215D02*
X003739Y017215D01*
X003739Y017116D02*
X003099Y017116D01*
X003099Y017018D02*
X003739Y017018D01*
X003739Y016919D02*
X003099Y016919D01*
X003099Y016821D02*
X003739Y016821D01*
X003739Y016722D02*
X003099Y016722D01*
X003099Y016624D02*
X003739Y016624D01*
X003739Y016525D02*
X003099Y016525D01*
X003099Y016427D02*
X003739Y016427D01*
X003739Y016328D02*
X003099Y016328D01*
X003099Y016230D02*
X003739Y016230D01*
X003739Y016131D02*
X003099Y016131D01*
X003099Y016033D02*
X003739Y016033D01*
X003739Y015934D02*
X003099Y015934D01*
X003099Y015836D02*
X003739Y015836D01*
X003739Y015737D02*
X003099Y015737D01*
X003099Y015639D02*
X003739Y015639D01*
X003739Y015540D02*
X003099Y015540D01*
X003099Y015442D02*
X003739Y015442D01*
X003739Y015343D02*
X003099Y015343D01*
X003099Y015245D02*
X003739Y015245D01*
X003739Y015146D02*
X003099Y015146D01*
X003099Y015048D02*
X003739Y015048D01*
X003739Y014949D02*
X003099Y014949D01*
X003099Y014851D02*
X003739Y014851D01*
X003739Y014752D02*
X003099Y014752D01*
X003099Y014654D02*
X003739Y014654D01*
X003739Y014555D02*
X003099Y014555D01*
X003099Y014457D02*
X003739Y014457D01*
X003739Y014358D02*
X003099Y014358D01*
X003099Y014260D02*
X003739Y014260D01*
X003739Y014161D02*
X003099Y014161D01*
X003099Y014063D02*
X003739Y014063D01*
X003739Y013964D02*
X003099Y013964D01*
X003099Y013866D02*
X003739Y013866D01*
X003739Y013767D02*
X003099Y013767D01*
X003099Y013669D02*
X003739Y013669D01*
X003739Y013570D02*
X003099Y013570D01*
X003099Y013472D02*
X003739Y013472D01*
X003739Y013373D02*
X003099Y013373D01*
X003099Y013275D02*
X003739Y013275D01*
X003739Y013176D02*
X003099Y013176D01*
X003099Y013078D02*
X003735Y013078D01*
X003739Y012979D02*
X003099Y012979D01*
X003099Y012881D02*
X003748Y012881D01*
X003754Y012782D02*
X003099Y012782D01*
X003099Y012684D02*
X003774Y012684D01*
X003785Y012585D02*
X003099Y012585D01*
X003099Y012487D02*
X003813Y012487D01*
X003852Y012388D02*
X003099Y012388D01*
X003099Y012290D02*
X003885Y012290D01*
X003934Y012191D02*
X003099Y012191D01*
X003099Y012093D02*
X003975Y012093D01*
X004031Y011994D02*
X003099Y011994D01*
X003099Y011896D02*
X004096Y011896D01*
X004173Y011797D02*
X003099Y011797D01*
X003099Y011699D02*
X004257Y011699D01*
X004355Y011600D02*
X003099Y011600D01*
X003099Y011502D02*
X004472Y011502D01*
X004620Y011403D02*
X003099Y011403D01*
X003099Y011305D02*
X004767Y011305D01*
X004984Y011206D02*
X003099Y011206D01*
X003099Y011108D02*
X005360Y011108D01*
X005363Y011009D02*
X008468Y011009D01*
X008469Y011006D02*
X008545Y010930D01*
X008645Y010889D01*
X008752Y010889D01*
X008852Y010930D01*
X008928Y011006D01*
X008970Y011106D01*
X008970Y011214D01*
X008928Y011314D01*
X008909Y011333D01*
X008909Y012237D01*
X008928Y012256D01*
X008970Y012356D01*
X008970Y012464D01*
X008928Y012564D01*
X008852Y012640D01*
X008752Y012681D01*
X008645Y012681D01*
X008545Y012640D01*
X008469Y012564D01*
X008427Y012464D01*
X008427Y012356D01*
X008469Y012256D01*
X008489Y012237D01*
X008489Y011333D01*
X008469Y011314D01*
X008427Y011214D01*
X008427Y011106D01*
X008469Y011006D01*
X008427Y011108D02*
X007962Y011108D01*
X008122Y011206D02*
X008427Y011206D01*
X008465Y011305D02*
X008203Y011305D01*
X008255Y011403D02*
X008489Y011403D01*
X008489Y011502D02*
X008284Y011502D01*
X008284Y011600D02*
X008489Y011600D01*
X008489Y011699D02*
X008284Y011699D01*
X008284Y011797D02*
X008489Y011797D01*
X008489Y011896D02*
X008284Y011896D01*
X008284Y011994D02*
X008489Y011994D01*
X008489Y012093D02*
X008284Y012093D01*
X008284Y012191D02*
X008489Y012191D01*
X008455Y012290D02*
X008284Y012290D01*
X008284Y012388D02*
X008427Y012388D01*
X008437Y012487D02*
X008289Y012487D01*
X008288Y012585D02*
X008490Y012585D01*
X008270Y012684D02*
X010300Y012684D01*
X010399Y012782D02*
X008217Y012782D01*
X008140Y012881D02*
X010497Y012881D01*
X010596Y012979D02*
X007981Y012979D01*
X008907Y012585D02*
X010202Y012585D01*
X010103Y012487D02*
X008960Y012487D01*
X008970Y012388D02*
X010005Y012388D01*
X009923Y012306D02*
X009895Y012306D01*
X009795Y012265D01*
X009719Y012189D01*
X009677Y012089D01*
X009677Y011981D01*
X009719Y011881D01*
X009795Y011805D01*
X009895Y011764D01*
X010002Y011764D01*
X010102Y011805D01*
X010122Y011825D01*
X011489Y011825D01*
X011489Y010073D01*
X011927Y009634D01*
X011927Y009606D01*
X011969Y009506D01*
X012045Y009430D01*
X012145Y009389D01*
X012252Y009389D01*
X012352Y009430D01*
X012372Y009450D01*
X016900Y009450D01*
X016920Y009430D01*
X017020Y009389D01*
X017127Y009389D01*
X017227Y009430D01*
X017303Y009506D01*
X017345Y009606D01*
X017345Y009714D01*
X017303Y009814D01*
X017227Y009890D01*
X017127Y009931D01*
X017020Y009931D01*
X016920Y009890D01*
X016900Y009870D01*
X012372Y009870D01*
X012352Y009890D01*
X012252Y009931D01*
X012224Y009931D01*
X011909Y010247D01*
X011909Y011862D01*
X011928Y011881D01*
X011970Y011981D01*
X011970Y012089D01*
X011928Y012189D01*
X011852Y012265D01*
X011752Y012306D01*
X011645Y012306D01*
X011545Y012265D01*
X011525Y012245D01*
X010455Y012245D01*
X011409Y013198D01*
X011409Y013737D01*
X011428Y013756D01*
X011470Y013856D01*
X011470Y013964D01*
X011428Y014064D01*
X011352Y014140D01*
X011252Y014181D01*
X011145Y014181D01*
X011045Y014140D01*
X010969Y014064D01*
X010927Y013964D01*
X010927Y013856D01*
X010969Y013756D01*
X010989Y013737D01*
X010989Y013372D01*
X009923Y012306D01*
X009855Y012290D02*
X008942Y012290D01*
X008909Y012191D02*
X009721Y012191D01*
X009679Y012093D02*
X008909Y012093D01*
X008909Y011994D02*
X009677Y011994D01*
X009713Y011896D02*
X008909Y011896D01*
X008909Y011797D02*
X009815Y011797D01*
X010082Y011797D02*
X011489Y011797D01*
X011489Y011699D02*
X008909Y011699D01*
X008909Y011600D02*
X011489Y011600D01*
X011489Y011502D02*
X008909Y011502D01*
X008909Y011403D02*
X011489Y011403D01*
X011489Y011305D02*
X008932Y011305D01*
X008970Y011206D02*
X011489Y011206D01*
X011489Y011108D02*
X008970Y011108D01*
X008929Y011009D02*
X011489Y011009D01*
X011489Y010911D02*
X008804Y010911D01*
X008593Y010911D02*
X005558Y010911D01*
X005365Y011009D02*
X005365Y011009D01*
X004917Y011080D01*
X004469Y011009D01*
X004469Y011009D01*
X004064Y010802D01*
X003743Y010481D01*
X003537Y010077D01*
X003466Y009629D01*
X003466Y009629D01*
X003537Y009180D01*
X003743Y008776D01*
X004064Y008455D01*
X004469Y008248D01*
X004917Y008177D01*
X005365Y008248D01*
X005365Y008248D01*
X005770Y008455D01*
X006091Y008776D01*
X006297Y009180D01*
X006368Y009629D01*
X006297Y010077D01*
X006091Y010481D01*
X006091Y010481D01*
X005770Y010802D01*
X005365Y011009D01*
X005751Y010812D02*
X011489Y010812D01*
X011489Y010714D02*
X005859Y010714D01*
X005770Y010802D02*
X005770Y010802D01*
X005957Y010615D02*
X011489Y010615D01*
X011489Y010517D02*
X006056Y010517D01*
X006123Y010418D02*
X011489Y010418D01*
X011489Y010320D02*
X006173Y010320D01*
X006224Y010221D02*
X011489Y010221D01*
X011489Y010123D02*
X006274Y010123D01*
X006297Y010077D02*
X006297Y010077D01*
X006305Y010024D02*
X011538Y010024D01*
X011636Y009926D02*
X006321Y009926D01*
X006337Y009827D02*
X011735Y009827D01*
X011833Y009729D02*
X006352Y009729D01*
X006368Y009630D02*
X011927Y009630D01*
X011958Y009532D02*
X006353Y009532D01*
X006337Y009433D02*
X012042Y009433D01*
X012355Y009433D02*
X016917Y009433D01*
X017230Y009433D02*
X017300Y009433D01*
X017237Y009370D02*
X017364Y009497D01*
X017364Y009737D01*
X017344Y009756D01*
X017302Y009856D01*
X017302Y009964D01*
X017344Y010064D01*
X017420Y010140D01*
X017520Y010181D01*
X017627Y010181D01*
X017727Y010140D01*
X017803Y010064D01*
X017845Y009964D01*
X017845Y009856D01*
X017803Y009756D01*
X017784Y009737D01*
X017784Y009323D01*
X017660Y009200D01*
X017410Y008950D01*
X009622Y008950D01*
X009602Y008930D01*
X009502Y008889D01*
X009395Y008889D01*
X009295Y008930D01*
X009219Y009006D01*
X009177Y009106D01*
X009177Y009214D01*
X009219Y009314D01*
X009295Y009390D01*
X009395Y009431D01*
X009502Y009431D01*
X009602Y009390D01*
X009622Y009370D01*
X017237Y009370D01*
X017314Y009532D02*
X017364Y009532D01*
X017364Y009630D02*
X017345Y009630D01*
X017338Y009729D02*
X017364Y009729D01*
X017315Y009827D02*
X017290Y009827D01*
X017302Y009926D02*
X017141Y009926D01*
X017006Y009926D02*
X012266Y009926D01*
X012131Y010024D02*
X017327Y010024D01*
X017403Y010123D02*
X012033Y010123D01*
X011934Y010221D02*
X014091Y010221D01*
X014112Y010200D02*
X017737Y010200D01*
X017864Y010073D01*
X017864Y008833D01*
X017844Y008814D01*
X017802Y008714D01*
X017802Y008606D01*
X017844Y008506D01*
X017920Y008430D01*
X018020Y008389D01*
X018127Y008389D01*
X018227Y008430D01*
X018303Y008506D01*
X018345Y008606D01*
X018345Y008714D01*
X018303Y008814D01*
X018284Y008833D01*
X018284Y010247D01*
X018160Y010370D01*
X018034Y010497D01*
X017910Y010620D01*
X014332Y010620D01*
X014303Y010689D01*
X014227Y010765D01*
X014127Y010806D01*
X014020Y010806D01*
X013920Y010765D01*
X013844Y010689D01*
X013802Y010589D01*
X013802Y010481D01*
X013844Y010381D01*
X013920Y010305D01*
X014020Y010264D01*
X014048Y010264D01*
X014112Y010200D01*
X013906Y010320D02*
X011909Y010320D01*
X011909Y010418D02*
X013829Y010418D01*
X013802Y010517D02*
X011909Y010517D01*
X011909Y010615D02*
X013813Y010615D01*
X013869Y010714D02*
X012924Y010714D01*
X012910Y010700D02*
X013034Y010823D01*
X013285Y011075D01*
X016730Y011075D01*
X016719Y011064D01*
X016677Y010964D01*
X016677Y010856D01*
X016719Y010756D01*
X016795Y010680D01*
X016895Y010639D01*
X017002Y010639D01*
X017102Y010680D01*
X017122Y010700D01*
X017525Y010700D01*
X017545Y010680D01*
X017645Y010639D01*
X017752Y010639D01*
X017852Y010680D01*
X017928Y010756D01*
X017970Y010856D01*
X017970Y010964D01*
X017928Y011064D01*
X017894Y011098D01*
X017928Y011131D01*
X017970Y011231D01*
X017970Y011339D01*
X017928Y011439D01*
X017852Y011515D01*
X017752Y011556D01*
X017724Y011556D01*
X017159Y012122D01*
X017159Y015487D01*
X017178Y015506D01*
X017220Y015606D01*
X017220Y015714D01*
X017178Y015814D01*
X017102Y015890D01*
X017002Y015931D01*
X016895Y015931D01*
X016795Y015890D01*
X016719Y015814D01*
X016677Y015714D01*
X016677Y015606D01*
X016719Y015506D01*
X016739Y015487D01*
X016739Y011948D01*
X017192Y011495D01*
X013112Y011495D01*
X012742Y011125D01*
X012727Y011140D01*
X012627Y011181D01*
X012520Y011181D01*
X012420Y011140D01*
X012344Y011064D01*
X012302Y010964D01*
X012302Y010856D01*
X012344Y010756D01*
X012420Y010680D01*
X012520Y010639D01*
X012627Y010639D01*
X012727Y010680D01*
X012747Y010700D01*
X012910Y010700D01*
X013022Y010812D02*
X016696Y010812D01*
X016677Y010911D02*
X013121Y010911D01*
X013219Y011009D02*
X016696Y011009D01*
X016762Y010714D02*
X014278Y010714D01*
X013020Y011403D02*
X011909Y011403D01*
X011909Y011305D02*
X012921Y011305D01*
X012823Y011206D02*
X011909Y011206D01*
X011909Y011108D02*
X012388Y011108D01*
X012321Y011009D02*
X011909Y011009D01*
X011909Y010911D02*
X012302Y010911D01*
X012321Y010812D02*
X011909Y010812D01*
X011909Y010714D02*
X012387Y010714D01*
X011909Y011502D02*
X017185Y011502D01*
X017087Y011600D02*
X011909Y011600D01*
X011909Y011699D02*
X016988Y011699D01*
X016890Y011797D02*
X011909Y011797D01*
X011934Y011896D02*
X015129Y011896D01*
X015145Y011889D02*
X015252Y011889D01*
X015352Y011930D01*
X015428Y012006D01*
X015470Y012106D01*
X015470Y012134D01*
X016659Y013323D01*
X016659Y017872D01*
X016535Y017995D01*
X016410Y018120D01*
X015737Y018120D01*
X015614Y017997D01*
X015489Y017872D01*
X015489Y017583D01*
X015469Y017564D01*
X015427Y017464D01*
X015427Y017356D01*
X015469Y017256D01*
X015545Y017180D01*
X015645Y017139D01*
X015752Y017139D01*
X015852Y017180D01*
X015928Y017256D01*
X015970Y017356D01*
X015970Y017464D01*
X015928Y017564D01*
X015909Y017583D01*
X015909Y017698D01*
X015910Y017700D01*
X016237Y017700D01*
X016239Y017698D01*
X016239Y013497D01*
X015173Y012431D01*
X015145Y012431D01*
X015045Y012390D01*
X014969Y012314D01*
X014927Y012214D01*
X014927Y012106D01*
X014969Y012006D01*
X015045Y011930D01*
X015145Y011889D01*
X015268Y011896D02*
X016791Y011896D01*
X016739Y011994D02*
X015416Y011994D01*
X015464Y012093D02*
X016739Y012093D01*
X016739Y012191D02*
X015527Y012191D01*
X015625Y012290D02*
X016739Y012290D01*
X016739Y012388D02*
X015724Y012388D01*
X015822Y012487D02*
X016739Y012487D01*
X016739Y012585D02*
X015921Y012585D01*
X016019Y012684D02*
X016739Y012684D01*
X016739Y012782D02*
X016118Y012782D01*
X016216Y012881D02*
X016739Y012881D01*
X016739Y012979D02*
X016315Y012979D01*
X016413Y013078D02*
X016739Y013078D01*
X016739Y013176D02*
X016512Y013176D01*
X016610Y013275D02*
X016739Y013275D01*
X016739Y013373D02*
X016659Y013373D01*
X016659Y013472D02*
X016739Y013472D01*
X016739Y013570D02*
X016659Y013570D01*
X016659Y013669D02*
X016739Y013669D01*
X016739Y013767D02*
X016659Y013767D01*
X016659Y013866D02*
X016739Y013866D01*
X016739Y013964D02*
X016659Y013964D01*
X016659Y014063D02*
X016739Y014063D01*
X016739Y014161D02*
X016659Y014161D01*
X016659Y014260D02*
X016739Y014260D01*
X016739Y014358D02*
X016659Y014358D01*
X016659Y014457D02*
X016739Y014457D01*
X016739Y014555D02*
X016659Y014555D01*
X016659Y014654D02*
X016739Y014654D01*
X016739Y014752D02*
X016659Y014752D01*
X016659Y014851D02*
X016739Y014851D01*
X016739Y014949D02*
X016659Y014949D01*
X016659Y015048D02*
X016739Y015048D01*
X016739Y015146D02*
X016659Y015146D01*
X016659Y015245D02*
X016739Y015245D01*
X016739Y015343D02*
X016659Y015343D01*
X016659Y015442D02*
X016739Y015442D01*
X016705Y015540D02*
X016659Y015540D01*
X016659Y015639D02*
X016677Y015639D01*
X016687Y015737D02*
X016659Y015737D01*
X016659Y015836D02*
X016741Y015836D01*
X016659Y015934D02*
X019614Y015934D01*
X019614Y015836D02*
X017906Y015836D01*
X017960Y015737D02*
X019614Y015737D01*
X019614Y015639D02*
X018353Y015639D01*
X018438Y015540D02*
X019614Y015540D01*
X019620Y015442D02*
X018470Y015442D01*
X018464Y015343D02*
X019719Y015343D01*
X019817Y015245D02*
X018416Y015245D01*
X018409Y015146D02*
X019916Y015146D01*
X020014Y015048D02*
X018409Y015048D01*
X017989Y015048D02*
X017659Y015048D01*
X017659Y015146D02*
X017989Y015146D01*
X017981Y015245D02*
X017659Y015245D01*
X017679Y015343D02*
X017933Y015343D01*
X017927Y015442D02*
X017863Y015442D01*
X017942Y015540D02*
X017959Y015540D01*
X017970Y015639D02*
X018044Y015639D01*
X017491Y015836D02*
X017156Y015836D01*
X017210Y015737D02*
X017437Y015737D01*
X017380Y015639D02*
X017220Y015639D01*
X017192Y015540D02*
X017282Y015540D01*
X017239Y015442D02*
X017159Y015442D01*
X017159Y015343D02*
X017239Y015343D01*
X017239Y015245D02*
X017159Y015245D01*
X017159Y015146D02*
X017239Y015146D01*
X017239Y015048D02*
X017159Y015048D01*
X017159Y014949D02*
X017239Y014949D01*
X017239Y014851D02*
X017159Y014851D01*
X017159Y014752D02*
X017239Y014752D01*
X017239Y014654D02*
X017159Y014654D01*
X017159Y014555D02*
X017239Y014555D01*
X017239Y014457D02*
X017159Y014457D01*
X017159Y014358D02*
X017239Y014358D01*
X017239Y014260D02*
X017159Y014260D01*
X017159Y014161D02*
X017239Y014161D01*
X017239Y014063D02*
X017159Y014063D01*
X017159Y013964D02*
X017239Y013964D01*
X017239Y013866D02*
X017159Y013866D01*
X017159Y013767D02*
X017239Y013767D01*
X017210Y013669D02*
X017159Y013669D01*
X017159Y013570D02*
X017177Y013570D01*
X017181Y013472D02*
X017159Y013472D01*
X017159Y013373D02*
X017227Y013373D01*
X017159Y013275D02*
X017369Y013275D01*
X017528Y013275D02*
X017614Y013275D01*
X017614Y013176D02*
X017159Y013176D01*
X017159Y013078D02*
X017614Y013078D01*
X017614Y012979D02*
X017159Y012979D01*
X017159Y012881D02*
X017614Y012881D01*
X017614Y012782D02*
X017159Y012782D01*
X017159Y012684D02*
X017614Y012684D01*
X017614Y012585D02*
X017159Y012585D01*
X017159Y012487D02*
X017614Y012487D01*
X017614Y012388D02*
X017159Y012388D01*
X017159Y012290D02*
X017614Y012290D01*
X017621Y012191D02*
X017159Y012191D01*
X017188Y012093D02*
X017719Y012093D01*
X017737Y012075D02*
X017737Y012075D01*
X017818Y011994D02*
X017286Y011994D01*
X017385Y011896D02*
X017916Y011896D01*
X018015Y011797D02*
X017483Y011797D01*
X017582Y011699D02*
X018113Y011699D01*
X018212Y011600D02*
X017680Y011600D01*
X017865Y011502D02*
X018310Y011502D01*
X018364Y011403D02*
X017943Y011403D01*
X017970Y011305D02*
X018364Y011305D01*
X018364Y011206D02*
X017959Y011206D01*
X017904Y011108D02*
X018364Y011108D01*
X018364Y011009D02*
X017951Y011009D01*
X017970Y010911D02*
X018364Y010911D01*
X018364Y010812D02*
X017951Y010812D01*
X017885Y010714D02*
X018364Y010714D01*
X018364Y010615D02*
X017915Y010615D01*
X018014Y010517D02*
X018364Y010517D01*
X018364Y010418D02*
X018112Y010418D01*
X018034Y010497D02*
X018034Y010497D01*
X018211Y010320D02*
X018364Y010320D01*
X018364Y010221D02*
X018284Y010221D01*
X018284Y010123D02*
X018364Y010123D01*
X018364Y010024D02*
X018284Y010024D01*
X018284Y009926D02*
X018364Y009926D01*
X018364Y009827D02*
X018284Y009827D01*
X018284Y009729D02*
X018364Y009729D01*
X018364Y009630D02*
X018284Y009630D01*
X018284Y009532D02*
X018364Y009532D01*
X018364Y009433D02*
X018284Y009433D01*
X018284Y009335D02*
X018364Y009335D01*
X018364Y009236D02*
X018284Y009236D01*
X018284Y009138D02*
X018323Y009138D01*
X018302Y009039D02*
X018284Y009039D01*
X018284Y008941D02*
X018319Y008941D01*
X018284Y008842D02*
X018383Y008842D01*
X018332Y008744D02*
X018614Y008744D01*
X018614Y008645D02*
X018345Y008645D01*
X018320Y008547D02*
X018614Y008547D01*
X018614Y008448D02*
X018245Y008448D01*
X018493Y008251D02*
X011079Y008251D01*
X011017Y008350D02*
X018591Y008350D01*
X018889Y008054D02*
X034220Y008054D01*
X034295Y008153D02*
X022613Y008153D01*
X022711Y008251D02*
X032128Y008251D01*
X032133Y008248D02*
X032133Y008248D01*
X032581Y008177D01*
X032581Y008177D01*
X033030Y008248D01*
X033434Y008455D01*
X033434Y008455D01*
X033755Y008776D01*
X033961Y009180D01*
X034032Y009629D01*
X033961Y010077D01*
X033755Y010481D01*
X033434Y010802D01*
X033030Y011009D01*
X032581Y011080D01*
X032133Y011009D01*
X031728Y010802D01*
X031407Y010481D01*
X031201Y010077D01*
X031201Y010077D01*
X031130Y009629D01*
X031201Y009180D01*
X031407Y008776D01*
X031407Y008776D01*
X031728Y008455D01*
X032133Y008248D01*
X031935Y008350D02*
X022810Y008350D01*
X022908Y008448D02*
X031741Y008448D01*
X031728Y008455D02*
X031728Y008455D01*
X031636Y008547D02*
X023007Y008547D01*
X023034Y008645D02*
X031538Y008645D01*
X031439Y008744D02*
X023034Y008744D01*
X023034Y008842D02*
X031374Y008842D01*
X031323Y008941D02*
X023034Y008941D01*
X023034Y009039D02*
X031273Y009039D01*
X031223Y009138D02*
X023034Y009138D01*
X023034Y009236D02*
X031192Y009236D01*
X031201Y009180D02*
X031201Y009180D01*
X031177Y009335D02*
X023034Y009335D01*
X023034Y009433D02*
X031161Y009433D01*
X031146Y009532D02*
X023034Y009532D01*
X023034Y009630D02*
X031131Y009630D01*
X031130Y009629D02*
X031130Y009629D01*
X031146Y009729D02*
X023034Y009729D01*
X023034Y009827D02*
X031162Y009827D01*
X031177Y009926D02*
X023034Y009926D01*
X023034Y010024D02*
X026870Y010024D01*
X026895Y010014D02*
X027002Y010014D01*
X027102Y010055D01*
X027178Y010131D01*
X027220Y010231D01*
X027220Y010339D01*
X027178Y010439D01*
X027102Y010515D01*
X027002Y010556D01*
X026974Y010556D01*
X026910Y010620D01*
X024372Y010620D01*
X024352Y010640D01*
X024252Y010681D01*
X024145Y010681D01*
X024045Y010640D01*
X023969Y010564D01*
X023927Y010464D01*
X023927Y010356D01*
X023969Y010256D01*
X024045Y010180D01*
X024145Y010139D01*
X024252Y010139D01*
X024352Y010180D01*
X024372Y010200D01*
X026690Y010200D01*
X026719Y010131D01*
X026795Y010055D01*
X026895Y010014D01*
X027027Y010024D02*
X031193Y010024D01*
X031225Y010123D02*
X027169Y010123D01*
X027215Y010221D02*
X031275Y010221D01*
X031325Y010320D02*
X027220Y010320D01*
X027187Y010418D02*
X031375Y010418D01*
X031407Y010481D02*
X031407Y010481D01*
X031442Y010517D02*
X027098Y010517D01*
X026915Y010615D02*
X031541Y010615D01*
X031639Y010714D02*
X023034Y010714D01*
X023034Y010812D02*
X031747Y010812D01*
X031728Y010802D02*
X031728Y010802D01*
X031940Y010911D02*
X023034Y010911D01*
X023054Y011009D02*
X032136Y011009D01*
X033027Y011009D02*
X034400Y011009D01*
X034400Y010911D02*
X033222Y010911D01*
X033416Y010812D02*
X034400Y010812D01*
X034400Y010714D02*
X033523Y010714D01*
X033622Y010615D02*
X034400Y010615D01*
X034400Y010517D02*
X033720Y010517D01*
X033755Y010481D02*
X033755Y010481D01*
X033755Y010481D01*
X033788Y010418D02*
X034400Y010418D01*
X034400Y010320D02*
X033838Y010320D01*
X033888Y010221D02*
X034400Y010221D01*
X034400Y010123D02*
X033938Y010123D01*
X033961Y010077D02*
X033961Y010077D01*
X033970Y010024D02*
X034400Y010024D01*
X034400Y009926D02*
X033985Y009926D01*
X034001Y009827D02*
X034400Y009827D01*
X034400Y009729D02*
X034017Y009729D01*
X034032Y009630D02*
X034400Y009630D01*
X034400Y009532D02*
X034017Y009532D01*
X034002Y009433D02*
X034400Y009433D01*
X034400Y009335D02*
X033986Y009335D01*
X033970Y009236D02*
X034400Y009236D01*
X034400Y009138D02*
X033940Y009138D01*
X033961Y009180D02*
X033961Y009180D01*
X033890Y009039D02*
X034400Y009039D01*
X034400Y008941D02*
X033839Y008941D01*
X033789Y008842D02*
X034400Y008842D01*
X034400Y008744D02*
X033723Y008744D01*
X033755Y008776D02*
X033755Y008776D01*
X033625Y008645D02*
X034400Y008645D01*
X034400Y008547D02*
X033526Y008547D01*
X033421Y008448D02*
X034399Y008448D01*
X034382Y008350D02*
X033228Y008350D01*
X033035Y008251D02*
X034341Y008251D01*
X034122Y007956D02*
X018791Y007956D01*
X018692Y007857D02*
X033933Y007857D01*
X033030Y008248D02*
X033030Y008248D01*
X034400Y011108D02*
X023095Y011108D01*
X023095Y011206D02*
X034400Y011206D01*
X034400Y011305D02*
X023057Y011305D01*
X022945Y011403D02*
X034400Y011403D01*
X034400Y011502D02*
X033178Y011502D01*
X033317Y011600D02*
X034400Y011600D01*
X034400Y011699D02*
X033389Y011699D01*
X033428Y011797D02*
X034400Y011797D01*
X034400Y013472D02*
X033104Y013472D01*
X033287Y013570D02*
X034400Y013570D01*
X034400Y013669D02*
X033379Y013669D01*
X033420Y013767D02*
X034400Y013767D01*
X034400Y013866D02*
X033442Y013866D01*
X033442Y013964D02*
X034400Y013964D01*
X034400Y014063D02*
X033416Y014063D01*
X033375Y014161D02*
X034400Y014161D01*
X034400Y014260D02*
X033278Y014260D01*
X033272Y014555D02*
X034400Y014555D01*
X034400Y014457D02*
X029667Y014457D01*
X029569Y014358D02*
X034400Y014358D01*
X034400Y014654D02*
X033371Y014654D01*
X033414Y014752D02*
X034400Y014752D01*
X034400Y014851D02*
X033442Y014851D01*
X033442Y014949D02*
X034400Y014949D01*
X034400Y015048D02*
X033422Y015048D01*
X033381Y015146D02*
X034400Y015146D01*
X034400Y015245D02*
X033293Y015245D01*
X033118Y015343D02*
X034400Y015343D01*
X034400Y015442D02*
X030652Y015442D01*
X030354Y015737D02*
X023293Y015737D01*
X023220Y015836D02*
X030452Y015836D01*
X030551Y015934D02*
X023180Y015934D01*
X023059Y016033D02*
X030649Y016033D01*
X030255Y015639D02*
X023392Y015639D01*
X023490Y015540D02*
X030157Y015540D01*
X030058Y015442D02*
X023589Y015442D01*
X024160Y016075D02*
X021997Y016075D01*
X021977Y016055D01*
X021877Y016014D01*
X021770Y016014D01*
X021922Y016033D02*
X022838Y016033D01*
X022717Y015934D02*
X020034Y015934D01*
X020034Y015836D02*
X022677Y015836D01*
X022677Y015737D02*
X020034Y015737D01*
X020034Y015639D02*
X022716Y015639D01*
X022832Y015540D02*
X020115Y015540D01*
X020214Y015442D02*
X022995Y015442D01*
X024315Y016230D02*
X032089Y016230D01*
X033154Y016328D02*
X034400Y016328D01*
X034400Y016230D02*
X033308Y016230D01*
X033387Y016131D02*
X034400Y016131D01*
X034400Y016033D02*
X033428Y016033D01*
X033442Y015934D02*
X034400Y015934D01*
X034400Y015836D02*
X033442Y015836D01*
X033407Y015737D02*
X034400Y015737D01*
X034400Y015639D02*
X033356Y015639D01*
X033257Y015540D02*
X034400Y015540D01*
X034400Y017609D02*
X033326Y017609D01*
X033395Y017707D02*
X034400Y017707D01*
X034400Y017806D02*
X033436Y017806D01*
X033442Y017904D02*
X034400Y017904D01*
X034400Y018003D02*
X033441Y018003D01*
X033400Y018101D02*
X034400Y018101D01*
X034400Y018200D02*
X033338Y018200D01*
X033226Y018298D02*
X034400Y018298D01*
X034400Y018397D02*
X031900Y018397D01*
X031884Y018495D02*
X032236Y018495D01*
X032313Y018463D02*
X033084Y018463D01*
X033248Y018531D01*
X033374Y018657D01*
X033442Y018821D01*
X033442Y018999D01*
X033374Y019163D01*
X033248Y019289D01*
X033084Y019357D01*
X032313Y019357D01*
X032149Y019289D01*
X032023Y019163D01*
X031955Y018999D01*
X031955Y018821D01*
X032023Y018657D01*
X032149Y018531D01*
X032313Y018463D01*
X032171Y018298D02*
X031999Y018298D01*
X032086Y018594D02*
X031884Y018594D01*
X031884Y018692D02*
X032008Y018692D01*
X031967Y018791D02*
X031884Y018791D01*
X031884Y018889D02*
X031955Y018889D01*
X031955Y018988D02*
X031884Y018988D01*
X031884Y019086D02*
X031991Y019086D01*
X032044Y019185D02*
X031884Y019185D01*
X031884Y019283D02*
X032143Y019283D01*
X031884Y019382D02*
X034400Y019382D01*
X034400Y019480D02*
X031884Y019480D01*
X031884Y019579D02*
X034400Y019579D01*
X034400Y019677D02*
X031884Y019677D01*
X031884Y019776D02*
X034400Y019776D01*
X034400Y019874D02*
X031884Y019874D01*
X031884Y019973D02*
X034400Y019973D01*
X034400Y020071D02*
X031884Y020071D01*
X031884Y020170D02*
X034400Y020170D01*
X034400Y020268D02*
X031884Y020268D01*
X031884Y020367D02*
X034400Y020367D01*
X034400Y020465D02*
X031884Y020465D01*
X031884Y020564D02*
X032446Y020564D01*
X032400Y020582D02*
X032600Y020500D01*
X032816Y020500D01*
X033016Y020582D01*
X033169Y020735D01*
X033252Y020935D01*
X033252Y021151D01*
X033169Y021351D01*
X033016Y021504D01*
X032816Y021587D01*
X032600Y021587D01*
X032400Y021504D01*
X032247Y021351D01*
X032165Y021151D01*
X032165Y020935D01*
X032247Y020735D01*
X032400Y020582D01*
X032321Y020662D02*
X031884Y020662D01*
X031884Y020761D02*
X032237Y020761D01*
X032196Y020859D02*
X031884Y020859D01*
X031884Y020958D02*
X032165Y020958D01*
X032165Y021056D02*
X031884Y021056D01*
X031884Y021155D02*
X032166Y021155D01*
X032207Y021253D02*
X031884Y021253D01*
X031884Y021352D02*
X032248Y021352D01*
X032346Y021450D02*
X031884Y021450D01*
X031884Y021549D02*
X032507Y021549D01*
X032909Y021549D02*
X034400Y021549D01*
X034400Y021647D02*
X031884Y021647D01*
X031884Y021746D02*
X034400Y021746D01*
X034400Y021844D02*
X031884Y021844D01*
X031884Y021943D02*
X034400Y021943D01*
X034400Y022041D02*
X031884Y022041D01*
X031884Y022140D02*
X034400Y022140D01*
X034400Y022238D02*
X031884Y022238D01*
X031884Y022337D02*
X034400Y022337D01*
X034400Y022435D02*
X031884Y022435D01*
X033071Y021450D02*
X034400Y021450D01*
X034400Y021352D02*
X033169Y021352D01*
X033210Y021253D02*
X034400Y021253D01*
X034400Y021155D02*
X033251Y021155D01*
X033252Y021056D02*
X034400Y021056D01*
X034400Y020958D02*
X033252Y020958D01*
X033221Y020859D02*
X034400Y020859D01*
X034400Y020761D02*
X033180Y020761D01*
X033096Y020662D02*
X034400Y020662D01*
X034400Y020564D02*
X032971Y020564D01*
X033254Y019283D02*
X034400Y019283D01*
X034400Y019185D02*
X033353Y019185D01*
X033406Y019086D02*
X034400Y019086D01*
X034400Y018988D02*
X033442Y018988D01*
X033442Y018889D02*
X034400Y018889D01*
X034400Y018791D02*
X033430Y018791D01*
X033389Y018692D02*
X034400Y018692D01*
X034400Y018594D02*
X033311Y018594D01*
X033161Y018495D02*
X034400Y018495D01*
X030239Y019185D02*
X022534Y019185D01*
X022534Y019283D02*
X030239Y019283D01*
X030239Y019382D02*
X022534Y019382D01*
X022534Y019480D02*
X030239Y019480D01*
X030239Y019579D02*
X022534Y019579D01*
X022534Y019677D02*
X030239Y019677D01*
X030239Y019776D02*
X022505Y019776D01*
X022406Y019874D02*
X028704Y019874D01*
X028573Y019973D02*
X022308Y019973D01*
X022209Y020071D02*
X028525Y020071D01*
X028514Y020170D02*
X022111Y020170D01*
X021911Y019776D02*
X016326Y019776D01*
X016071Y019776D02*
X015736Y019776D01*
X015638Y019677D02*
X015964Y019677D01*
X015927Y019579D02*
X015539Y019579D01*
X015469Y019480D02*
X015928Y019480D01*
X015969Y019382D02*
X015428Y019382D01*
X015409Y019283D02*
X016099Y019283D01*
X016298Y019283D02*
X016589Y019283D01*
X016467Y019185D02*
X015409Y019185D01*
X015409Y019086D02*
X016427Y019086D01*
X016427Y018988D02*
X015409Y018988D01*
X015409Y018889D02*
X016466Y018889D01*
X016489Y018791D02*
X015409Y018791D01*
X015409Y018692D02*
X016489Y018692D01*
X016489Y018594D02*
X015409Y018594D01*
X015409Y018495D02*
X016566Y018495D01*
X016665Y018397D02*
X015409Y018397D01*
X015409Y018298D02*
X016763Y018298D01*
X016862Y018200D02*
X015409Y018200D01*
X015409Y018101D02*
X015718Y018101D01*
X015619Y018003D02*
X015409Y018003D01*
X015409Y017904D02*
X015521Y017904D01*
X015489Y017806D02*
X015409Y017806D01*
X015409Y017707D02*
X015489Y017707D01*
X015489Y017609D02*
X015409Y017609D01*
X015409Y017510D02*
X015447Y017510D01*
X015427Y017412D02*
X015409Y017412D01*
X015428Y017313D02*
X015445Y017313D01*
X015469Y017215D02*
X015511Y017215D01*
X015470Y017116D02*
X016239Y017116D01*
X016239Y017018D02*
X015433Y017018D01*
X015325Y016919D02*
X016239Y016919D01*
X016239Y016821D02*
X014909Y016821D01*
X014909Y016919D02*
X015072Y016919D01*
X014964Y017018D02*
X014909Y017018D01*
X014909Y017116D02*
X014927Y017116D01*
X014928Y017215D02*
X014909Y017215D01*
X014909Y017237D02*
X014928Y017256D01*
X014970Y017356D01*
X014970Y017464D01*
X014928Y017564D01*
X014852Y017640D01*
X014752Y017681D01*
X014645Y017681D01*
X014545Y017640D01*
X014469Y017564D01*
X014427Y017464D01*
X014427Y017356D01*
X014469Y017256D01*
X014489Y017237D01*
X014489Y016198D01*
X015427Y015259D01*
X015427Y015231D01*
X015469Y015131D01*
X015545Y015055D01*
X015645Y015014D01*
X015752Y015014D01*
X015852Y015055D01*
X015928Y015131D01*
X015970Y015231D01*
X015970Y015339D01*
X015928Y015439D01*
X015852Y015515D01*
X015752Y015556D01*
X015724Y015556D01*
X014909Y016372D01*
X014909Y017237D01*
X014952Y017313D02*
X014969Y017313D01*
X014970Y017412D02*
X014989Y017412D01*
X014989Y017510D02*
X014950Y017510D01*
X014989Y017609D02*
X014883Y017609D01*
X014989Y017707D02*
X014284Y017707D01*
X014284Y017747D02*
X014160Y017870D01*
X013159Y018872D01*
X013159Y019362D01*
X013178Y019381D01*
X013220Y019481D01*
X013220Y019589D01*
X013178Y019689D01*
X013102Y019765D01*
X013002Y019806D01*
X012895Y019806D01*
X012795Y019765D01*
X012719Y019689D01*
X012677Y019589D01*
X012677Y019481D01*
X012719Y019381D01*
X012739Y019362D01*
X012739Y018698D01*
X013864Y017573D01*
X013864Y015823D01*
X014052Y015634D01*
X014052Y015606D01*
X014094Y015506D01*
X014170Y015430D01*
X014270Y015389D01*
X014377Y015389D01*
X014477Y015430D01*
X014553Y015506D01*
X014595Y015606D01*
X014595Y015714D01*
X014553Y015814D01*
X014477Y015890D01*
X014377Y015931D01*
X014349Y015931D01*
X014284Y015997D01*
X014284Y017747D01*
X014225Y017806D02*
X014989Y017806D01*
X014989Y017904D02*
X014126Y017904D01*
X014028Y018003D02*
X014989Y018003D01*
X014989Y018101D02*
X013929Y018101D01*
X013831Y018200D02*
X014989Y018200D01*
X014989Y018298D02*
X013732Y018298D01*
X013634Y018397D02*
X014989Y018397D01*
X014989Y018495D02*
X013535Y018495D01*
X013437Y018594D02*
X014989Y018594D01*
X014989Y018692D02*
X013338Y018692D01*
X013240Y018791D02*
X014989Y018791D01*
X014989Y018889D02*
X014378Y018889D01*
X014377Y018889D02*
X014477Y018930D01*
X014553Y019006D01*
X014595Y019106D01*
X014595Y019214D01*
X014553Y019314D01*
X014477Y019390D01*
X014377Y019431D01*
X014349Y019431D01*
X014285Y019495D01*
X013622Y019495D01*
X013602Y019515D01*
X013502Y019556D01*
X013395Y019556D01*
X013295Y019515D01*
X013219Y019439D01*
X013177Y019339D01*
X013177Y019231D01*
X013219Y019131D01*
X013295Y019055D01*
X013395Y019014D01*
X013502Y019014D01*
X013602Y019055D01*
X013622Y019075D01*
X014065Y019075D01*
X014094Y019006D01*
X014170Y018930D01*
X014270Y018889D01*
X014377Y018889D01*
X014269Y018889D02*
X013159Y018889D01*
X013159Y018988D02*
X014113Y018988D01*
X014534Y018988D02*
X014989Y018988D01*
X014989Y019086D02*
X014586Y019086D01*
X014595Y019185D02*
X014989Y019185D01*
X014989Y019283D02*
X014566Y019283D01*
X014485Y019382D02*
X014969Y019382D01*
X014928Y019480D02*
X014300Y019480D01*
X014661Y019776D02*
X013076Y019776D01*
X013183Y019677D02*
X014759Y019677D01*
X014858Y019579D02*
X013220Y019579D01*
X013219Y019480D02*
X013260Y019480D01*
X013195Y019382D02*
X013178Y019382D01*
X013177Y019283D02*
X013159Y019283D01*
X013159Y019185D02*
X013197Y019185D01*
X013159Y019086D02*
X013264Y019086D01*
X012739Y019086D02*
X008909Y019086D01*
X008909Y018988D02*
X012739Y018988D01*
X012739Y018889D02*
X008909Y018889D01*
X008909Y018791D02*
X012739Y018791D01*
X012744Y018692D02*
X008909Y018692D01*
X008909Y018594D02*
X012843Y018594D01*
X012941Y018495D02*
X008909Y018495D01*
X008909Y018397D02*
X009935Y018397D01*
X009919Y018390D02*
X009843Y018314D01*
X009801Y018214D01*
X009801Y018106D01*
X009843Y018006D01*
X009919Y017930D01*
X010019Y017889D01*
X010126Y017889D01*
X010226Y017930D01*
X010246Y017950D01*
X011862Y017950D01*
X011989Y017823D01*
X011989Y017333D01*
X011969Y017314D01*
X011927Y017214D01*
X011927Y017106D01*
X011969Y017006D01*
X012045Y016930D01*
X012145Y016889D01*
X012252Y016889D01*
X012352Y016930D01*
X012428Y017006D01*
X012470Y017106D01*
X012470Y017214D01*
X012428Y017314D01*
X012409Y017333D01*
X012409Y017997D01*
X012285Y018120D01*
X012159Y018247D01*
X012035Y018370D01*
X010246Y018370D01*
X010226Y018390D01*
X010126Y018431D01*
X010019Y018431D01*
X009919Y018390D01*
X009836Y018298D02*
X008909Y018298D01*
X008909Y018200D02*
X009801Y018200D01*
X009804Y018101D02*
X008909Y018101D01*
X008909Y018003D02*
X009847Y018003D01*
X009982Y017904D02*
X008918Y017904D01*
X008903Y017806D02*
X011989Y017806D01*
X011989Y017707D02*
X008857Y017707D01*
X008745Y017609D02*
X011989Y017609D01*
X011989Y017510D02*
X006745Y017510D01*
X006831Y017609D02*
X007027Y017609D01*
X006915Y017707D02*
X006892Y017707D01*
X006629Y017412D02*
X011098Y017412D01*
X011145Y017431D02*
X011045Y017390D01*
X010969Y017314D01*
X010927Y017214D01*
X010927Y017106D01*
X010969Y017006D01*
X010989Y016987D01*
X010989Y016073D01*
X011112Y015950D01*
X012487Y014575D01*
X013275Y014575D01*
X013295Y014555D01*
X013395Y014514D01*
X013502Y014514D01*
X013602Y014555D01*
X013678Y014631D01*
X013720Y014731D01*
X013720Y014839D01*
X013678Y014939D01*
X013602Y015015D01*
X013502Y015056D01*
X013395Y015056D01*
X013295Y015015D01*
X013275Y014995D01*
X012660Y014995D01*
X011409Y016247D01*
X011409Y016987D01*
X011428Y017006D01*
X011470Y017106D01*
X011470Y017214D01*
X011428Y017314D01*
X011352Y017390D01*
X011252Y017431D01*
X011145Y017431D01*
X011299Y017412D02*
X011989Y017412D01*
X011969Y017313D02*
X011428Y017313D01*
X011469Y017215D02*
X011928Y017215D01*
X011927Y017116D02*
X011470Y017116D01*
X011433Y017018D02*
X011964Y017018D01*
X012072Y016919D02*
X011409Y016919D01*
X011409Y016821D02*
X013864Y016821D01*
X013864Y016919D02*
X012325Y016919D01*
X012433Y017018D02*
X013864Y017018D01*
X013864Y017116D02*
X012470Y017116D01*
X012469Y017215D02*
X013864Y017215D01*
X013864Y017313D02*
X012428Y017313D01*
X012409Y017412D02*
X013864Y017412D01*
X013864Y017510D02*
X012409Y017510D01*
X012409Y017609D02*
X013828Y017609D01*
X013729Y017707D02*
X012409Y017707D01*
X012409Y017806D02*
X013631Y017806D01*
X013532Y017904D02*
X012409Y017904D01*
X012403Y018003D02*
X013434Y018003D01*
X013335Y018101D02*
X012304Y018101D01*
X012206Y018200D02*
X013237Y018200D01*
X013138Y018298D02*
X012107Y018298D01*
X011907Y017904D02*
X010163Y017904D01*
X010210Y018397D02*
X013040Y018397D01*
X012739Y019185D02*
X008909Y019185D01*
X008909Y019283D02*
X012739Y019283D01*
X012719Y019382D02*
X008909Y019382D01*
X008909Y019480D02*
X012678Y019480D01*
X012677Y019579D02*
X008909Y019579D01*
X008909Y019677D02*
X012714Y019677D01*
X012821Y019776D02*
X011812Y019776D01*
X011648Y019776D02*
X008909Y019776D01*
X008909Y019874D02*
X011507Y019874D01*
X011462Y019973D02*
X008909Y019973D01*
X008909Y020071D02*
X011459Y020071D01*
X011492Y020170D02*
X008909Y020170D01*
X008909Y020268D02*
X011584Y020268D01*
X011875Y020268D02*
X028514Y020268D01*
X028514Y020367D02*
X008909Y020367D01*
X008909Y020465D02*
X028514Y020465D01*
X028514Y020564D02*
X008909Y020564D01*
X008909Y020662D02*
X028514Y020662D01*
X028514Y020761D02*
X008909Y020761D01*
X008909Y020859D02*
X028514Y020859D01*
X028514Y020958D02*
X008909Y020958D01*
X008909Y021056D02*
X028514Y021056D01*
X028514Y021155D02*
X008900Y021155D01*
X008878Y021253D02*
X028514Y021253D01*
X028514Y021352D02*
X008841Y021352D01*
X008786Y021450D02*
X028514Y021450D01*
X028514Y021549D02*
X008701Y021549D01*
X008561Y021647D02*
X028514Y021647D01*
X029134Y021647D02*
X029914Y021647D01*
X029816Y021746D02*
X029134Y021746D01*
X029134Y021844D02*
X029717Y021844D01*
X029619Y021943D02*
X029134Y021943D01*
X029134Y022041D02*
X029520Y022041D01*
X029422Y022140D02*
X029134Y022140D01*
X029127Y022238D02*
X029323Y022238D01*
X029225Y022337D02*
X029085Y022337D01*
X029126Y022435D02*
X028970Y022435D01*
X029134Y021549D02*
X030013Y021549D01*
X030111Y021450D02*
X029134Y021450D01*
X029134Y021352D02*
X030210Y021352D01*
X030239Y021253D02*
X029134Y021253D01*
X029134Y021155D02*
X030239Y021155D01*
X030239Y021056D02*
X029134Y021056D01*
X029134Y020958D02*
X030239Y020958D01*
X030239Y020859D02*
X029134Y020859D01*
X029134Y020761D02*
X030239Y020761D01*
X030239Y020662D02*
X029134Y020662D01*
X029134Y020564D02*
X030239Y020564D01*
X030239Y020465D02*
X029134Y020465D01*
X029134Y020367D02*
X030239Y020367D01*
X030239Y020268D02*
X029134Y020268D01*
X029134Y020170D02*
X030239Y020170D01*
X030239Y020071D02*
X029122Y020071D01*
X029074Y019973D02*
X030239Y019973D01*
X030239Y019874D02*
X028943Y019874D01*
X029960Y015343D02*
X024812Y015343D01*
X024911Y015245D02*
X029861Y015245D01*
X029763Y015146D02*
X025009Y015146D01*
X025108Y015048D02*
X029664Y015048D01*
X029566Y014949D02*
X025206Y014949D01*
X025305Y014851D02*
X029467Y014851D01*
X029369Y014752D02*
X025403Y014752D01*
X025502Y014654D02*
X029270Y014654D01*
X029172Y014555D02*
X025600Y014555D01*
X025699Y014457D02*
X029073Y014457D01*
X028888Y014358D02*
X025797Y014358D01*
X025982Y014260D02*
X028821Y014260D01*
X028778Y014161D02*
X026065Y014161D01*
X026095Y014063D02*
X028679Y014063D01*
X028581Y013964D02*
X026087Y013964D01*
X026037Y013866D02*
X028482Y013866D01*
X029372Y014161D02*
X032022Y014161D01*
X032119Y014260D02*
X029470Y014260D01*
X026728Y010123D02*
X023034Y010123D01*
X023034Y010221D02*
X024004Y010221D01*
X023943Y010320D02*
X023034Y010320D01*
X023034Y010418D02*
X023927Y010418D01*
X023949Y010517D02*
X023034Y010517D01*
X023034Y010615D02*
X024020Y010615D01*
X023439Y013373D02*
X018782Y013373D01*
X018684Y013472D02*
X023254Y013472D01*
X023192Y013570D02*
X018595Y013570D01*
X018562Y013669D02*
X018823Y013669D01*
X018714Y013767D02*
X018472Y013767D01*
X018677Y013866D02*
X018034Y013866D01*
X018034Y013964D02*
X018678Y013964D01*
X018718Y014063D02*
X018034Y014063D01*
X018034Y014161D02*
X018846Y014161D01*
X019001Y014260D02*
X018034Y014260D01*
X018069Y014358D02*
X019100Y014358D01*
X019220Y013866D02*
X023271Y013866D01*
X023199Y013767D02*
X019183Y013767D01*
X019074Y013669D02*
X023177Y013669D01*
X020792Y012684D02*
X018034Y012684D01*
X018034Y012782D02*
X018780Y012782D01*
X018739Y012823D02*
X018739Y012823D01*
X018681Y012881D02*
X018034Y012881D01*
X018034Y012979D02*
X018583Y012979D01*
X018484Y013078D02*
X018034Y013078D01*
X018034Y013176D02*
X018386Y013176D01*
X018244Y013275D02*
X018034Y013275D01*
X018034Y013373D02*
X018102Y013373D01*
X018056Y013472D02*
X018034Y013472D01*
X018034Y013570D02*
X018052Y013570D01*
X018034Y013669D02*
X018085Y013669D01*
X018034Y013767D02*
X018175Y013767D01*
X017672Y014555D02*
X017659Y014555D01*
X017659Y014654D02*
X017770Y014654D01*
X017869Y014752D02*
X017659Y014752D01*
X017659Y014851D02*
X017967Y014851D01*
X017989Y014949D02*
X017659Y014949D01*
X016659Y016033D02*
X019614Y016033D01*
X019614Y016131D02*
X016659Y016131D01*
X016659Y016230D02*
X019614Y016230D01*
X019614Y016328D02*
X016659Y016328D01*
X016659Y016427D02*
X019614Y016427D01*
X019614Y016525D02*
X016659Y016525D01*
X016659Y016624D02*
X019614Y016624D01*
X019614Y016722D02*
X016659Y016722D01*
X016659Y016821D02*
X019614Y016821D01*
X019614Y016919D02*
X019200Y016919D01*
X019227Y016930D02*
X019303Y017006D01*
X019345Y017106D01*
X019345Y017214D01*
X019303Y017314D01*
X019227Y017390D01*
X019127Y017431D01*
X019020Y017431D01*
X018920Y017390D01*
X018844Y017314D01*
X018802Y017214D01*
X018802Y017106D01*
X018844Y017006D01*
X018920Y016930D01*
X019020Y016889D01*
X019127Y016889D01*
X019227Y016930D01*
X019308Y017018D02*
X019614Y017018D01*
X019614Y017116D02*
X019345Y017116D01*
X019344Y017215D02*
X019614Y017215D01*
X019614Y017313D02*
X019303Y017313D01*
X019174Y017412D02*
X019614Y017412D01*
X019551Y017510D02*
X016659Y017510D01*
X016659Y017412D02*
X018973Y017412D01*
X018844Y017313D02*
X016659Y017313D01*
X016659Y017215D02*
X018803Y017215D01*
X018802Y017116D02*
X016659Y017116D01*
X016659Y017018D02*
X018839Y017018D01*
X018947Y016919D02*
X016659Y016919D01*
X016239Y016722D02*
X014909Y016722D01*
X014909Y016624D02*
X016239Y016624D01*
X016239Y016525D02*
X014909Y016525D01*
X014909Y016427D02*
X016239Y016427D01*
X016239Y016328D02*
X014952Y016328D01*
X015051Y016230D02*
X016239Y016230D01*
X016239Y016131D02*
X015149Y016131D01*
X015248Y016033D02*
X016239Y016033D01*
X016239Y015934D02*
X015346Y015934D01*
X015445Y015836D02*
X016239Y015836D01*
X016239Y015737D02*
X015543Y015737D01*
X015642Y015639D02*
X016239Y015639D01*
X016239Y015540D02*
X015791Y015540D01*
X015925Y015442D02*
X016239Y015442D01*
X016239Y015343D02*
X015968Y015343D01*
X015970Y015245D02*
X016239Y015245D01*
X016239Y015146D02*
X015934Y015146D01*
X015833Y015048D02*
X016239Y015048D01*
X016239Y014949D02*
X013668Y014949D01*
X013715Y014851D02*
X016239Y014851D01*
X016239Y014752D02*
X013720Y014752D01*
X013687Y014654D02*
X016239Y014654D01*
X016239Y014555D02*
X013601Y014555D01*
X013296Y014555D02*
X006159Y014555D01*
X006159Y014457D02*
X016239Y014457D01*
X016239Y014358D02*
X006159Y014358D01*
X006159Y014260D02*
X016239Y014260D01*
X016239Y014161D02*
X011301Y014161D01*
X011429Y014063D02*
X016239Y014063D01*
X016239Y013964D02*
X011469Y013964D01*
X011470Y013866D02*
X016239Y013866D01*
X016239Y013767D02*
X011433Y013767D01*
X011409Y013669D02*
X016239Y013669D01*
X016239Y013570D02*
X011409Y013570D01*
X011409Y013472D02*
X016213Y013472D01*
X016115Y013373D02*
X011409Y013373D01*
X011409Y013275D02*
X016016Y013275D01*
X015918Y013176D02*
X011387Y013176D01*
X011288Y013078D02*
X015819Y013078D01*
X015721Y012979D02*
X011190Y012979D01*
X011091Y012881D02*
X015622Y012881D01*
X015524Y012782D02*
X010993Y012782D01*
X010894Y012684D02*
X015425Y012684D01*
X015327Y012585D02*
X010796Y012585D01*
X010697Y012487D02*
X015228Y012487D01*
X015043Y012388D02*
X010599Y012388D01*
X010500Y012290D02*
X011605Y012290D01*
X011792Y012290D02*
X014959Y012290D01*
X014927Y012191D02*
X011926Y012191D01*
X011968Y012093D02*
X014933Y012093D01*
X014981Y011994D02*
X011970Y011994D01*
X010694Y013078D02*
X006182Y013078D01*
X006159Y013176D02*
X010793Y013176D01*
X010891Y013275D02*
X006159Y013275D01*
X006159Y013373D02*
X010989Y013373D01*
X010989Y013472D02*
X006159Y013472D01*
X006159Y013570D02*
X010989Y013570D01*
X010989Y013669D02*
X006159Y013669D01*
X006159Y013767D02*
X010964Y013767D01*
X010927Y013866D02*
X006159Y013866D01*
X006159Y013964D02*
X010928Y013964D01*
X010968Y014063D02*
X006159Y014063D01*
X006159Y014161D02*
X011096Y014161D01*
X012014Y015048D02*
X006159Y015048D01*
X006159Y015146D02*
X011916Y015146D01*
X011817Y015245D02*
X006159Y015245D01*
X006159Y015343D02*
X011719Y015343D01*
X011620Y015442D02*
X006159Y015442D01*
X006159Y015540D02*
X011522Y015540D01*
X011423Y015639D02*
X006159Y015639D01*
X006159Y015737D02*
X011325Y015737D01*
X011226Y015836D02*
X006159Y015836D01*
X006159Y015934D02*
X011128Y015934D01*
X011029Y016033D02*
X006159Y016033D01*
X006159Y016131D02*
X010989Y016131D01*
X010989Y016230D02*
X006159Y016230D01*
X006159Y016328D02*
X010989Y016328D01*
X010989Y016427D02*
X006159Y016427D01*
X006159Y016525D02*
X010989Y016525D01*
X010989Y016624D02*
X006159Y016624D01*
X006159Y016722D02*
X010989Y016722D01*
X010989Y016821D02*
X006159Y016821D01*
X006159Y016919D02*
X010989Y016919D01*
X010964Y017018D02*
X006159Y017018D01*
X006159Y017116D02*
X010927Y017116D01*
X010928Y017215D02*
X006159Y017215D01*
X006159Y017220D02*
X006159Y017220D01*
X006466Y017313D02*
X010969Y017313D01*
X011409Y016722D02*
X013864Y016722D01*
X013864Y016624D02*
X011409Y016624D01*
X011409Y016525D02*
X013864Y016525D01*
X013864Y016427D02*
X011409Y016427D01*
X011409Y016328D02*
X013864Y016328D01*
X013864Y016230D02*
X011426Y016230D01*
X011524Y016131D02*
X013864Y016131D01*
X013864Y016033D02*
X011623Y016033D01*
X011721Y015934D02*
X013864Y015934D01*
X013864Y015836D02*
X011820Y015836D01*
X011918Y015737D02*
X013950Y015737D01*
X014048Y015639D02*
X012017Y015639D01*
X012115Y015540D02*
X014080Y015540D01*
X014159Y015442D02*
X012214Y015442D01*
X012312Y015343D02*
X015344Y015343D01*
X015427Y015245D02*
X012411Y015245D01*
X012509Y015146D02*
X015463Y015146D01*
X015564Y015048D02*
X013523Y015048D01*
X013374Y015048D02*
X012608Y015048D01*
X012310Y014752D02*
X006159Y014752D01*
X006159Y014654D02*
X012408Y014654D01*
X012211Y014851D02*
X006159Y014851D01*
X006159Y014949D02*
X012113Y014949D01*
X014488Y015442D02*
X015245Y015442D01*
X015147Y015540D02*
X014567Y015540D01*
X014595Y015639D02*
X015048Y015639D01*
X014950Y015737D02*
X014585Y015737D01*
X014531Y015836D02*
X014851Y015836D01*
X014753Y015934D02*
X014346Y015934D01*
X014284Y016033D02*
X014654Y016033D01*
X014555Y016131D02*
X014284Y016131D01*
X014284Y016230D02*
X014489Y016230D01*
X014489Y016328D02*
X014284Y016328D01*
X014284Y016427D02*
X014489Y016427D01*
X014489Y016525D02*
X014284Y016525D01*
X014284Y016624D02*
X014489Y016624D01*
X014489Y016722D02*
X014284Y016722D01*
X014284Y016821D02*
X014489Y016821D01*
X014489Y016919D02*
X014284Y016919D01*
X014284Y017018D02*
X014489Y017018D01*
X014489Y017116D02*
X014284Y017116D01*
X014284Y017215D02*
X014489Y017215D01*
X014445Y017313D02*
X014284Y017313D01*
X014284Y017412D02*
X014427Y017412D01*
X014447Y017510D02*
X014284Y017510D01*
X014284Y017609D02*
X014514Y017609D01*
X015909Y017609D02*
X016239Y017609D01*
X016239Y017510D02*
X015950Y017510D01*
X015970Y017412D02*
X016239Y017412D01*
X016239Y017313D02*
X015952Y017313D01*
X015886Y017215D02*
X016239Y017215D01*
X016659Y017609D02*
X019453Y017609D01*
X019354Y017707D02*
X016659Y017707D01*
X016659Y017806D02*
X019256Y017806D01*
X019157Y017904D02*
X016626Y017904D01*
X016528Y018003D02*
X017059Y018003D01*
X016960Y018101D02*
X016429Y018101D01*
X015241Y019874D02*
X015156Y019874D01*
X015058Y019973D02*
X015339Y019973D01*
X015438Y020071D02*
X014959Y020071D01*
X014861Y020170D02*
X015536Y020170D01*
X021728Y019677D02*
X022009Y019677D01*
X020532Y011502D02*
X019534Y011502D01*
X019534Y011403D02*
X020454Y011403D01*
X020427Y011305D02*
X019534Y011305D01*
X019534Y011206D02*
X020438Y011206D01*
X020489Y011108D02*
X019534Y011108D01*
X019534Y011009D02*
X020489Y011009D01*
X020489Y010911D02*
X019534Y010911D01*
X019534Y010812D02*
X020489Y010812D01*
X020489Y010714D02*
X019534Y010714D01*
X019534Y010615D02*
X020489Y010615D01*
X020489Y010517D02*
X019534Y010517D01*
X019534Y010418D02*
X020489Y010418D01*
X020489Y010320D02*
X019534Y010320D01*
X019534Y010221D02*
X020489Y010221D01*
X020489Y010123D02*
X019534Y010123D01*
X019534Y010024D02*
X020489Y010024D01*
X020489Y009926D02*
X019534Y009926D01*
X019540Y009827D02*
X020489Y009827D01*
X020489Y009729D02*
X019588Y009729D01*
X019595Y009630D02*
X020489Y009630D01*
X020489Y009532D02*
X019564Y009532D01*
X019480Y009433D02*
X020489Y009433D01*
X019561Y008251D02*
X019034Y008251D01*
X019034Y008350D02*
X019462Y008350D01*
X019277Y008448D02*
X019034Y008448D01*
X019034Y008547D02*
X019202Y008547D01*
X019177Y008645D02*
X019034Y008645D01*
X019034Y008744D02*
X019190Y008744D01*
X019247Y008842D02*
X019034Y008842D01*
X018988Y008153D02*
X019659Y008153D01*
X017902Y008448D02*
X011620Y008448D01*
X011602Y008430D02*
X011678Y008506D01*
X011720Y008606D01*
X011720Y008714D01*
X011678Y008814D01*
X011602Y008890D01*
X011502Y008931D01*
X011395Y008931D01*
X011295Y008890D01*
X011275Y008870D01*
X009122Y008870D01*
X009102Y008890D01*
X009002Y008931D01*
X008895Y008931D01*
X008795Y008890D01*
X008719Y008814D01*
X008677Y008714D01*
X008677Y008606D01*
X008719Y008506D01*
X008795Y008430D01*
X008895Y008389D01*
X009002Y008389D01*
X009102Y008430D01*
X009122Y008450D01*
X011275Y008450D01*
X011295Y008430D01*
X011395Y008389D01*
X011502Y008389D01*
X011602Y008430D01*
X011695Y008547D02*
X017827Y008547D01*
X017802Y008645D02*
X011720Y008645D01*
X011707Y008744D02*
X017815Y008744D01*
X017864Y008842D02*
X011650Y008842D01*
X011277Y008448D02*
X009120Y008448D01*
X008777Y008448D02*
X005757Y008448D01*
X005770Y008455D02*
X005770Y008455D01*
X005862Y008547D02*
X008702Y008547D01*
X008677Y008645D02*
X005960Y008645D01*
X006059Y008744D02*
X008690Y008744D01*
X008747Y008842D02*
X006125Y008842D01*
X006091Y008776D02*
X006091Y008776D01*
X006175Y008941D02*
X009285Y008941D01*
X009205Y009039D02*
X006225Y009039D01*
X006275Y009138D02*
X009177Y009138D01*
X009187Y009236D02*
X006306Y009236D01*
X006297Y009180D02*
X006297Y009180D01*
X006322Y009335D02*
X009240Y009335D01*
X009612Y008941D02*
X017864Y008941D01*
X017864Y009039D02*
X017499Y009039D01*
X017598Y009138D02*
X017864Y009138D01*
X017864Y009236D02*
X017696Y009236D01*
X017784Y009335D02*
X017864Y009335D01*
X017864Y009433D02*
X017784Y009433D01*
X017784Y009532D02*
X017864Y009532D01*
X017864Y009630D02*
X017784Y009630D01*
X017784Y009729D02*
X017864Y009729D01*
X017864Y009827D02*
X017832Y009827D01*
X017845Y009926D02*
X017864Y009926D01*
X017864Y010024D02*
X017820Y010024D01*
X017814Y010123D02*
X017744Y010123D01*
X010830Y007857D02*
X003566Y007857D01*
X003377Y007956D02*
X010645Y007956D01*
X010574Y008054D02*
X003278Y008054D01*
X003203Y008153D02*
X010552Y008153D01*
X010568Y008251D02*
X005370Y008251D01*
X005564Y008350D02*
X010630Y008350D01*
X004917Y008177D02*
X004917Y008177D01*
X004464Y008251D02*
X003158Y008251D01*
X003116Y008350D02*
X004270Y008350D01*
X004077Y008448D02*
X003100Y008448D01*
X003099Y008547D02*
X003972Y008547D01*
X003874Y008645D02*
X003099Y008645D01*
X003099Y008744D02*
X003775Y008744D01*
X003743Y008776D02*
X003743Y008776D01*
X003709Y008842D02*
X003099Y008842D01*
X003099Y008941D02*
X003659Y008941D01*
X003609Y009039D02*
X003099Y009039D01*
X003099Y009138D02*
X003559Y009138D01*
X003537Y009180D02*
X003537Y009180D01*
X003528Y009236D02*
X003099Y009236D01*
X003099Y009335D02*
X003512Y009335D01*
X003497Y009433D02*
X003099Y009433D01*
X003099Y009532D02*
X003481Y009532D01*
X003466Y009630D02*
X003099Y009630D01*
X003099Y009729D02*
X003482Y009729D01*
X003497Y009827D02*
X003099Y009827D01*
X003099Y009926D02*
X003513Y009926D01*
X003529Y010024D02*
X003099Y010024D01*
X003099Y010123D02*
X003560Y010123D01*
X003537Y010077D02*
X003537Y010077D01*
X003610Y010221D02*
X003099Y010221D01*
X003099Y010320D02*
X003661Y010320D01*
X003711Y010418D02*
X003099Y010418D01*
X003099Y010517D02*
X003778Y010517D01*
X003743Y010481D02*
X003743Y010481D01*
X003877Y010615D02*
X003099Y010615D01*
X003099Y010714D02*
X003975Y010714D01*
X004064Y010802D02*
X004064Y010802D01*
X004083Y010812D02*
X003099Y010812D01*
X003099Y010911D02*
X004276Y010911D01*
X004471Y011009D02*
X003099Y011009D01*
X004917Y011080D02*
X004917Y011080D01*
X005089Y025883D02*
X034400Y025883D01*
X034400Y025981D02*
X005187Y025981D01*
X005259Y026080D02*
X034400Y026080D01*
X034400Y026178D02*
X005300Y026178D01*
X005339Y026277D02*
X034400Y026277D01*
X034400Y026375D02*
X005339Y026375D01*
X003351Y031103D02*
X034148Y031103D01*
X033990Y031202D02*
X003509Y031202D01*
X032133Y030836D02*
X032133Y030836D01*
X033030Y030836D02*
X033030Y030836D01*
X033086Y030808D02*
X034353Y030808D01*
X034386Y030709D02*
X033280Y030709D01*
X033434Y030630D02*
X033434Y030630D01*
X033454Y030611D02*
X034400Y030611D01*
X034400Y030512D02*
X033552Y030512D01*
X033651Y030414D02*
X034400Y030414D01*
X034400Y030315D02*
X033749Y030315D01*
X033755Y030309D02*
X033755Y030309D01*
X033803Y030217D02*
X034400Y030217D01*
X034400Y030118D02*
X033853Y030118D01*
X033903Y030020D02*
X034400Y030020D01*
X034400Y029921D02*
X033953Y029921D01*
X033961Y029905D02*
X033961Y029905D01*
X033974Y029823D02*
X034400Y029823D01*
X034400Y029724D02*
X033990Y029724D01*
X034006Y029626D02*
X034400Y029626D01*
X034400Y029527D02*
X034021Y029527D01*
X034028Y029429D02*
X034400Y029429D01*
X034400Y029330D02*
X034012Y029330D01*
X033997Y029232D02*
X034400Y029232D01*
X034400Y029133D02*
X033981Y029133D01*
X033966Y029035D02*
X034400Y029035D01*
X034400Y028936D02*
X033925Y028936D01*
X033961Y029008D02*
X033961Y029008D01*
X033875Y028838D02*
X034400Y028838D01*
X034400Y028739D02*
X033825Y028739D01*
X033774Y028641D02*
X034400Y028641D01*
X034400Y028542D02*
X033694Y028542D01*
X033596Y028444D02*
X034400Y028444D01*
X034400Y028345D02*
X033497Y028345D01*
X033364Y028247D02*
X034400Y028247D01*
X034400Y028148D02*
X033171Y028148D01*
X033030Y028076D02*
X033030Y028076D01*
X032862Y028050D02*
X034400Y028050D01*
D15*
X034109Y030150D03*
X033484Y031025D03*
X026359Y028650D03*
X024499Y028660D03*
X023874Y028660D03*
X023359Y026775D03*
X023359Y024650D03*
X023484Y023150D03*
X024484Y021900D03*
X024484Y021400D03*
X025484Y021650D03*
X025484Y022275D03*
X024949Y023785D03*
X025234Y024650D03*
X026484Y024650D03*
X028234Y022150D03*
X028824Y022160D03*
X028234Y021525D03*
X028230Y020585D03*
X028824Y020160D03*
X028980Y019710D03*
X030105Y019710D03*
X030949Y019645D03*
X030105Y020585D03*
X029609Y021525D03*
X030234Y022525D03*
X029734Y023025D03*
X026699Y018910D03*
X025609Y019775D03*
X023449Y019335D03*
X022949Y019335D03*
X021824Y019710D03*
X021324Y019210D03*
X020574Y019210D03*
X019824Y019210D03*
X019824Y020335D03*
X019824Y020960D03*
X019824Y021460D03*
X018449Y022210D03*
X018855Y023335D03*
X017230Y023460D03*
X017230Y022210D03*
X016230Y022210D03*
X013855Y022210D03*
X013074Y022785D03*
X013605Y023585D03*
X013980Y023585D03*
X013855Y025085D03*
X011980Y025460D03*
X010230Y025460D03*
X009480Y024085D03*
X009480Y023585D03*
X008324Y022210D03*
X007855Y023710D03*
X007855Y024585D03*
X007855Y025835D03*
X007855Y027085D03*
X009355Y027085D03*
X011359Y030900D03*
X012734Y030900D03*
X014359Y030900D03*
X015984Y030900D03*
X018859Y030150D03*
X018984Y028025D03*
X020859Y028025D03*
X020859Y030150D03*
X021109Y031025D03*
X024609Y031025D03*
X019734Y026025D03*
X021324Y021710D03*
X022449Y020710D03*
X022824Y020710D03*
X020949Y020335D03*
X019761Y018085D03*
X020574Y017585D03*
X020574Y016770D03*
X021449Y016895D03*
X021824Y016285D03*
X021949Y015895D03*
X022605Y015895D03*
X022949Y015785D03*
X023449Y015895D03*
X023574Y016710D03*
X023574Y017085D03*
X022949Y016785D03*
X022324Y016660D03*
X022949Y017460D03*
X024699Y016395D03*
X024699Y015645D03*
X023824Y014770D03*
X024449Y014410D03*
X025109Y013900D03*
X024859Y013150D03*
X024449Y012535D03*
X023984Y012400D03*
X023984Y011650D03*
X024859Y011650D03*
X025859Y011650D03*
X026609Y011650D03*
X026949Y010285D03*
X026734Y009900D03*
X026734Y009150D03*
X026734Y008650D03*
X028199Y007960D03*
X030234Y009900D03*
X030109Y011650D03*
X030484Y012525D03*
X029824Y013410D03*
X029109Y013650D03*
X029074Y014160D03*
X028234Y014025D03*
X027699Y015210D03*
X027605Y016335D03*
X027605Y016960D03*
X026355Y016960D03*
X026355Y016335D03*
X026199Y015645D03*
X025824Y014895D03*
X025824Y014035D03*
X026484Y014025D03*
X025824Y013035D03*
X023984Y013150D03*
X023824Y013895D03*
X023449Y013660D03*
X022574Y013270D03*
X022574Y012770D03*
X021324Y013210D03*
X020949Y012910D03*
X020574Y013210D03*
X019761Y013210D03*
X019761Y013710D03*
X018949Y013910D03*
X018324Y013535D03*
X017449Y013535D03*
X016449Y012785D03*
X015199Y012160D03*
X014074Y010535D03*
X012574Y010910D03*
X012699Y012035D03*
X011699Y012035D03*
X009949Y012035D03*
X008699Y012410D03*
X008699Y011160D03*
X009449Y009160D03*
X008949Y008660D03*
X010824Y008160D03*
X011449Y008660D03*
X012199Y009660D03*
X012199Y013910D03*
X011199Y013910D03*
X013449Y014785D03*
X014324Y015660D03*
X013449Y016285D03*
X013449Y017785D03*
X014699Y017410D03*
X015199Y017160D03*
X015699Y017410D03*
X016074Y017160D03*
X016949Y015660D03*
X017699Y015660D03*
X018199Y015410D03*
X018699Y015410D03*
X019761Y014960D03*
X020574Y014160D03*
X021324Y015160D03*
X021074Y012335D03*
X021109Y011650D03*
X020699Y011285D03*
X020324Y010585D03*
X019761Y010960D03*
X019761Y011835D03*
X019324Y012035D03*
X018199Y012285D03*
X017699Y011285D03*
X017699Y010910D03*
X016949Y010910D03*
X016449Y010160D03*
X017074Y009660D03*
X017574Y009910D03*
X018574Y009035D03*
X018074Y008660D03*
X019449Y008660D03*
X019824Y008645D03*
X019761Y009085D03*
X019324Y009660D03*
X019761Y009960D03*
X020324Y009710D03*
X021074Y009085D03*
X021074Y008645D03*
X020574Y008660D03*
X021824Y007960D03*
X022324Y008645D03*
X022324Y009145D03*
X023199Y008710D03*
X023199Y007960D03*
X024949Y007960D03*
X024949Y008710D03*
X024199Y010410D03*
X022824Y011160D03*
X022324Y010395D03*
X021574Y010395D03*
X015699Y015285D03*
X019074Y017160D03*
X018574Y019035D03*
X017699Y019035D03*
X016699Y019035D03*
X016199Y019535D03*
X015199Y019535D03*
X014324Y019160D03*
X013449Y019285D03*
X012949Y019535D03*
X011730Y020035D03*
X011199Y020910D03*
X010949Y022210D03*
X010699Y018535D03*
X010073Y018160D03*
X011199Y017160D03*
X012199Y017160D03*
X006074Y022020D03*
X003199Y022020D03*
X003199Y022645D03*
X003199Y023210D03*
X003324Y023710D03*
X003449Y027145D03*
X003480Y028085D03*
X004109Y031025D03*
X028109Y011900D03*
X028859Y015650D03*
X029734Y015650D03*
X029734Y016775D03*
X030605Y017460D03*
X030855Y017460D03*
X030949Y018520D03*
X031984Y017400D03*
X031984Y016400D03*
X031984Y015400D03*
X031109Y015400D03*
X028859Y016775D03*
X033609Y017400D03*
X033609Y018400D03*
X034230Y019491D03*
X034230Y015491D03*
X033609Y014400D03*
X034230Y011616D03*
X034230Y008741D03*
X033480Y007991D03*
D16*
X029949Y012535D02*
X024449Y012535D01*
X023574Y013535D02*
X028449Y013535D01*
X029074Y014160D01*
X030824Y015910D01*
X032699Y015910D01*
X032699Y016910D02*
X031949Y016910D01*
X030449Y018410D01*
X030449Y021410D01*
X029074Y022785D01*
X013074Y022785D01*
X011324Y021410D02*
X011199Y020910D01*
X011730Y020035D02*
X014699Y020035D01*
X015199Y019535D01*
X015699Y020035D01*
X021949Y020035D01*
X022324Y019660D01*
X022324Y017410D01*
X022949Y016785D01*
X022324Y016660D02*
X021824Y017160D01*
X021824Y019285D01*
X021574Y019535D01*
X016199Y019535D01*
X016699Y019035D02*
X016699Y018660D01*
X017199Y018160D01*
X019199Y018160D01*
X019824Y017535D01*
X019824Y015535D01*
X020199Y015160D01*
X021324Y015160D01*
X022074Y014410D01*
X024449Y014410D01*
X024699Y015160D02*
X023574Y015160D01*
X022949Y015785D01*
X021824Y016285D02*
X024074Y016285D01*
X026699Y018910D01*
X024699Y015160D02*
X025824Y014035D01*
X025824Y013035D02*
X029449Y013035D01*
X029824Y013410D01*
X030324Y013910D01*
X032699Y013910D01*
X032699Y012910D02*
X030324Y012910D01*
X029949Y012535D01*
X026949Y010285D02*
X026824Y010410D01*
X024199Y010410D01*
X022824Y011160D02*
X022824Y008660D01*
X022449Y008285D01*
X019824Y008285D01*
X019449Y008660D01*
X018824Y008285D02*
X018574Y008035D01*
X010949Y008035D01*
X010824Y008160D01*
X011449Y008660D02*
X008949Y008660D01*
X009449Y009160D02*
X017324Y009160D01*
X017574Y009410D01*
X017574Y009910D01*
X018074Y010160D02*
X018074Y008660D01*
X018574Y009035D02*
X018574Y011535D01*
X017824Y012285D01*
X017824Y014410D01*
X018199Y014785D01*
X018199Y015410D01*
X018699Y015410D02*
X018699Y015535D01*
X017699Y015660D02*
X017449Y015410D01*
X017449Y013535D01*
X018324Y013535D02*
X018949Y012910D01*
X020949Y012910D01*
X020948Y012909D01*
X020574Y014160D02*
X019199Y014160D01*
X018949Y013910D01*
X018199Y012285D02*
X018824Y011660D01*
X018824Y008285D01*
X019324Y009660D02*
X019324Y012035D01*
X020699Y011285D02*
X020699Y008785D01*
X020574Y008660D01*
X018074Y010160D02*
X017824Y010410D01*
X014199Y010410D01*
X014074Y010535D01*
X013199Y011285D02*
X012824Y010910D01*
X012574Y010910D01*
X013199Y011285D02*
X017699Y011285D01*
X016949Y012035D01*
X016949Y015660D01*
X015699Y015285D02*
X014699Y016285D01*
X014699Y017410D01*
X015199Y017160D02*
X015199Y019535D01*
X014324Y019160D02*
X014199Y019285D01*
X013449Y019285D01*
X012949Y019535D02*
X012949Y018785D01*
X014074Y017660D01*
X014074Y015910D01*
X014324Y015660D01*
X013449Y016285D02*
X013449Y016410D01*
X013449Y017535D02*
X013449Y017785D01*
X012199Y017910D02*
X012199Y017160D01*
X012199Y017910D02*
X011949Y018160D01*
X010073Y018160D01*
X010699Y018535D02*
X010699Y018660D01*
X010824Y018785D01*
X011199Y017160D02*
X011199Y016160D01*
X012574Y014785D01*
X013449Y014785D01*
X012199Y013910D02*
X012199Y013660D01*
X011199Y013910D02*
X011199Y013285D01*
X009949Y012035D01*
X011699Y012035D01*
X011699Y010160D01*
X012199Y009660D01*
X017074Y009660D01*
X016449Y009910D02*
X016324Y010035D01*
X016449Y010160D01*
X016949Y010910D02*
X017699Y010910D01*
X016449Y012660D02*
X016449Y012785D01*
X016449Y013410D02*
X015199Y012160D01*
X016449Y013410D02*
X016449Y017785D01*
X016324Y017910D01*
X015824Y017910D01*
X015699Y017785D01*
X015699Y017410D01*
X012699Y012035D02*
X013199Y011785D01*
X008699Y012410D02*
X008699Y011160D01*
X008055Y011475D02*
X008026Y011420D01*
X007986Y011372D01*
X007938Y011332D01*
X007883Y011303D01*
X007823Y011285D01*
X007761Y011279D01*
X007699Y011285D01*
X005699Y011285D01*
X005470Y011300D01*
X005246Y011345D01*
X005029Y011418D01*
X004824Y011519D01*
X004633Y011647D01*
X004461Y011798D01*
X004310Y011970D01*
X004183Y012160D01*
X004082Y012365D01*
X004008Y012582D01*
X003963Y012807D01*
X003949Y013035D01*
X003949Y019005D01*
X003954Y019060D01*
X003970Y019112D01*
X003996Y019161D01*
X004030Y019203D01*
X004073Y019238D01*
X004121Y019264D01*
X004173Y019280D01*
X004228Y019285D01*
X006824Y019285D01*
X006992Y019242D01*
X007026Y019200D01*
X007052Y019151D01*
X007068Y019099D01*
X007074Y019044D01*
X007074Y019035D01*
X007080Y018973D01*
X007074Y018911D01*
X007056Y018851D01*
X007026Y018796D01*
X006987Y018747D01*
X006938Y018708D01*
X006883Y018678D01*
X006824Y018660D01*
X006824Y018160D01*
X006802Y018036D01*
X006762Y017916D01*
X006703Y017804D01*
X006627Y017703D01*
X006537Y017615D01*
X006434Y017542D01*
X006320Y017486D01*
X006200Y017449D01*
X006075Y017431D01*
X005949Y017432D01*
X005949Y013160D01*
X005954Y013095D01*
X005971Y013032D01*
X005999Y012973D01*
X006036Y012919D01*
X006082Y012873D01*
X006136Y012835D01*
X006195Y012808D01*
X006258Y012791D01*
X006324Y012785D01*
X007824Y012785D01*
X007872Y012780D01*
X007919Y012766D01*
X007962Y012743D01*
X008000Y012712D01*
X008031Y012674D01*
X008054Y012631D01*
X008069Y012584D01*
X008074Y012535D01*
X008074Y011535D01*
X008055Y011475D01*
X008043Y011452D02*
X004960Y011452D01*
X004747Y011571D02*
X008074Y011571D01*
X008074Y011689D02*
X004585Y011689D01*
X004452Y011808D02*
X008074Y011808D01*
X008074Y011926D02*
X004348Y011926D01*
X004260Y012045D02*
X008074Y012045D01*
X008074Y012163D02*
X004181Y012163D01*
X004123Y012282D02*
X008074Y012282D01*
X008074Y012400D02*
X004070Y012400D01*
X004030Y012519D02*
X008074Y012519D01*
X008051Y012637D02*
X003997Y012637D01*
X003974Y012756D02*
X007939Y012756D01*
X007939Y011334D02*
X005301Y011334D01*
X006081Y012874D02*
X003959Y012874D01*
X003951Y012993D02*
X005989Y012993D01*
X005953Y013111D02*
X003949Y013111D01*
X003949Y013230D02*
X005949Y013230D01*
X005949Y013348D02*
X003949Y013348D01*
X003949Y013467D02*
X005949Y013467D01*
X005949Y013585D02*
X003949Y013585D01*
X003949Y013704D02*
X005949Y013704D01*
X005949Y013822D02*
X003949Y013822D01*
X003949Y013941D02*
X005949Y013941D01*
X005949Y014059D02*
X003949Y014059D01*
X003949Y014178D02*
X005949Y014178D01*
X005949Y014296D02*
X003949Y014296D01*
X003949Y014415D02*
X005949Y014415D01*
X005949Y014533D02*
X003949Y014533D01*
X003949Y014652D02*
X005949Y014652D01*
X005949Y014770D02*
X003949Y014770D01*
X003949Y014889D02*
X005949Y014889D01*
X005949Y015007D02*
X003949Y015007D01*
X003949Y015126D02*
X005949Y015126D01*
X005949Y015244D02*
X003949Y015244D01*
X003949Y015363D02*
X005949Y015363D01*
X005949Y015481D02*
X003949Y015481D01*
X003949Y015600D02*
X005949Y015600D01*
X005949Y015718D02*
X003949Y015718D01*
X003949Y015837D02*
X005949Y015837D01*
X005949Y015955D02*
X003949Y015955D01*
X003949Y016074D02*
X005949Y016074D01*
X005949Y016192D02*
X003949Y016192D01*
X003949Y016311D02*
X005949Y016311D01*
X005949Y016429D02*
X003949Y016429D01*
X003949Y016548D02*
X005949Y016548D01*
X005949Y016666D02*
X003949Y016666D01*
X003949Y016785D02*
X005949Y016785D01*
X005949Y016903D02*
X003949Y016903D01*
X003949Y017022D02*
X005949Y017022D01*
X005949Y017140D02*
X003949Y017140D01*
X003949Y017259D02*
X005949Y017259D01*
X005949Y017377D02*
X003949Y017377D01*
X003949Y017496D02*
X006339Y017496D01*
X006535Y017614D02*
X003949Y017614D01*
X003949Y017733D02*
X006649Y017733D01*
X006727Y017851D02*
X003949Y017851D01*
X003949Y017970D02*
X004334Y017970D01*
X004321Y017977D02*
X004396Y017933D01*
X004476Y017900D01*
X004560Y017878D01*
X004629Y017869D01*
X004629Y018467D01*
X004031Y018467D01*
X004040Y018398D01*
X004062Y018314D01*
X004095Y018234D01*
X004139Y018159D01*
X004191Y018091D01*
X004253Y018029D01*
X004321Y017977D01*
X004194Y018088D02*
X003949Y018088D01*
X003949Y018207D02*
X004111Y018207D01*
X004059Y018325D02*
X003949Y018325D01*
X003949Y018444D02*
X004034Y018444D01*
X004031Y018587D02*
X004629Y018587D01*
X004629Y019184D01*
X004560Y019175D01*
X004476Y019153D01*
X004396Y019120D01*
X004321Y019077D01*
X004253Y019024D01*
X004191Y018963D01*
X004139Y018894D01*
X004095Y018819D01*
X004062Y018739D01*
X004040Y018656D01*
X004031Y018587D01*
X003949Y018562D02*
X004629Y018562D01*
X004629Y018587D02*
X004629Y018467D01*
X004749Y018467D01*
X004749Y018587D01*
X004629Y018587D01*
X004629Y018681D02*
X004749Y018681D01*
X004749Y018587D02*
X004749Y019184D01*
X004818Y019175D01*
X004901Y019153D01*
X004981Y019120D01*
X005056Y019077D01*
X005125Y019024D01*
X005186Y018963D01*
X005239Y018894D01*
X005282Y018819D01*
X005315Y018739D01*
X005337Y018656D01*
X005346Y018587D01*
X004749Y018587D01*
X004749Y018562D02*
X006824Y018562D01*
X006824Y018444D02*
X005343Y018444D01*
X005346Y018467D02*
X004749Y018467D01*
X004749Y017869D01*
X004818Y017878D01*
X004901Y017900D01*
X004981Y017933D01*
X005056Y017977D01*
X005125Y018029D01*
X005186Y018091D01*
X005239Y018159D01*
X005282Y018234D01*
X005315Y018314D01*
X005337Y018398D01*
X005346Y018467D01*
X005318Y018325D02*
X006824Y018325D01*
X006824Y018207D02*
X005266Y018207D01*
X005183Y018088D02*
X006811Y018088D01*
X006780Y017970D02*
X005044Y017970D01*
X004749Y017970D02*
X004629Y017970D01*
X004629Y018088D02*
X004749Y018088D01*
X004749Y018207D02*
X004629Y018207D01*
X004629Y018325D02*
X004749Y018325D01*
X004749Y018444D02*
X004629Y018444D01*
X004629Y018799D02*
X004749Y018799D01*
X004749Y018918D02*
X004629Y018918D01*
X004629Y019036D02*
X004749Y019036D01*
X004749Y019155D02*
X004629Y019155D01*
X004482Y019155D02*
X003992Y019155D01*
X003952Y019036D02*
X004268Y019036D01*
X004157Y018918D02*
X003949Y018918D01*
X003949Y018799D02*
X004087Y018799D01*
X004047Y018681D02*
X003949Y018681D01*
X004152Y019273D02*
X006870Y019273D01*
X007050Y019155D02*
X004896Y019155D01*
X005109Y019036D02*
X007074Y019036D01*
X007074Y018918D02*
X005221Y018918D01*
X005290Y018799D02*
X007028Y018799D01*
X006888Y018681D02*
X005331Y018681D01*
X004901Y019900D02*
X004818Y019878D01*
X004749Y019869D01*
X004749Y020467D01*
X004749Y020587D01*
X004629Y020587D01*
X004629Y021184D01*
X004560Y021175D01*
X004476Y021153D01*
X004396Y021120D01*
X004321Y021077D01*
X004253Y021024D01*
X004191Y020963D01*
X004139Y020894D01*
X004095Y020819D01*
X004062Y020739D01*
X004040Y020656D01*
X004031Y020587D01*
X004629Y020587D01*
X004629Y020467D01*
X004031Y020467D01*
X004040Y020398D01*
X004062Y020314D01*
X004095Y020234D01*
X004139Y020159D01*
X004191Y020091D01*
X004253Y020029D01*
X004321Y019977D01*
X004396Y019933D01*
X004476Y019900D01*
X004560Y019878D01*
X004629Y019869D01*
X004629Y020467D01*
X004749Y020467D01*
X005346Y020467D01*
X005337Y020398D01*
X005315Y020314D01*
X005282Y020234D01*
X005239Y020159D01*
X005186Y020091D01*
X005125Y020029D01*
X005056Y019977D01*
X004981Y019933D01*
X004901Y019900D01*
X004749Y019984D02*
X004629Y019984D01*
X004629Y020103D02*
X004749Y020103D01*
X004749Y020221D02*
X004629Y020221D01*
X004629Y020340D02*
X004749Y020340D01*
X004749Y020458D02*
X004629Y020458D01*
X004629Y020577D02*
X003109Y020577D01*
X003109Y020695D02*
X004050Y020695D01*
X004093Y020814D02*
X003109Y020814D01*
X003109Y020932D02*
X004168Y020932D01*
X004287Y021051D02*
X003109Y021051D01*
X003109Y021169D02*
X004536Y021169D01*
X004629Y021169D02*
X004749Y021169D01*
X004749Y021184D02*
X004749Y020587D01*
X005346Y020587D01*
X005337Y020656D01*
X005315Y020739D01*
X005282Y020819D01*
X005239Y020894D01*
X005186Y020963D01*
X005125Y021024D01*
X005056Y021077D01*
X004981Y021120D01*
X004901Y021153D01*
X004818Y021175D01*
X004749Y021184D01*
X004841Y021169D02*
X008678Y021169D01*
X008668Y021206D02*
X008691Y021122D01*
X008699Y021035D01*
X008699Y017910D01*
X008695Y017882D01*
X008686Y017856D01*
X008671Y017832D01*
X008651Y017812D01*
X008628Y017797D01*
X008601Y017788D01*
X008574Y017785D01*
X007199Y017785D01*
X007171Y017788D01*
X007144Y017797D01*
X007121Y017812D01*
X007101Y017832D01*
X007086Y017856D01*
X007077Y017882D01*
X007074Y017910D01*
X007074Y018285D01*
X007078Y018334D01*
X007093Y018381D01*
X007116Y018424D01*
X007147Y018462D01*
X007185Y018493D01*
X007228Y018516D01*
X007275Y018530D01*
X007324Y018535D01*
X007324Y019410D01*
X007319Y019459D01*
X007304Y019506D01*
X007281Y019549D01*
X007250Y019587D01*
X007212Y019618D01*
X007169Y019641D01*
X007122Y019655D01*
X007074Y019660D01*
X003199Y019660D01*
X003171Y019663D01*
X003144Y019672D01*
X003121Y019687D01*
X003109Y019699D01*
X003109Y021315D01*
X003124Y021348D01*
X003161Y021401D01*
X003207Y021447D01*
X003261Y021485D01*
X003320Y021512D01*
X003383Y021529D01*
X003449Y021535D01*
X008199Y021535D01*
X008285Y021527D01*
X008370Y021505D01*
X008449Y021468D01*
X008520Y021418D01*
X008582Y021356D01*
X008632Y021285D01*
X008668Y021206D01*
X008630Y021288D02*
X003109Y021288D01*
X003166Y021406D02*
X008532Y021406D01*
X008296Y021525D02*
X003366Y021525D01*
X003109Y020458D02*
X004032Y020458D01*
X004056Y020340D02*
X003109Y020340D01*
X003109Y020221D02*
X004103Y020221D01*
X004182Y020103D02*
X003109Y020103D01*
X003109Y019984D02*
X004312Y019984D01*
X004749Y020577D02*
X008699Y020577D01*
X008699Y020695D02*
X005327Y020695D01*
X005284Y020814D02*
X008699Y020814D01*
X008699Y020932D02*
X005210Y020932D01*
X005090Y021051D02*
X008697Y021051D01*
X008699Y020458D02*
X005345Y020458D01*
X005322Y020340D02*
X008699Y020340D01*
X008699Y020221D02*
X005274Y020221D01*
X005195Y020103D02*
X008699Y020103D01*
X008699Y019984D02*
X005066Y019984D01*
X004749Y020695D02*
X004629Y020695D01*
X004629Y020814D02*
X004749Y020814D01*
X004749Y020932D02*
X004629Y020932D01*
X004629Y021051D02*
X004749Y021051D01*
X003109Y019866D02*
X008699Y019866D01*
X008699Y019747D02*
X003109Y019747D01*
X007077Y018325D02*
X008699Y018325D01*
X008699Y018207D02*
X007074Y018207D01*
X007074Y018088D02*
X008699Y018088D01*
X008699Y017970D02*
X007074Y017970D01*
X007089Y017851D02*
X008683Y017851D01*
X008699Y018444D02*
X007132Y018444D01*
X007324Y018562D02*
X008699Y018562D01*
X008699Y018681D02*
X007324Y018681D01*
X007324Y018799D02*
X008699Y018799D01*
X008699Y018918D02*
X007324Y018918D01*
X007324Y019036D02*
X008699Y019036D01*
X008699Y019155D02*
X007324Y019155D01*
X007324Y019273D02*
X008699Y019273D01*
X008699Y019392D02*
X007324Y019392D01*
X007302Y019510D02*
X008699Y019510D01*
X008699Y019629D02*
X007192Y019629D01*
X023449Y013660D02*
X023574Y013535D01*
D17*
X008824Y014285D03*
X008824Y014910D03*
X008199Y015285D03*
X007574Y015285D03*
X007574Y014535D03*
X008199Y014535D03*
X008824Y015535D03*
X008824Y016160D03*
X006949Y016160D03*
X006949Y015535D03*
X006949Y014910D03*
X007074Y012410D03*
X006449Y012410D03*
X005824Y012410D03*
X005824Y011910D03*
X005199Y011910D03*
X007699Y012410D03*
X006199Y018160D03*
X005574Y018160D03*
X005574Y018910D03*
X006199Y018910D03*
X005824Y020160D03*
X005824Y021035D03*
X006824Y021035D03*
X006824Y020535D03*
X007324Y021285D03*
X007824Y021285D03*
X008324Y021035D03*
X008324Y019910D03*
X008324Y019410D03*
X008324Y018910D03*
X007699Y018910D03*
X003449Y020160D03*
X003449Y021035D03*
D18*
X024949Y023785D02*
X030699Y023785D01*
X031574Y022910D01*
X031574Y018285D01*
X031949Y017910D01*
X032699Y017910D01*
X028824Y020160D02*
X028824Y022160D01*
M02*
