%
M48
M72
T01C0.0122
T02C0.0315
T03C0.0394
T04C0.0512
T05C0.1260
%
T01
X21324Y19210
X22949Y19335
X21324Y21710
X19824Y19210
X20949Y20335
X18449Y22210
X3199Y23210
X13855Y22210
X19824Y21460
X23449Y19335
X4109Y31025
X3324Y23710
X3449Y27145
X3199Y22645
X3199Y22020
X16230Y22210
X22824Y20710
X20574Y19210
X19824Y20960
X22449Y20710
X19824Y20335
X23874Y28660
X24499Y28660
X15984Y30900
X14359Y30900
X12734Y30900
X11359Y30900
X21109Y31025
X24609Y31025
X33484Y31025
X34109Y30150
X16449Y10160
X12199Y13910
X10699Y18535
X12699Y12035
X11199Y20910
X19761Y18085
X20574Y17585
X20574Y13210
X27699Y15210
X23574Y17085
X23574Y16710
X22949Y17460
X19761Y14960
X19761Y13710
X19761Y13210
X19761Y11835
X21324Y13210
X21074Y12335
X19761Y10960
X20324Y10585
X20324Y9710
X19761Y9960
X19761Y9085
X33480Y7991
X34230Y8741
X34230Y11616
X34230Y15491
X34230Y19491
X10949Y22210
X8324Y22210
X21074Y9085
X21824Y7960
X23199Y7960
X24949Y7960
X28199Y7960
X18984Y28025
X20859Y28025
X20859Y30150
X18859Y30150
X23359Y26775
X23359Y24650
X25234Y24650
X26484Y24650
X26359Y28650
X19734Y26025
X23484Y23150
X24484Y21900
X24484Y21400
X25609Y19775
X25484Y22275
X25484Y21650
X28234Y22150
X28234Y21525
X29609Y21525
X29734Y23025
X30234Y22525
X28859Y16775
X29734Y16775
X29734Y15650
X28859Y15650
X25109Y13900
X26484Y14025
X28234Y14025
X31109Y15400
X31984Y15400
X31984Y16400
X31984Y17400
X33609Y18400
X33609Y17400
X33609Y14400
X28109Y11900
X30234Y9900
X30109Y11650
X30484Y12525
X29109Y13650
X23984Y13150
X23984Y12400
X24859Y13150
X25859Y11650
X26609Y11650
X26734Y9900
X26734Y9150
X26734Y8650
X21109Y11650
X23984Y11650
X24859Y11650
X13855Y25085
X3480Y28085
X7855Y27085
X9355Y27085
X10230Y25460
X13605Y23585
X11980Y25460
X13980Y23585
X17230Y23460
X17230Y22210
X18855Y23335
X9480Y24085
X9480Y23585
X7855Y25835
X7855Y24585
X7855Y23710
X27605Y16960
X27605Y16335
X26355Y16335
X26355Y16960
X28980Y19710
X30105Y19710
X30105Y20585
X28230Y20585
X30605Y17460
X30855Y17460
X24949Y8710
X23199Y8710
X13449Y16285
X13449Y17785
X16074Y17160
X17699Y19035
X18574Y19035
X18699Y15410
X6074Y22020
X19824Y8645
X21074Y8645
X22324Y8645
X22324Y9145
X21574Y10395
X22324Y10395
X22574Y13270
X22574Y12770
X23824Y14770
X23824Y13895
X25824Y14895
X24699Y15645
X26199Y15645
X24699Y16395
X23449Y15895
X21949Y15895
X20574Y16770
X21449Y16895
X30949Y19645
X30949Y18520
X16449Y12785
X21824Y19710
X22605Y15895
X28824Y20160
X28824Y22160
X24949Y23785
X21324Y15160
X16699Y19035
X24449Y12535
X24449Y14410
X20574Y14160
X21824Y16285
X26699Y18910
X11199Y17160
X18949Y13910
X13449Y14785
X16949Y10910
X17699Y10910
X11199Y13910
X9949Y12035
X12199Y9660
X17074Y9660
X11699Y12035
X19324Y12035
X19324Y9660
X19074Y17160
X18199Y15410
X18574Y9035
X17699Y15660
X20699Y11285
X20574Y8660
X17449Y13535
X18324Y13535
X20949Y12910
X23449Y13660
X29074Y14160
X8699Y12410
X8699Y11160
X9449Y9160
X17574Y9910
X12199Y17160
X10073Y18160
X12949Y19535
X14324Y15660
X14699Y17410
X15699Y15285
X15199Y12160
X15699Y17410
X13074Y22785
X29824Y13410
X25824Y13035
X11730Y20035
X15199Y17160
X25824Y14035
X22949Y15785
X22949Y16785
X15199Y19535
X8949Y8660
X17699Y11285
X16949Y15660
X12574Y10910
X11449Y8660
X24199Y10410
X26949Y10285
X13449Y19285
X14324Y19160
X16199Y19535
X22324Y16660
X18199Y12285
X10824Y8160
X22824Y11160
X18074Y8660
X19449Y8660
X14074Y10535
T02
X6949Y16160
X6949Y15535
X6949Y14910
X7574Y15285
X7574Y14535
X8199Y15285
X8199Y14535
X8824Y14285
X8824Y14910
X8824Y15535
X8824Y16160
X5824Y11910
X5199Y11910
X6449Y12410
X7074Y12410
X7699Y12410
X5824Y12410
X5574Y18910
X6199Y18910
X5574Y18160
X6199Y18160
X3449Y21035
X3449Y20160
X5824Y20160
X5824Y21035
X6824Y21035
X6824Y20535
X7324Y21285
X7699Y18910
X8324Y18910
X8324Y19410
X8324Y19910
X8324Y21035
X7824Y21285
T03
X32699Y18910
X32699Y17910
X32699Y16910
X32699Y15910
X32699Y14910
X32699Y13910
X32699Y12910
X32699Y11910
T04
X4689Y18527
X4689Y20527
X32708Y27043
X32708Y25043
X32708Y23043
X32708Y21043
X4689Y24402
X4689Y26402
T05
X32581Y29456
X4917Y29456
X32581Y9629
X4917Y9629
M30
