G75*
G70*
%OFA0B0*%
%FSLAX24Y24*%
%IPPOS*%
%LPD*%
%AMOC8*
5,1,8,0,0,1.08239X$1,22.5*
%
%ADD10C,0.0000*%
%ADD11C,0.0070*%
%ADD12R,0.1660X0.0020*%
%ADD13R,0.0160X0.0020*%
%ADD14R,0.1420X0.0020*%
%ADD15R,0.1320X0.0020*%
%ADD16R,0.0140X0.0020*%
%ADD17R,0.1280X0.0020*%
%ADD18R,0.0120X0.0020*%
%ADD19R,0.0100X0.0020*%
%ADD20R,0.0280X0.0020*%
%ADD21R,0.0980X0.0020*%
%ADD22R,0.0260X0.0020*%
%ADD23R,0.0960X0.0020*%
%ADD24R,0.0080X0.0020*%
%ADD25R,0.0240X0.0020*%
%ADD26R,0.0920X0.0020*%
%ADD27R,0.0220X0.0020*%
%ADD28R,0.0880X0.0020*%
%ADD29R,0.0200X0.0020*%
%ADD30R,0.0860X0.0020*%
%ADD31R,0.0820X0.0020*%
%ADD32R,0.0020X0.0020*%
%ADD33R,0.0840X0.0020*%
%ADD34R,0.0040X0.0020*%
%ADD35R,0.0060X0.0020*%
%ADD36R,0.0580X0.0020*%
%ADD37R,0.0340X0.0020*%
%ADD38R,0.0180X0.0020*%
%ADD39R,0.0560X0.0020*%
%ADD40R,0.0380X0.0020*%
%ADD41R,0.0420X0.0020*%
%ADD42R,0.0540X0.0020*%
%ADD43R,0.0460X0.0020*%
%ADD44R,0.0520X0.0020*%
%ADD45R,0.0640X0.0020*%
%ADD46R,0.0500X0.0020*%
%ADD47R,0.0780X0.0020*%
%ADD48R,0.0480X0.0020*%
%ADD49R,0.0940X0.0020*%
%ADD50R,0.1020X0.0020*%
%ADD51R,0.1060X0.0020*%
%ADD52R,0.1120X0.0020*%
%ADD53R,0.1180X0.0020*%
%ADD54R,0.0300X0.0020*%
%ADD55R,0.1220X0.0020*%
%ADD56R,0.0320X0.0020*%
%ADD57R,0.1260X0.0020*%
%ADD58R,0.1300X0.0020*%
%ADD59R,0.1340X0.0020*%
%ADD60R,0.0600X0.0020*%
%ADD61R,0.1380X0.0020*%
%ADD62R,0.1440X0.0020*%
%ADD63R,0.1460X0.0020*%
%ADD64R,0.1500X0.0020*%
%ADD65R,0.1540X0.0020*%
%ADD66R,0.1560X0.0020*%
%ADD67R,0.1580X0.0020*%
%ADD68R,0.1600X0.0020*%
%ADD69R,0.1620X0.0020*%
%ADD70R,0.1640X0.0020*%
%ADD71R,0.1680X0.0020*%
%ADD72R,0.1720X0.0020*%
%ADD73R,0.0360X0.0020*%
%ADD74R,0.0400X0.0020*%
%ADD75R,0.0440X0.0020*%
%ADD76R,0.1760X0.0020*%
%ADD77R,0.1740X0.0020*%
%ADD78R,0.1700X0.0020*%
%ADD79R,0.1520X0.0020*%
%ADD80R,0.1480X0.0020*%
%ADD81R,0.1400X0.0020*%
%ADD82R,0.1360X0.0020*%
%ADD83R,0.1240X0.0020*%
%ADD84R,0.1200X0.0020*%
%ADD85R,0.1140X0.0020*%
%ADD86R,0.1080X0.0020*%
%ADD87R,0.0660X0.0020*%
%ADD88R,0.0680X0.0020*%
%ADD89R,0.0900X0.0020*%
%ADD90R,0.0700X0.0020*%
%ADD91R,0.0800X0.0020*%
%ADD92R,0.0720X0.0020*%
%ADD93R,0.0620X0.0020*%
%ADD94R,0.0740X0.0020*%
%ADD95R,0.0760X0.0020*%
%ADD96R,0.1040X0.0020*%
D10*
X003736Y007660D02*
X033762Y007660D01*
X033763Y007660D02*
X033820Y007666D01*
X033877Y007676D01*
X033933Y007690D01*
X033988Y007708D01*
X034042Y007729D01*
X034094Y007754D01*
X034144Y007783D01*
X034192Y007815D01*
X034238Y007850D01*
X034282Y007888D01*
X034322Y007928D01*
X034360Y007972D01*
X034395Y008018D01*
X034427Y008066D01*
X034456Y008116D01*
X034481Y008168D01*
X034502Y008222D01*
X034520Y008277D01*
X034534Y008333D01*
X034544Y008390D01*
X034550Y008447D01*
X034550Y030637D01*
X034550Y030638D02*
X034544Y030695D01*
X034534Y030752D01*
X034520Y030808D01*
X034502Y030863D01*
X034481Y030917D01*
X034456Y030969D01*
X034427Y031019D01*
X034395Y031067D01*
X034360Y031113D01*
X034322Y031157D01*
X034282Y031197D01*
X034238Y031235D01*
X034192Y031270D01*
X034144Y031302D01*
X034094Y031331D01*
X034042Y031356D01*
X033988Y031377D01*
X033933Y031395D01*
X033877Y031409D01*
X033820Y031419D01*
X033763Y031425D01*
X033762Y031425D02*
X003736Y031425D01*
X003679Y031419D01*
X003622Y031409D01*
X003566Y031395D01*
X003511Y031377D01*
X003457Y031356D01*
X003405Y031331D01*
X003355Y031302D01*
X003307Y031270D01*
X003261Y031235D01*
X003217Y031197D01*
X003177Y031157D01*
X003139Y031113D01*
X003104Y031067D01*
X003072Y031019D01*
X003043Y030969D01*
X003018Y030917D01*
X002997Y030863D01*
X002979Y030808D01*
X002965Y030752D01*
X002955Y030695D01*
X002949Y030638D01*
X002949Y030637D02*
X002949Y008447D01*
X002955Y008390D01*
X002965Y008333D01*
X002979Y008277D01*
X002997Y008222D01*
X003018Y008168D01*
X003043Y008116D01*
X003072Y008066D01*
X003104Y008018D01*
X003139Y007972D01*
X003177Y007928D01*
X003217Y007888D01*
X003261Y007850D01*
X003307Y007815D01*
X003355Y007783D01*
X003405Y007754D01*
X003457Y007729D01*
X003511Y007708D01*
X003566Y007690D01*
X003622Y007676D01*
X003679Y007666D01*
X003736Y007660D01*
X004287Y009629D02*
X004289Y009679D01*
X004295Y009729D01*
X004305Y009778D01*
X004319Y009826D01*
X004336Y009873D01*
X004357Y009918D01*
X004382Y009962D01*
X004410Y010003D01*
X004442Y010042D01*
X004476Y010079D01*
X004513Y010113D01*
X004553Y010143D01*
X004595Y010170D01*
X004639Y010194D01*
X004685Y010215D01*
X004732Y010231D01*
X004780Y010244D01*
X004830Y010253D01*
X004879Y010258D01*
X004930Y010259D01*
X004980Y010256D01*
X005029Y010249D01*
X005078Y010238D01*
X005126Y010223D01*
X005172Y010205D01*
X005217Y010183D01*
X005260Y010157D01*
X005301Y010128D01*
X005340Y010096D01*
X005376Y010061D01*
X005408Y010023D01*
X005438Y009983D01*
X005465Y009940D01*
X005488Y009896D01*
X005507Y009850D01*
X005523Y009802D01*
X005535Y009753D01*
X005543Y009704D01*
X005547Y009654D01*
X005547Y009604D01*
X005543Y009554D01*
X005535Y009505D01*
X005523Y009456D01*
X005507Y009408D01*
X005488Y009362D01*
X005465Y009318D01*
X005438Y009275D01*
X005408Y009235D01*
X005376Y009197D01*
X005340Y009162D01*
X005301Y009130D01*
X005260Y009101D01*
X005217Y009075D01*
X005172Y009053D01*
X005126Y009035D01*
X005078Y009020D01*
X005029Y009009D01*
X004980Y009002D01*
X004930Y008999D01*
X004879Y009000D01*
X004830Y009005D01*
X004780Y009014D01*
X004732Y009027D01*
X004685Y009043D01*
X004639Y009064D01*
X004595Y009088D01*
X004553Y009115D01*
X004513Y009145D01*
X004476Y009179D01*
X004442Y009216D01*
X004410Y009255D01*
X004382Y009296D01*
X004357Y009340D01*
X004336Y009385D01*
X004319Y009432D01*
X004305Y009480D01*
X004295Y009529D01*
X004289Y009579D01*
X004287Y009629D01*
X004287Y029456D02*
X004289Y029506D01*
X004295Y029556D01*
X004305Y029605D01*
X004319Y029653D01*
X004336Y029700D01*
X004357Y029745D01*
X004382Y029789D01*
X004410Y029830D01*
X004442Y029869D01*
X004476Y029906D01*
X004513Y029940D01*
X004553Y029970D01*
X004595Y029997D01*
X004639Y030021D01*
X004685Y030042D01*
X004732Y030058D01*
X004780Y030071D01*
X004830Y030080D01*
X004879Y030085D01*
X004930Y030086D01*
X004980Y030083D01*
X005029Y030076D01*
X005078Y030065D01*
X005126Y030050D01*
X005172Y030032D01*
X005217Y030010D01*
X005260Y029984D01*
X005301Y029955D01*
X005340Y029923D01*
X005376Y029888D01*
X005408Y029850D01*
X005438Y029810D01*
X005465Y029767D01*
X005488Y029723D01*
X005507Y029677D01*
X005523Y029629D01*
X005535Y029580D01*
X005543Y029531D01*
X005547Y029481D01*
X005547Y029431D01*
X005543Y029381D01*
X005535Y029332D01*
X005523Y029283D01*
X005507Y029235D01*
X005488Y029189D01*
X005465Y029145D01*
X005438Y029102D01*
X005408Y029062D01*
X005376Y029024D01*
X005340Y028989D01*
X005301Y028957D01*
X005260Y028928D01*
X005217Y028902D01*
X005172Y028880D01*
X005126Y028862D01*
X005078Y028847D01*
X005029Y028836D01*
X004980Y028829D01*
X004930Y028826D01*
X004879Y028827D01*
X004830Y028832D01*
X004780Y028841D01*
X004732Y028854D01*
X004685Y028870D01*
X004639Y028891D01*
X004595Y028915D01*
X004553Y028942D01*
X004513Y028972D01*
X004476Y029006D01*
X004442Y029043D01*
X004410Y029082D01*
X004382Y029123D01*
X004357Y029167D01*
X004336Y029212D01*
X004319Y029259D01*
X004305Y029307D01*
X004295Y029356D01*
X004289Y029406D01*
X004287Y029456D01*
X031951Y029456D02*
X031953Y029506D01*
X031959Y029556D01*
X031969Y029605D01*
X031983Y029653D01*
X032000Y029700D01*
X032021Y029745D01*
X032046Y029789D01*
X032074Y029830D01*
X032106Y029869D01*
X032140Y029906D01*
X032177Y029940D01*
X032217Y029970D01*
X032259Y029997D01*
X032303Y030021D01*
X032349Y030042D01*
X032396Y030058D01*
X032444Y030071D01*
X032494Y030080D01*
X032543Y030085D01*
X032594Y030086D01*
X032644Y030083D01*
X032693Y030076D01*
X032742Y030065D01*
X032790Y030050D01*
X032836Y030032D01*
X032881Y030010D01*
X032924Y029984D01*
X032965Y029955D01*
X033004Y029923D01*
X033040Y029888D01*
X033072Y029850D01*
X033102Y029810D01*
X033129Y029767D01*
X033152Y029723D01*
X033171Y029677D01*
X033187Y029629D01*
X033199Y029580D01*
X033207Y029531D01*
X033211Y029481D01*
X033211Y029431D01*
X033207Y029381D01*
X033199Y029332D01*
X033187Y029283D01*
X033171Y029235D01*
X033152Y029189D01*
X033129Y029145D01*
X033102Y029102D01*
X033072Y029062D01*
X033040Y029024D01*
X033004Y028989D01*
X032965Y028957D01*
X032924Y028928D01*
X032881Y028902D01*
X032836Y028880D01*
X032790Y028862D01*
X032742Y028847D01*
X032693Y028836D01*
X032644Y028829D01*
X032594Y028826D01*
X032543Y028827D01*
X032494Y028832D01*
X032444Y028841D01*
X032396Y028854D01*
X032349Y028870D01*
X032303Y028891D01*
X032259Y028915D01*
X032217Y028942D01*
X032177Y028972D01*
X032140Y029006D01*
X032106Y029043D01*
X032074Y029082D01*
X032046Y029123D01*
X032021Y029167D01*
X032000Y029212D01*
X031983Y029259D01*
X031969Y029307D01*
X031959Y029356D01*
X031953Y029406D01*
X031951Y029456D01*
X031951Y009629D02*
X031953Y009679D01*
X031959Y009729D01*
X031969Y009778D01*
X031983Y009826D01*
X032000Y009873D01*
X032021Y009918D01*
X032046Y009962D01*
X032074Y010003D01*
X032106Y010042D01*
X032140Y010079D01*
X032177Y010113D01*
X032217Y010143D01*
X032259Y010170D01*
X032303Y010194D01*
X032349Y010215D01*
X032396Y010231D01*
X032444Y010244D01*
X032494Y010253D01*
X032543Y010258D01*
X032594Y010259D01*
X032644Y010256D01*
X032693Y010249D01*
X032742Y010238D01*
X032790Y010223D01*
X032836Y010205D01*
X032881Y010183D01*
X032924Y010157D01*
X032965Y010128D01*
X033004Y010096D01*
X033040Y010061D01*
X033072Y010023D01*
X033102Y009983D01*
X033129Y009940D01*
X033152Y009896D01*
X033171Y009850D01*
X033187Y009802D01*
X033199Y009753D01*
X033207Y009704D01*
X033211Y009654D01*
X033211Y009604D01*
X033207Y009554D01*
X033199Y009505D01*
X033187Y009456D01*
X033171Y009408D01*
X033152Y009362D01*
X033129Y009318D01*
X033102Y009275D01*
X033072Y009235D01*
X033040Y009197D01*
X033004Y009162D01*
X032965Y009130D01*
X032924Y009101D01*
X032881Y009075D01*
X032836Y009053D01*
X032790Y009035D01*
X032742Y009020D01*
X032693Y009009D01*
X032644Y009002D01*
X032594Y008999D01*
X032543Y009000D01*
X032494Y009005D01*
X032444Y009014D01*
X032396Y009027D01*
X032349Y009043D01*
X032303Y009064D01*
X032259Y009088D01*
X032217Y009115D01*
X032177Y009145D01*
X032140Y009179D01*
X032106Y009216D01*
X032074Y009255D01*
X032046Y009296D01*
X032021Y009340D01*
X032000Y009385D01*
X031983Y009432D01*
X031969Y009480D01*
X031959Y009529D01*
X031953Y009579D01*
X031951Y009629D01*
D11*
X029745Y009502D02*
X029745Y009012D01*
X029500Y009012D01*
X029418Y009094D01*
X029418Y009421D01*
X029500Y009502D01*
X029745Y009502D01*
X029230Y009257D02*
X029148Y009339D01*
X028985Y009339D01*
X028903Y009257D01*
X028903Y009175D01*
X029230Y009175D01*
X029230Y009094D02*
X029230Y009257D01*
X029230Y009094D02*
X029148Y009012D01*
X028985Y009012D01*
X028714Y009012D02*
X028469Y009012D01*
X028387Y009094D01*
X028469Y009175D01*
X028632Y009175D01*
X028714Y009257D01*
X028632Y009339D01*
X028387Y009339D01*
X028198Y009339D02*
X028117Y009339D01*
X028117Y009012D01*
X028198Y009012D02*
X028035Y009012D01*
X027855Y009094D02*
X027773Y009012D01*
X027528Y009012D01*
X027528Y008930D02*
X027528Y009339D01*
X027773Y009339D01*
X027855Y009257D01*
X027855Y009094D01*
X027691Y008848D02*
X027610Y008848D01*
X027528Y008930D01*
X027339Y009012D02*
X027339Y009339D01*
X027094Y009339D01*
X027012Y009257D01*
X027012Y009012D01*
X026922Y008499D02*
X026840Y008417D01*
X026840Y008254D01*
X026922Y008172D01*
X027167Y008172D01*
X027167Y008008D02*
X027167Y008499D01*
X026922Y008499D01*
X026652Y008417D02*
X026570Y008499D01*
X026406Y008499D01*
X026325Y008417D01*
X026325Y008335D01*
X026652Y008335D01*
X026652Y008254D02*
X026652Y008417D01*
X026652Y008254D02*
X026570Y008172D01*
X026406Y008172D01*
X026136Y008008D02*
X026054Y008008D01*
X025972Y008090D01*
X025972Y008499D01*
X025972Y008662D02*
X025972Y008744D01*
X025981Y009012D02*
X025981Y009502D01*
X026144Y009339D01*
X026308Y009502D01*
X026308Y009012D01*
X025792Y009094D02*
X025710Y009175D01*
X025465Y009175D01*
X025465Y009257D02*
X025465Y009012D01*
X025710Y009012D01*
X025792Y009094D01*
X025710Y009339D02*
X025547Y009339D01*
X025465Y009257D01*
X025277Y009257D02*
X025277Y009094D01*
X025195Y009012D01*
X024950Y009012D01*
X024761Y009094D02*
X024679Y009012D01*
X024516Y009012D01*
X024434Y009094D01*
X024434Y009257D01*
X024516Y009339D01*
X024679Y009339D01*
X024761Y009257D01*
X024761Y009094D01*
X024950Y009339D02*
X025195Y009339D01*
X025277Y009257D01*
X025195Y008744D02*
X025195Y008662D01*
X025195Y008499D02*
X025195Y008172D01*
X025277Y008172D02*
X025113Y008172D01*
X024933Y008254D02*
X024851Y008172D01*
X024606Y008172D01*
X024606Y008499D02*
X024851Y008499D01*
X024933Y008417D01*
X024933Y008254D01*
X025195Y008499D02*
X025277Y008499D01*
X025465Y008499D02*
X025710Y008499D01*
X025792Y008417D01*
X025792Y008254D01*
X025710Y008172D01*
X025465Y008172D01*
X024245Y009012D02*
X024082Y009012D01*
X024164Y009012D02*
X024164Y009502D01*
X024245Y009502D01*
X023820Y009339D02*
X023656Y009339D01*
X023575Y009257D01*
X023575Y009012D01*
X023820Y009012D01*
X023901Y009094D01*
X023820Y009175D01*
X023575Y009175D01*
X027356Y008417D02*
X027356Y008172D01*
X027356Y008417D02*
X027438Y008499D01*
X027683Y008499D01*
X027683Y008172D01*
X028387Y008254D02*
X028469Y008172D01*
X028714Y008172D01*
X028714Y008662D01*
X028469Y008662D01*
X028387Y008581D01*
X028387Y008499D01*
X028469Y008417D01*
X028714Y008417D01*
X028469Y008417D02*
X028387Y008335D01*
X028387Y008254D01*
X028903Y008254D02*
X028985Y008172D01*
X029148Y008172D01*
X029230Y008254D01*
X029230Y008581D01*
X029148Y008662D01*
X028985Y008662D01*
X028903Y008581D01*
X029418Y008581D02*
X029500Y008662D01*
X029745Y008662D01*
X029745Y008172D01*
X029745Y008335D02*
X029500Y008335D01*
X029418Y008417D01*
X029418Y008581D01*
X028117Y009502D02*
X028117Y009584D01*
D12*
X027889Y027380D03*
X027889Y027400D03*
X027889Y027420D03*
X027889Y027440D03*
X027889Y027460D03*
X027889Y027480D03*
X027889Y027500D03*
X027889Y027520D03*
X028669Y028560D03*
X028669Y029260D03*
X028669Y029280D03*
X027889Y030340D03*
X027889Y030360D03*
X027889Y030380D03*
X027889Y030400D03*
X027889Y030420D03*
X027889Y030440D03*
X027889Y030460D03*
X027889Y030480D03*
X027889Y030500D03*
D13*
X027999Y029960D03*
X029039Y028880D03*
X029019Y028860D03*
X029339Y028860D03*
X028639Y027560D03*
X028639Y027540D03*
X028239Y027780D03*
X026519Y029120D03*
X026519Y029140D03*
X026519Y029160D03*
X026519Y029180D03*
X026519Y029200D03*
X026519Y029220D03*
X026519Y029240D03*
X026519Y029260D03*
X026519Y029280D03*
X026519Y029300D03*
X026519Y029320D03*
X026519Y029340D03*
X026519Y029360D03*
X026519Y029380D03*
X026519Y029400D03*
X026519Y029420D03*
X026519Y029440D03*
X026519Y029460D03*
X026519Y029480D03*
X026519Y029500D03*
X026519Y029520D03*
X026519Y029540D03*
X026519Y029560D03*
X026519Y029580D03*
X026519Y029600D03*
X026519Y029620D03*
X026519Y029640D03*
X026519Y029660D03*
X026179Y029600D03*
X026159Y029580D03*
X026159Y029560D03*
X026159Y029540D03*
X026159Y029520D03*
X026159Y029280D03*
X026159Y029260D03*
X026159Y029240D03*
X026159Y029220D03*
X026159Y029200D03*
X026179Y029180D03*
X026179Y029160D03*
X025879Y029160D03*
X025879Y029180D03*
X025879Y029200D03*
X025879Y029220D03*
X025879Y029240D03*
X025879Y029260D03*
X025879Y029280D03*
X025879Y029300D03*
X025879Y029320D03*
X025879Y029340D03*
X025879Y029360D03*
X025879Y029380D03*
X025879Y029400D03*
X025879Y029420D03*
X025879Y029440D03*
X025879Y029460D03*
X025879Y029480D03*
X025879Y029500D03*
X025879Y029520D03*
X025879Y029540D03*
X025879Y029560D03*
X025879Y029580D03*
X025879Y029600D03*
X025879Y029620D03*
X025879Y029640D03*
X025879Y029660D03*
X025879Y029680D03*
X025879Y029700D03*
X025879Y029720D03*
X025879Y029740D03*
X025879Y029760D03*
X025879Y029780D03*
X025639Y029780D03*
X025619Y029740D03*
X025599Y029700D03*
X025599Y029680D03*
X025579Y029660D03*
X025579Y029640D03*
X025579Y029620D03*
X025559Y029600D03*
X025559Y029580D03*
X025539Y029560D03*
X025539Y029540D03*
X025519Y029500D03*
X025319Y029500D03*
X025299Y029540D03*
X025299Y029560D03*
X025279Y029580D03*
X025279Y029600D03*
X025259Y029620D03*
X025259Y029640D03*
X025259Y029660D03*
X025239Y029680D03*
X025239Y029700D03*
X025219Y029740D03*
X025199Y029780D03*
X025419Y029300D03*
X025419Y029280D03*
X025419Y029260D03*
X025419Y029240D03*
X025419Y029220D03*
X025419Y029200D03*
X025419Y029180D03*
X025419Y029160D03*
X025419Y029140D03*
X025419Y029120D03*
X025419Y029100D03*
X025419Y029080D03*
X025419Y029060D03*
X025419Y029040D03*
X025419Y029020D03*
X025419Y029000D03*
X025879Y029000D03*
X025879Y029020D03*
X025879Y029040D03*
X025879Y029060D03*
X025879Y029080D03*
X025879Y029100D03*
X025879Y029120D03*
X025879Y029140D03*
X025879Y028980D03*
X026059Y028420D03*
X025719Y028380D03*
X024139Y028980D03*
X024139Y029000D03*
X024139Y029020D03*
X024139Y029040D03*
X024139Y029060D03*
X024139Y029080D03*
X024139Y029100D03*
X024139Y029120D03*
X024139Y029140D03*
X024139Y029160D03*
X024139Y029180D03*
X024139Y029200D03*
X024139Y029220D03*
X024139Y029240D03*
X024139Y029260D03*
X024139Y029280D03*
X024139Y029300D03*
X024139Y029320D03*
X024139Y029340D03*
X024139Y029360D03*
X024139Y029380D03*
X024139Y029400D03*
X024139Y029420D03*
X024139Y029440D03*
X024139Y029460D03*
X024139Y029480D03*
X024139Y029500D03*
X024139Y029520D03*
X024139Y029540D03*
X024139Y029560D03*
X024139Y029580D03*
X024139Y029600D03*
X024139Y029620D03*
X024139Y029640D03*
X024139Y029660D03*
X024139Y029680D03*
X024139Y029700D03*
X024139Y029720D03*
X024139Y029740D03*
X024139Y029760D03*
X024139Y029780D03*
X024139Y029800D03*
X024139Y029820D03*
X024139Y029840D03*
X023859Y029440D03*
X023879Y029420D03*
X023879Y029400D03*
X023879Y029380D03*
X023879Y029360D03*
X023879Y029340D03*
X023879Y029220D03*
X023879Y029200D03*
X023879Y029180D03*
X023879Y029160D03*
X023719Y028980D03*
X023599Y029340D03*
X023599Y029420D03*
X023599Y029440D03*
X023619Y029460D03*
X023359Y029420D03*
X023359Y029400D03*
X023359Y029380D03*
X023359Y029360D03*
X023339Y029440D03*
X023359Y029200D03*
X023359Y029180D03*
X023359Y029160D03*
X023359Y029140D03*
X023339Y029120D03*
X023079Y029120D03*
X022799Y029120D03*
X022799Y029140D03*
X022799Y029160D03*
X022799Y029180D03*
X022799Y029200D03*
X022799Y029220D03*
X022799Y029240D03*
X022799Y029260D03*
X022799Y029280D03*
X022799Y029300D03*
X022799Y029320D03*
X022799Y029340D03*
X022799Y029360D03*
X022799Y029380D03*
X022799Y029400D03*
X022799Y029420D03*
X022799Y029440D03*
X022799Y029460D03*
X022799Y029600D03*
X022799Y029620D03*
X022799Y029640D03*
X022799Y029660D03*
X022799Y029680D03*
X022799Y029700D03*
X022799Y029720D03*
X023079Y029440D03*
X022459Y029420D03*
X022139Y029340D03*
X022139Y029320D03*
X022139Y029300D03*
X022139Y029280D03*
X022139Y029260D03*
X022139Y029240D03*
X022119Y029160D03*
X022119Y029140D03*
X022119Y029400D03*
X022119Y029420D03*
X021819Y029420D03*
X021819Y029440D03*
X021799Y029380D03*
X021799Y029360D03*
X021799Y029340D03*
X021799Y029320D03*
X021799Y029300D03*
X021799Y029280D03*
X021799Y029260D03*
X021799Y029240D03*
X021799Y029220D03*
X021799Y029200D03*
X021799Y029180D03*
X021819Y029140D03*
X021819Y029120D03*
X021559Y029120D03*
X021559Y029140D03*
X021559Y029160D03*
X021559Y029180D03*
X021559Y029200D03*
X021559Y029220D03*
X021559Y029240D03*
X021559Y029260D03*
X021559Y029280D03*
X021559Y029300D03*
X021559Y029320D03*
X021559Y029340D03*
X021559Y029360D03*
X021559Y029380D03*
X021559Y029400D03*
X021559Y029420D03*
X021559Y029440D03*
X021559Y029520D03*
X021559Y029540D03*
X021559Y029560D03*
X021259Y029420D03*
X021259Y029400D03*
X021259Y029380D03*
X021259Y029360D03*
X021259Y029340D03*
X021259Y029320D03*
X021259Y029300D03*
X021259Y029280D03*
X021259Y029260D03*
X021259Y029240D03*
X021259Y029220D03*
X021259Y029200D03*
X021259Y029180D03*
X021259Y029160D03*
X021259Y029140D03*
X021259Y029120D03*
X021259Y029100D03*
X021259Y029080D03*
X021259Y029060D03*
X021259Y029040D03*
X021259Y029020D03*
X021259Y029000D03*
X020979Y029000D03*
X020979Y029020D03*
X020979Y029040D03*
X020979Y029060D03*
X020979Y029080D03*
X020979Y029100D03*
X020979Y029120D03*
X020979Y029140D03*
X020979Y029160D03*
X020979Y029180D03*
X020979Y029200D03*
X020979Y029220D03*
X020979Y029240D03*
X020979Y029260D03*
X020979Y029280D03*
X020979Y029300D03*
X020979Y029320D03*
X020979Y029340D03*
X020979Y029360D03*
X020979Y029380D03*
X020979Y029400D03*
X020979Y029420D03*
X020979Y029440D03*
X020979Y029460D03*
X020979Y029480D03*
X020979Y029500D03*
X020979Y029520D03*
X020979Y029540D03*
X020979Y029560D03*
X020979Y029580D03*
X020979Y029740D03*
X020979Y029760D03*
X020979Y029780D03*
X020979Y029800D03*
X020979Y029820D03*
X020979Y029840D03*
X020719Y029440D03*
X020719Y029420D03*
X020739Y029380D03*
X020739Y029360D03*
X020739Y029340D03*
X020739Y029320D03*
X020739Y029300D03*
X020739Y029280D03*
X020739Y029260D03*
X020739Y029240D03*
X020739Y029220D03*
X020739Y029200D03*
X020739Y029180D03*
X020719Y029140D03*
X020719Y029120D03*
X020579Y028980D03*
X020459Y029100D03*
X020439Y029140D03*
X020439Y029160D03*
X020439Y029400D03*
X020459Y029460D03*
X020579Y029580D03*
X020979Y028980D03*
X021559Y029000D03*
X021559Y029020D03*
X021559Y029040D03*
X021559Y029060D03*
X021559Y029080D03*
X021559Y029100D03*
X019959Y029140D03*
X019959Y029160D03*
X019959Y029180D03*
X019959Y029200D03*
X019959Y029220D03*
X019959Y029240D03*
X019959Y029260D03*
X019959Y029280D03*
X019959Y029300D03*
X019959Y029320D03*
X019959Y029340D03*
X019959Y029360D03*
X019959Y029380D03*
X019959Y029400D03*
X019959Y029420D03*
X019959Y029540D03*
X019959Y029560D03*
X019959Y029580D03*
X019659Y029440D03*
X019659Y029420D03*
X019639Y029400D03*
X019639Y029380D03*
X019639Y029360D03*
X019639Y029340D03*
X019639Y029320D03*
X019639Y029300D03*
X019639Y029280D03*
X019639Y029260D03*
X019639Y029240D03*
X019639Y029220D03*
X019639Y029200D03*
X019639Y029180D03*
X019639Y029160D03*
X019659Y029140D03*
X019659Y029120D03*
X019399Y029120D03*
X019399Y029140D03*
X019399Y029160D03*
X019399Y029180D03*
X019399Y029200D03*
X019399Y029220D03*
X019399Y029240D03*
X019399Y029260D03*
X019399Y029280D03*
X019399Y029300D03*
X019399Y029320D03*
X019399Y029340D03*
X019399Y029360D03*
X019399Y029380D03*
X019399Y029400D03*
X019399Y029520D03*
X019399Y029540D03*
X019399Y029560D03*
X019399Y029580D03*
X019039Y029440D03*
X019039Y029420D03*
X019039Y029400D03*
X019059Y029380D03*
X019059Y029360D03*
X019059Y029340D03*
X019059Y029320D03*
X019059Y029300D03*
X019059Y029280D03*
X019059Y029260D03*
X019059Y029240D03*
X019059Y029220D03*
X019059Y029200D03*
X019039Y029160D03*
X019039Y029140D03*
X018739Y029140D03*
X018739Y029160D03*
X018719Y029180D03*
X018719Y029200D03*
X018719Y029220D03*
X018719Y029240D03*
X018719Y029260D03*
X018719Y029280D03*
X018719Y029300D03*
X018719Y029320D03*
X018719Y029340D03*
X018719Y029360D03*
X018719Y029380D03*
X018739Y029420D03*
X018759Y029460D03*
X018459Y029460D03*
X018459Y029480D03*
X018459Y029500D03*
X018459Y029520D03*
X018459Y029540D03*
X018459Y029560D03*
X018459Y029440D03*
X018459Y029420D03*
X018459Y029400D03*
X018459Y029380D03*
X018459Y029360D03*
X018459Y029340D03*
X018459Y029320D03*
X018459Y029300D03*
X018459Y029280D03*
X018459Y029260D03*
X018459Y029240D03*
X018459Y029220D03*
X018459Y029200D03*
X018459Y029180D03*
X018459Y029160D03*
X018459Y029140D03*
X018459Y029120D03*
X018459Y029100D03*
X018459Y029080D03*
X018459Y029060D03*
X018459Y029040D03*
X018459Y029020D03*
X018459Y029000D03*
X018459Y028980D03*
X018459Y028960D03*
X018479Y028900D03*
X018479Y028880D03*
X018559Y028760D03*
X018559Y028420D03*
X018299Y028380D03*
X018919Y028300D03*
X018919Y028280D03*
X018919Y028260D03*
X019399Y029000D03*
X019399Y029020D03*
X019399Y029040D03*
X019399Y029060D03*
X019399Y029080D03*
X019399Y029100D03*
X019959Y029020D03*
X019959Y029000D03*
X019959Y028980D03*
X019959Y028960D03*
X019959Y028940D03*
X019959Y028920D03*
X019959Y028900D03*
X019959Y028880D03*
X019959Y028860D03*
X019959Y028840D03*
X019959Y028820D03*
X019959Y028800D03*
X019959Y028780D03*
X019959Y028760D03*
X018479Y029740D03*
X018479Y029760D03*
X018479Y029780D03*
X018479Y029800D03*
X018479Y029820D03*
X018479Y029840D03*
X018179Y029460D03*
X018199Y029440D03*
X018199Y029420D03*
X018219Y029380D03*
X018219Y029360D03*
X018219Y029220D03*
X018219Y029200D03*
X018199Y029160D03*
X018199Y029140D03*
X018039Y028980D03*
X017919Y029340D03*
X017919Y029360D03*
X017919Y029380D03*
X017919Y029400D03*
X017919Y029420D03*
X017939Y029460D03*
X018059Y029580D03*
X017679Y029440D03*
X017679Y029420D03*
X017699Y029380D03*
X017699Y029360D03*
X017699Y029340D03*
X017699Y029320D03*
X017699Y029300D03*
X017699Y029280D03*
X017699Y029260D03*
X017699Y029240D03*
X017699Y029220D03*
X017699Y029200D03*
X017699Y029180D03*
X017679Y029160D03*
X017679Y029140D03*
X017679Y029120D03*
X017539Y028980D03*
X017419Y029100D03*
X017399Y029140D03*
X017139Y029160D03*
X017139Y029180D03*
X017139Y029200D03*
X017139Y029220D03*
X017139Y029240D03*
X017139Y029260D03*
X017139Y029280D03*
X017139Y029300D03*
X017139Y029320D03*
X017139Y029340D03*
X017139Y029360D03*
X017139Y029380D03*
X017139Y029400D03*
X017139Y029420D03*
X017139Y029440D03*
X017139Y029460D03*
X017139Y029600D03*
X017139Y029620D03*
X017139Y029640D03*
X017139Y029660D03*
X017139Y029680D03*
X017139Y029700D03*
X017139Y029720D03*
X017419Y029460D03*
X017659Y029460D03*
X017119Y029120D03*
X017119Y029100D03*
X016819Y029100D03*
X016679Y028980D03*
X016539Y029100D03*
X016539Y029120D03*
X016539Y029140D03*
X016539Y029160D03*
X016539Y029420D03*
X016539Y029440D03*
X016559Y029460D03*
X016799Y029480D03*
X016819Y029440D03*
X016819Y029420D03*
X016799Y029380D03*
X017039Y028300D03*
X017039Y028260D03*
X023559Y028380D03*
D14*
X027769Y027540D03*
X028669Y028360D03*
D15*
X027719Y027560D03*
D16*
X028649Y027580D03*
X028649Y027600D03*
X028649Y027620D03*
X028449Y030120D03*
X026149Y029500D03*
X026149Y029480D03*
X026149Y029460D03*
X026149Y029440D03*
X026149Y029420D03*
X026149Y029400D03*
X026149Y029380D03*
X026149Y029360D03*
X026149Y029340D03*
X026149Y029320D03*
X026149Y029300D03*
X025529Y029520D03*
X025509Y029480D03*
X025329Y029480D03*
X025309Y029520D03*
X024709Y029520D03*
X024709Y029540D03*
X024709Y029560D03*
X024709Y029580D03*
X024709Y029600D03*
X024709Y029620D03*
X024709Y029640D03*
X024709Y029660D03*
X024709Y029500D03*
X024709Y029480D03*
X024709Y029320D03*
X024709Y029300D03*
X024709Y029280D03*
X024709Y029260D03*
X024709Y029240D03*
X024709Y029220D03*
X024709Y029200D03*
X024709Y029180D03*
X024709Y029160D03*
X024709Y029140D03*
X024709Y029120D03*
X024749Y028420D03*
X025409Y028080D03*
X026069Y028080D03*
X023589Y029360D03*
X023589Y029380D03*
X023589Y029400D03*
X023369Y029340D03*
X023369Y029320D03*
X023369Y029300D03*
X023369Y029280D03*
X023369Y029260D03*
X023369Y029240D03*
X023369Y029220D03*
X023209Y028980D03*
X023069Y029140D03*
X023069Y029160D03*
X023069Y029180D03*
X023069Y029380D03*
X023069Y029400D03*
X023069Y029420D03*
X022709Y028980D03*
X022469Y029000D03*
X022469Y029020D03*
X022469Y029040D03*
X022469Y029060D03*
X022469Y029080D03*
X022469Y029100D03*
X022469Y029120D03*
X022469Y029140D03*
X022469Y029160D03*
X022469Y029180D03*
X022469Y029200D03*
X022469Y029220D03*
X022469Y029240D03*
X022469Y029260D03*
X022469Y029280D03*
X022469Y029300D03*
X022469Y029320D03*
X022469Y029340D03*
X022469Y029360D03*
X022469Y029380D03*
X022469Y029400D03*
X022469Y029520D03*
X022469Y029540D03*
X022469Y029560D03*
X022469Y029580D03*
X022129Y029380D03*
X022129Y029360D03*
X022129Y029220D03*
X022129Y029200D03*
X022129Y029180D03*
X021969Y028980D03*
X021809Y029160D03*
X021809Y029400D03*
X021569Y029580D03*
X021329Y029580D03*
X020729Y029400D03*
X020729Y029160D03*
X020449Y029120D03*
X020429Y029180D03*
X020429Y029380D03*
X020449Y029420D03*
X020449Y029440D03*
X019749Y029580D03*
X019049Y029180D03*
X018889Y028980D03*
X018469Y028940D03*
X018469Y028920D03*
X018209Y029180D03*
X018209Y029400D03*
X017929Y029440D03*
X017689Y029400D03*
X017409Y029420D03*
X017409Y029440D03*
X017389Y029400D03*
X017389Y029380D03*
X017389Y029180D03*
X017389Y029160D03*
X017409Y029120D03*
X017129Y029140D03*
X017049Y028980D03*
X016829Y029120D03*
X016829Y029140D03*
X016829Y029160D03*
X016809Y029400D03*
X016809Y029460D03*
X016609Y028420D03*
X016609Y028080D03*
X017049Y028280D03*
X017549Y028420D03*
X017969Y028420D03*
X018729Y029400D03*
X018469Y029580D03*
X019249Y028420D03*
X019249Y028080D03*
X019829Y028080D03*
X019829Y028420D03*
X020649Y028420D03*
X020649Y028080D03*
X021449Y028080D03*
X021449Y028420D03*
X022009Y028420D03*
X022429Y028420D03*
X022429Y028080D03*
X022809Y028420D03*
D17*
X027699Y027660D03*
X027699Y027640D03*
X027699Y027620D03*
X027699Y027600D03*
X027699Y027580D03*
X028639Y029540D03*
D18*
X028659Y029880D03*
X027819Y028040D03*
X028659Y027960D03*
X028659Y027660D03*
X028659Y027640D03*
X024979Y028420D03*
X024879Y028360D03*
X023899Y028420D03*
X023899Y028080D03*
X023039Y028420D03*
X022939Y028360D03*
X022319Y029520D03*
X022319Y029540D03*
X021039Y028420D03*
X019239Y029520D03*
X019239Y029540D03*
X017979Y028080D03*
D19*
X018069Y028140D03*
X018329Y028360D03*
X018549Y028120D03*
X018529Y028100D03*
X018809Y028360D03*
X018829Y028340D03*
X019529Y028120D03*
X019749Y028980D03*
X019229Y029560D03*
X016929Y028360D03*
X016909Y028380D03*
X021769Y028000D03*
X021789Y027980D03*
X022509Y028140D03*
X023589Y028360D03*
X024009Y028360D03*
X024009Y028140D03*
X023589Y029100D03*
X022309Y029560D03*
X025749Y028360D03*
X027649Y029600D03*
X027989Y029940D03*
X028229Y027800D03*
X028669Y027700D03*
X028669Y027680D03*
D20*
X028579Y028000D03*
X028199Y027680D03*
X028339Y028760D03*
X028339Y028780D03*
X028339Y028800D03*
X028339Y028820D03*
X028379Y028920D03*
X028379Y028940D03*
X028379Y028960D03*
X028379Y028980D03*
X028379Y029000D03*
X028719Y028980D03*
X028719Y028960D03*
X028719Y028940D03*
X028719Y028920D03*
X028719Y028900D03*
X028999Y028780D03*
X028999Y028760D03*
X028999Y028740D03*
X028999Y028720D03*
X028999Y028700D03*
X029039Y028960D03*
X029039Y028980D03*
X029039Y029000D03*
X029039Y029020D03*
X029039Y029040D03*
X029319Y028820D03*
X029319Y028800D03*
X029319Y028780D03*
X029319Y028760D03*
X029319Y028740D03*
X028579Y029840D03*
X028439Y030240D03*
X028439Y030260D03*
X027979Y030020D03*
X027199Y028920D03*
X027199Y028640D03*
X027199Y028600D03*
X027199Y028580D03*
X027199Y028560D03*
X027199Y028540D03*
X026419Y028540D03*
X025419Y029400D03*
X025419Y029420D03*
X023919Y028380D03*
X023919Y028120D03*
X022439Y028240D03*
X022039Y028380D03*
X021459Y028240D03*
X021059Y028380D03*
X022399Y029460D03*
X022399Y029480D03*
X022399Y029500D03*
X019259Y028240D03*
X018039Y029000D03*
X017539Y029020D03*
X017579Y028380D03*
X016679Y029280D03*
X016699Y029300D03*
D21*
X027549Y027680D03*
X028609Y029660D03*
D22*
X028449Y030220D03*
X027989Y030000D03*
X029049Y028940D03*
X029049Y028920D03*
X028989Y028820D03*
X028989Y028800D03*
X029369Y028900D03*
X029369Y028920D03*
X028209Y027700D03*
X027189Y028620D03*
X026409Y028580D03*
X025009Y028400D03*
X023929Y028400D03*
X023069Y028400D03*
X023709Y029000D03*
X023729Y029560D03*
X023209Y029560D03*
X021969Y029560D03*
X021969Y029000D03*
X021329Y029520D03*
X021069Y028400D03*
X020649Y028120D03*
X019829Y028120D03*
X018889Y029000D03*
X018889Y029560D03*
X017589Y028400D03*
X016609Y028120D03*
X016689Y029000D03*
X016649Y029260D03*
X022049Y028400D03*
D23*
X027539Y027700D03*
X029039Y029060D03*
D24*
X028679Y027720D03*
X026519Y028360D03*
X026179Y028320D03*
X026159Y028360D03*
X026179Y028180D03*
X026159Y028140D03*
X025959Y028140D03*
X025939Y028320D03*
X025959Y028360D03*
X025759Y028340D03*
X025759Y028320D03*
X025659Y028420D03*
X025499Y028160D03*
X025479Y028140D03*
X025299Y028140D03*
X025099Y028340D03*
X025099Y028360D03*
X024879Y028340D03*
X024879Y028320D03*
X024879Y028300D03*
X024879Y028280D03*
X024879Y028260D03*
X024879Y028240D03*
X024879Y028220D03*
X024879Y028200D03*
X024879Y028180D03*
X024879Y028160D03*
X024879Y028140D03*
X024879Y028120D03*
X024659Y028360D03*
X024019Y028340D03*
X024019Y028180D03*
X024019Y028160D03*
X023819Y028140D03*
X023799Y028160D03*
X023779Y028240D03*
X023779Y028260D03*
X023799Y028340D03*
X023819Y028360D03*
X023599Y028340D03*
X023499Y028420D03*
X023159Y028360D03*
X023159Y028340D03*
X022939Y028340D03*
X022939Y028320D03*
X022939Y028300D03*
X022719Y028360D03*
X022519Y028360D03*
X022319Y028340D03*
X022139Y028340D03*
X022139Y028360D03*
X021919Y028340D03*
X021739Y028520D03*
X021559Y028160D03*
X021539Y028140D03*
X021359Y028360D03*
X021159Y028360D03*
X021159Y028340D03*
X020959Y028360D03*
X020939Y028320D03*
X020939Y028300D03*
X020779Y028220D03*
X020759Y028160D03*
X020739Y028140D03*
X020559Y028360D03*
X019939Y028160D03*
X019919Y028140D03*
X019719Y028320D03*
X019739Y028360D03*
X019519Y028100D03*
X019359Y028160D03*
X019339Y028140D03*
X019139Y028340D03*
X019159Y028360D03*
X018859Y028320D03*
X018779Y028380D03*
X018759Y028400D03*
X018579Y028360D03*
X018339Y028340D03*
X018239Y028420D03*
X018079Y028360D03*
X018099Y028320D03*
X018099Y028180D03*
X017879Y028140D03*
X017879Y028360D03*
X017679Y028360D03*
X017679Y028340D03*
X017679Y028320D03*
X017459Y028340D03*
X017279Y028520D03*
X016979Y028320D03*
X016959Y028340D03*
X016959Y028220D03*
X016959Y028200D03*
X016939Y028180D03*
X016919Y028160D03*
X016899Y028140D03*
X016879Y028100D03*
X016719Y028160D03*
X016699Y028140D03*
X016519Y028360D03*
X017919Y029100D03*
X018819Y028200D03*
X018819Y028180D03*
X018799Y028160D03*
X018779Y028140D03*
X018759Y028120D03*
X018839Y028220D03*
X019219Y029580D03*
X021799Y027960D03*
X022299Y029580D03*
D25*
X022759Y029080D03*
X023219Y029000D03*
X022419Y028380D03*
X022419Y028120D03*
X021439Y028120D03*
X020659Y028380D03*
X020579Y029000D03*
X020579Y029560D03*
X021339Y029540D03*
X019739Y029540D03*
X019839Y028380D03*
X019239Y028380D03*
X019239Y028120D03*
X017979Y028120D03*
X017979Y028380D03*
X017539Y029000D03*
X017079Y029060D03*
X017079Y029080D03*
X016739Y029320D03*
X016619Y029240D03*
X016679Y029560D03*
X017539Y029560D03*
X018059Y029560D03*
X016619Y028380D03*
X023939Y028100D03*
X025399Y028120D03*
X026059Y028120D03*
X026059Y028380D03*
X026439Y028340D03*
X026439Y028320D03*
X027179Y028940D03*
X027179Y028960D03*
X027179Y028980D03*
X027179Y029000D03*
X027179Y029020D03*
X027179Y029040D03*
X027179Y029060D03*
X027179Y029080D03*
X027179Y029100D03*
X027179Y029120D03*
X027179Y029140D03*
X027799Y028000D03*
X028219Y027720D03*
X029039Y028900D03*
X028439Y030200D03*
X025419Y029380D03*
X025419Y029360D03*
D26*
X027519Y027720D03*
D27*
X028229Y027740D03*
X026449Y028300D03*
X027989Y029980D03*
X028449Y030180D03*
X028609Y029860D03*
X022749Y029060D03*
X022749Y029040D03*
X021449Y028380D03*
X020649Y028100D03*
X019749Y029020D03*
X019369Y029440D03*
X018529Y028840D03*
X018529Y028820D03*
X017069Y029020D03*
X017069Y029040D03*
X016769Y029340D03*
X016589Y029220D03*
X016609Y028100D03*
D28*
X027499Y027980D03*
X027499Y027960D03*
X027499Y027940D03*
X027499Y027740D03*
D29*
X028239Y027760D03*
X028619Y027980D03*
X028699Y028820D03*
X028699Y028840D03*
X028359Y028840D03*
X029359Y028840D03*
X028459Y030140D03*
X028459Y030160D03*
X026219Y029660D03*
X025419Y029340D03*
X025419Y029320D03*
X026059Y028400D03*
X026059Y028100D03*
X025399Y028100D03*
X024759Y028400D03*
X023839Y029100D03*
X022739Y029020D03*
X022719Y029000D03*
X022439Y029440D03*
X021539Y029460D03*
X021339Y029560D03*
X021439Y028400D03*
X021439Y028100D03*
X020659Y028400D03*
X019819Y028100D03*
X019239Y028100D03*
X019239Y028400D03*
X018539Y028800D03*
X018499Y028860D03*
X018159Y029100D03*
X017979Y028400D03*
X017979Y028100D03*
X017059Y029000D03*
X016679Y029580D03*
X016619Y028400D03*
X019939Y029100D03*
X019939Y029460D03*
X022419Y028400D03*
X022419Y028100D03*
X022819Y028400D03*
D30*
X027489Y027920D03*
X027489Y027900D03*
X027489Y027760D03*
X028609Y028140D03*
D31*
X027469Y027820D03*
X027469Y027800D03*
X027469Y027780D03*
D32*
X027569Y028440D03*
X028169Y028800D03*
X028169Y028820D03*
X028169Y028840D03*
X028169Y028860D03*
X028209Y028920D03*
X028489Y028840D03*
X028549Y028880D03*
X028549Y028900D03*
X028549Y028920D03*
X028549Y028940D03*
X028549Y028960D03*
X028829Y028880D03*
X028829Y028860D03*
X028829Y028840D03*
X028829Y028820D03*
X028889Y028860D03*
X028889Y028880D03*
X028889Y028900D03*
X028889Y028920D03*
X028889Y028940D03*
X029149Y028880D03*
X029149Y028860D03*
X029149Y028840D03*
X029149Y028820D03*
X029149Y028800D03*
X029209Y028880D03*
X029209Y028900D03*
X029209Y028920D03*
X029489Y028880D03*
X029489Y028860D03*
X029489Y028840D03*
X029489Y028820D03*
X029489Y028800D03*
X029529Y028920D03*
X029569Y028920D03*
X029569Y028940D03*
X029569Y028960D03*
X029569Y028980D03*
X029569Y029000D03*
X029569Y029020D03*
X028209Y027820D03*
X025769Y028080D03*
X025109Y028080D03*
X024649Y028080D03*
X023569Y029120D03*
X023169Y028080D03*
X022709Y028080D03*
X022309Y028160D03*
X022149Y028080D03*
X018629Y028860D03*
X018569Y028520D03*
X017689Y028080D03*
D33*
X027479Y027880D03*
X027479Y027860D03*
X027479Y027840D03*
D34*
X026539Y028080D03*
X025759Y028420D03*
X025279Y028420D03*
X025099Y028420D03*
X024879Y028100D03*
X024879Y028080D03*
X024039Y027940D03*
X023619Y028080D03*
X023359Y028080D03*
X023159Y028420D03*
X022939Y028100D03*
X022939Y028080D03*
X023619Y028420D03*
X022139Y028420D03*
X021739Y028420D03*
X021739Y028500D03*
X021739Y028540D03*
X021919Y028080D03*
X021179Y028080D03*
X020939Y028080D03*
X019559Y028600D03*
X018979Y028080D03*
X018759Y028080D03*
X018759Y028420D03*
X018579Y028500D03*
X018359Y028080D03*
X017679Y028420D03*
X017279Y028420D03*
X017279Y028500D03*
X017099Y028600D03*
X016879Y028420D03*
X016879Y028080D03*
X017099Y028080D03*
X017279Y028080D03*
X017459Y028080D03*
X017899Y029120D03*
X028159Y028880D03*
X028219Y028880D03*
X028219Y028860D03*
X028219Y028840D03*
X028499Y028860D03*
X028499Y028880D03*
X028559Y028860D03*
X028559Y028840D03*
X028559Y028820D03*
X028879Y028840D03*
X029199Y028840D03*
X029199Y028860D03*
X029539Y028860D03*
X029539Y028880D03*
X029539Y028840D03*
X029519Y028660D03*
X029559Y029040D03*
X029559Y029060D03*
D35*
X029549Y028900D03*
X029549Y028820D03*
X029549Y028800D03*
X029549Y028780D03*
X029549Y028760D03*
X029529Y028740D03*
X029529Y028720D03*
X029529Y028700D03*
X029529Y028680D03*
X027989Y029920D03*
X027829Y028060D03*
X026529Y028100D03*
X026529Y028120D03*
X026529Y028140D03*
X026529Y028160D03*
X026529Y028180D03*
X026529Y028200D03*
X026529Y028220D03*
X026529Y028240D03*
X026529Y028260D03*
X026529Y028280D03*
X026529Y028380D03*
X026529Y028400D03*
X026529Y028420D03*
X026529Y028440D03*
X026529Y028460D03*
X026529Y028480D03*
X026529Y028500D03*
X026529Y028520D03*
X026169Y028340D03*
X026189Y028300D03*
X026189Y028280D03*
X026189Y028260D03*
X026189Y028240D03*
X026189Y028220D03*
X026189Y028200D03*
X026169Y028160D03*
X025949Y028160D03*
X025929Y028180D03*
X025929Y028200D03*
X025929Y028220D03*
X025929Y028240D03*
X025929Y028260D03*
X025929Y028280D03*
X025929Y028300D03*
X025949Y028340D03*
X025769Y028300D03*
X025769Y028280D03*
X025769Y028260D03*
X025769Y028240D03*
X025769Y028220D03*
X025769Y028200D03*
X025769Y028180D03*
X025769Y028160D03*
X025769Y028140D03*
X025769Y028120D03*
X025769Y028100D03*
X025509Y028180D03*
X025509Y028200D03*
X025509Y028220D03*
X025509Y028240D03*
X025509Y028260D03*
X025509Y028280D03*
X025509Y028300D03*
X025509Y028320D03*
X025509Y028340D03*
X025509Y028360D03*
X025509Y028380D03*
X025509Y028400D03*
X025509Y028420D03*
X025289Y028400D03*
X025289Y028380D03*
X025289Y028360D03*
X025289Y028340D03*
X025289Y028320D03*
X025289Y028300D03*
X025289Y028280D03*
X025289Y028260D03*
X025289Y028240D03*
X025289Y028220D03*
X025289Y028200D03*
X025289Y028180D03*
X025289Y028160D03*
X025109Y028160D03*
X025109Y028180D03*
X025109Y028200D03*
X025109Y028220D03*
X025109Y028240D03*
X025109Y028260D03*
X025109Y028280D03*
X025109Y028300D03*
X025109Y028320D03*
X025109Y028140D03*
X025109Y028120D03*
X025109Y028100D03*
X024649Y028100D03*
X024649Y028120D03*
X024649Y028140D03*
X024649Y028160D03*
X024649Y028180D03*
X024649Y028200D03*
X024649Y028220D03*
X024649Y028240D03*
X024649Y028260D03*
X024649Y028280D03*
X024649Y028300D03*
X024649Y028320D03*
X024649Y028340D03*
X024029Y028320D03*
X024029Y028300D03*
X024029Y028280D03*
X024029Y028260D03*
X024029Y028240D03*
X024029Y028220D03*
X024029Y028200D03*
X024029Y028080D03*
X024029Y028060D03*
X024029Y028040D03*
X024029Y028020D03*
X024029Y028000D03*
X024029Y027980D03*
X024029Y027960D03*
X023789Y028180D03*
X023789Y028200D03*
X023789Y028220D03*
X023789Y028280D03*
X023789Y028300D03*
X023789Y028320D03*
X023609Y028320D03*
X023609Y028300D03*
X023609Y028280D03*
X023609Y028260D03*
X023609Y028240D03*
X023609Y028220D03*
X023609Y028200D03*
X023609Y028180D03*
X023609Y028160D03*
X023609Y028140D03*
X023609Y028120D03*
X023609Y028100D03*
X023349Y028100D03*
X023349Y028120D03*
X023349Y028140D03*
X023349Y028160D03*
X023349Y028180D03*
X023349Y028200D03*
X023349Y028220D03*
X023349Y028240D03*
X023349Y028260D03*
X023349Y028280D03*
X023349Y028300D03*
X023349Y028320D03*
X023349Y028340D03*
X023349Y028360D03*
X023349Y028380D03*
X023349Y028400D03*
X023349Y028420D03*
X023349Y028500D03*
X023349Y028520D03*
X023349Y028540D03*
X023169Y028320D03*
X023169Y028300D03*
X023169Y028280D03*
X023169Y028260D03*
X023169Y028240D03*
X023169Y028220D03*
X023169Y028200D03*
X023169Y028180D03*
X023169Y028160D03*
X023169Y028140D03*
X023169Y028120D03*
X023169Y028100D03*
X022929Y028120D03*
X022929Y028140D03*
X022929Y028160D03*
X022929Y028180D03*
X022929Y028200D03*
X022929Y028220D03*
X022929Y028240D03*
X022929Y028260D03*
X022929Y028280D03*
X022709Y028280D03*
X022709Y028300D03*
X022709Y028320D03*
X022709Y028340D03*
X022709Y028260D03*
X022709Y028240D03*
X022709Y028220D03*
X022709Y028200D03*
X022709Y028180D03*
X022709Y028160D03*
X022709Y028140D03*
X022709Y028120D03*
X022709Y028100D03*
X022549Y028180D03*
X022549Y028200D03*
X022549Y028220D03*
X022529Y028160D03*
X022549Y028300D03*
X022549Y028320D03*
X022529Y028340D03*
X022329Y028360D03*
X022309Y028320D03*
X022309Y028300D03*
X022149Y028300D03*
X022149Y028320D03*
X022149Y028280D03*
X022149Y028260D03*
X022149Y028240D03*
X022149Y028220D03*
X022149Y028200D03*
X022149Y028180D03*
X022149Y028160D03*
X022149Y028140D03*
X022149Y028120D03*
X022149Y028100D03*
X022329Y028140D03*
X021909Y028140D03*
X021909Y028160D03*
X021909Y028180D03*
X021909Y028200D03*
X021909Y028220D03*
X021909Y028240D03*
X021909Y028260D03*
X021909Y028280D03*
X021909Y028300D03*
X021909Y028320D03*
X021929Y028360D03*
X021729Y028360D03*
X021729Y028380D03*
X021729Y028400D03*
X021729Y028340D03*
X021729Y028320D03*
X021729Y028300D03*
X021729Y028280D03*
X021729Y028260D03*
X021729Y028240D03*
X021729Y028220D03*
X021729Y028200D03*
X021729Y028180D03*
X021729Y028160D03*
X021729Y028140D03*
X021729Y028120D03*
X021729Y028100D03*
X021729Y028080D03*
X021729Y028060D03*
X021749Y028040D03*
X021749Y028020D03*
X021909Y028100D03*
X021909Y028120D03*
X021569Y028180D03*
X021569Y028200D03*
X021569Y028220D03*
X021569Y028300D03*
X021569Y028320D03*
X021549Y028340D03*
X021549Y028360D03*
X021349Y028340D03*
X021329Y028320D03*
X021329Y028300D03*
X021169Y028300D03*
X021169Y028320D03*
X021169Y028280D03*
X021169Y028260D03*
X021169Y028240D03*
X021169Y028220D03*
X021169Y028200D03*
X021169Y028180D03*
X021169Y028160D03*
X021169Y028140D03*
X021169Y028120D03*
X021169Y028100D03*
X021349Y028140D03*
X021169Y028420D03*
X020949Y028340D03*
X020929Y028280D03*
X020929Y028260D03*
X020929Y028240D03*
X020929Y028220D03*
X020929Y028200D03*
X020929Y028180D03*
X020929Y028160D03*
X020929Y028140D03*
X020929Y028120D03*
X020929Y028100D03*
X020769Y028180D03*
X020769Y028200D03*
X020769Y028300D03*
X020769Y028320D03*
X020769Y028340D03*
X020749Y028360D03*
X020549Y028340D03*
X020549Y028320D03*
X020549Y028300D03*
X020549Y028140D03*
X019949Y028180D03*
X019949Y028200D03*
X019949Y028220D03*
X019949Y028300D03*
X019949Y028320D03*
X019949Y028340D03*
X019929Y028360D03*
X019729Y028340D03*
X019709Y028300D03*
X019549Y028300D03*
X019549Y028320D03*
X019549Y028340D03*
X019549Y028360D03*
X019549Y028380D03*
X019549Y028400D03*
X019549Y028420D03*
X019549Y028440D03*
X019549Y028460D03*
X019549Y028480D03*
X019549Y028500D03*
X019549Y028520D03*
X019549Y028540D03*
X019549Y028560D03*
X019549Y028580D03*
X019349Y028360D03*
X019349Y028340D03*
X019369Y028320D03*
X019369Y028300D03*
X019369Y028220D03*
X019369Y028200D03*
X019369Y028180D03*
X019509Y028080D03*
X019549Y028140D03*
X019549Y028160D03*
X019549Y028180D03*
X019549Y028200D03*
X019549Y028220D03*
X019549Y028240D03*
X019549Y028260D03*
X019549Y028280D03*
X019729Y028140D03*
X019149Y028140D03*
X019129Y028300D03*
X019129Y028320D03*
X018969Y028320D03*
X018969Y028340D03*
X018969Y028360D03*
X018969Y028380D03*
X018969Y028400D03*
X018969Y028420D03*
X018969Y028440D03*
X018969Y028460D03*
X018969Y028480D03*
X018969Y028500D03*
X018969Y028520D03*
X018969Y028540D03*
X018969Y028560D03*
X018969Y028580D03*
X018969Y028600D03*
X018969Y028220D03*
X018969Y028200D03*
X018969Y028180D03*
X018969Y028160D03*
X018969Y028140D03*
X018969Y028120D03*
X018969Y028100D03*
X018749Y028100D03*
X018569Y028140D03*
X018569Y028160D03*
X018569Y028180D03*
X018569Y028200D03*
X018569Y028220D03*
X018569Y028240D03*
X018569Y028260D03*
X018569Y028280D03*
X018569Y028300D03*
X018569Y028320D03*
X018569Y028340D03*
X018569Y028440D03*
X018569Y028460D03*
X018569Y028480D03*
X018349Y028420D03*
X018349Y028320D03*
X018349Y028300D03*
X018349Y028280D03*
X018349Y028260D03*
X018349Y028240D03*
X018349Y028220D03*
X018349Y028200D03*
X018349Y028180D03*
X018349Y028160D03*
X018349Y028140D03*
X018349Y028120D03*
X018349Y028100D03*
X018529Y028080D03*
X018109Y028200D03*
X018109Y028220D03*
X018109Y028240D03*
X018109Y028260D03*
X018109Y028280D03*
X018109Y028300D03*
X018089Y028340D03*
X018089Y028160D03*
X017869Y028160D03*
X017849Y028180D03*
X017849Y028200D03*
X017849Y028220D03*
X017849Y028240D03*
X017849Y028260D03*
X017849Y028280D03*
X017849Y028300D03*
X017849Y028320D03*
X017869Y028340D03*
X017689Y028300D03*
X017689Y028280D03*
X017689Y028260D03*
X017689Y028240D03*
X017689Y028220D03*
X017689Y028200D03*
X017689Y028180D03*
X017689Y028160D03*
X017689Y028140D03*
X017689Y028120D03*
X017689Y028100D03*
X017449Y028100D03*
X017449Y028120D03*
X017449Y028140D03*
X017449Y028160D03*
X017449Y028180D03*
X017449Y028200D03*
X017449Y028220D03*
X017449Y028240D03*
X017449Y028260D03*
X017449Y028280D03*
X017449Y028300D03*
X017449Y028320D03*
X017469Y028360D03*
X017269Y028360D03*
X017269Y028380D03*
X017269Y028400D03*
X017269Y028340D03*
X017269Y028320D03*
X017269Y028300D03*
X017269Y028280D03*
X017269Y028260D03*
X017269Y028240D03*
X017269Y028220D03*
X017269Y028200D03*
X017269Y028180D03*
X017269Y028160D03*
X017269Y028140D03*
X017269Y028120D03*
X017269Y028100D03*
X017089Y028100D03*
X017089Y028120D03*
X017089Y028140D03*
X017089Y028160D03*
X017089Y028180D03*
X017089Y028200D03*
X017089Y028220D03*
X017089Y028320D03*
X017089Y028340D03*
X017089Y028360D03*
X017089Y028380D03*
X017089Y028400D03*
X017089Y028420D03*
X017089Y028440D03*
X017089Y028460D03*
X017089Y028480D03*
X017089Y028500D03*
X017089Y028520D03*
X017089Y028540D03*
X017089Y028560D03*
X017089Y028580D03*
X017269Y028540D03*
X016889Y028400D03*
X016729Y028340D03*
X016729Y028320D03*
X016729Y028300D03*
X016709Y028360D03*
X016729Y028220D03*
X016729Y028200D03*
X016729Y028180D03*
X016889Y028120D03*
X016509Y028140D03*
X016489Y028300D03*
X016509Y028320D03*
X016509Y028340D03*
X018589Y028740D03*
X024029Y028420D03*
D36*
X027349Y028360D03*
X027349Y028340D03*
X027349Y028300D03*
X027349Y028280D03*
X027349Y028000D03*
D37*
X027229Y028900D03*
X027229Y029440D03*
X027229Y029460D03*
X027229Y029480D03*
X026429Y029000D03*
X027949Y028880D03*
X027969Y028760D03*
X027969Y028740D03*
X027969Y028720D03*
X027989Y028660D03*
X028549Y028020D03*
X028549Y029820D03*
X023729Y029520D03*
X023709Y029020D03*
X023209Y029040D03*
X023209Y029520D03*
X021969Y029040D03*
X020589Y029040D03*
X020589Y029520D03*
X018889Y029040D03*
X018069Y029520D03*
X017549Y029520D03*
D38*
X017529Y029580D03*
X017649Y029100D03*
X018189Y029120D03*
X018209Y029340D03*
X018749Y029440D03*
X018889Y029580D03*
X019009Y029460D03*
X019029Y029120D03*
X019009Y029100D03*
X018769Y029100D03*
X018749Y029120D03*
X018549Y028780D03*
X018569Y028400D03*
X018569Y028380D03*
X018289Y028400D03*
X018909Y028240D03*
X019829Y028400D03*
X019749Y029000D03*
X019669Y029100D03*
X019949Y029120D03*
X019949Y029440D03*
X019749Y029560D03*
X019669Y029460D03*
X019389Y029420D03*
X020709Y029460D03*
X020689Y029100D03*
X021269Y029440D03*
X021269Y029460D03*
X021829Y029460D03*
X021969Y029580D03*
X022089Y029460D03*
X022109Y029440D03*
X022109Y029120D03*
X022089Y029100D03*
X021849Y029100D03*
X022789Y029100D03*
X023089Y029100D03*
X023329Y029100D03*
X023329Y029460D03*
X023209Y029580D03*
X023089Y029460D03*
X023729Y029580D03*
X023849Y029460D03*
X023869Y029140D03*
X023849Y029120D03*
X023549Y028400D03*
X025229Y029720D03*
X025209Y029760D03*
X025609Y029720D03*
X025629Y029760D03*
X026189Y029620D03*
X026209Y029640D03*
X026189Y029140D03*
X026209Y029120D03*
X025709Y028400D03*
X027809Y028020D03*
X028349Y028860D03*
X028369Y028880D03*
X028689Y028860D03*
X028709Y028880D03*
X029029Y028840D03*
X029349Y028880D03*
X027629Y029620D03*
X017029Y028240D03*
X016789Y029080D03*
X016569Y029080D03*
X016549Y029180D03*
X016569Y029200D03*
X016789Y029360D03*
X016569Y029480D03*
D39*
X027339Y028400D03*
X027339Y028380D03*
X027339Y028260D03*
X027339Y028040D03*
X027339Y028020D03*
D40*
X027249Y029160D03*
X027249Y029400D03*
X027249Y029540D03*
X027249Y029560D03*
X026409Y029760D03*
X026409Y029020D03*
X028529Y029800D03*
X028529Y028040D03*
X023729Y029080D03*
X023709Y029040D03*
X023729Y029480D03*
X023209Y029080D03*
X023209Y029060D03*
X021969Y029060D03*
X021969Y029500D03*
X018889Y029500D03*
X018889Y029060D03*
X018049Y029060D03*
X018069Y029480D03*
X016669Y029500D03*
D41*
X018889Y029480D03*
X018889Y029080D03*
X019829Y029040D03*
X019829Y029520D03*
X021969Y029480D03*
X021969Y029080D03*
X024569Y029340D03*
X024569Y029360D03*
X024569Y029380D03*
X024569Y029400D03*
X024569Y029420D03*
X024569Y029440D03*
X024569Y029460D03*
X026389Y029720D03*
X026389Y029040D03*
X027269Y028880D03*
X027269Y029380D03*
X027269Y029620D03*
X027989Y029060D03*
X027989Y029040D03*
X027989Y029020D03*
X027989Y029000D03*
X027989Y028980D03*
X028509Y029780D03*
X028509Y028060D03*
D42*
X027329Y028060D03*
X027329Y028240D03*
X027329Y028420D03*
D43*
X027289Y028160D03*
X027289Y029180D03*
X027289Y029200D03*
X027289Y029220D03*
X027289Y029340D03*
X026369Y029100D03*
X026369Y029080D03*
X026369Y029680D03*
X024549Y029100D03*
X023729Y029260D03*
X023729Y029280D03*
X023729Y029300D03*
X023729Y029320D03*
X028489Y029760D03*
X028489Y028080D03*
X018069Y029240D03*
X018069Y029260D03*
X018069Y029280D03*
X018069Y029300D03*
X018069Y029320D03*
D44*
X027319Y028220D03*
X027319Y028080D03*
D45*
X028559Y028100D03*
X027379Y029820D03*
X027379Y029840D03*
X027379Y029920D03*
D46*
X028469Y029740D03*
X027309Y028200D03*
X027309Y028120D03*
X027309Y028100D03*
X024889Y028380D03*
X022949Y028380D03*
D47*
X028589Y028120D03*
D48*
X027299Y028140D03*
X027299Y028180D03*
X027299Y029240D03*
X027299Y029260D03*
X027299Y029280D03*
X027299Y029300D03*
X027299Y029320D03*
X024539Y029080D03*
X024539Y029060D03*
X024539Y029040D03*
X024539Y029020D03*
X024539Y029000D03*
X024539Y029680D03*
X024539Y029700D03*
X024539Y029720D03*
X024539Y029740D03*
X024539Y029760D03*
X024539Y029780D03*
D49*
X028629Y028160D03*
D50*
X028629Y028180D03*
X028609Y029640D03*
D51*
X027589Y030040D03*
X027589Y030060D03*
X027589Y030080D03*
X028629Y028200D03*
D52*
X028639Y028220D03*
D53*
X028649Y028240D03*
X027649Y030260D03*
D54*
X028389Y029020D03*
X028329Y028740D03*
X028329Y028720D03*
X028329Y028700D03*
X028329Y028680D03*
X028669Y028680D03*
X028669Y028700D03*
X028669Y028720D03*
X028669Y028740D03*
X028669Y028760D03*
X028669Y028780D03*
X028669Y028660D03*
X028989Y028660D03*
X028989Y028680D03*
X029329Y028720D03*
X029349Y028940D03*
X029369Y028960D03*
X029369Y028980D03*
X029369Y029000D03*
X029369Y029020D03*
X029369Y029040D03*
X028709Y029040D03*
X028709Y029020D03*
X028709Y029000D03*
X027929Y028860D03*
X027209Y028520D03*
X027209Y028500D03*
X027209Y028480D03*
X026409Y028560D03*
X023729Y029540D03*
X023209Y029540D03*
X023209Y029020D03*
X022429Y028280D03*
X022429Y028260D03*
X021969Y029020D03*
X021449Y028280D03*
X021449Y028260D03*
X020669Y028260D03*
X020669Y028240D03*
X020589Y029020D03*
X019829Y028280D03*
X019849Y028240D03*
X019249Y028260D03*
X019249Y028280D03*
X018889Y029020D03*
X019329Y029460D03*
X019329Y029480D03*
X019329Y029500D03*
X018069Y029540D03*
X017129Y029540D03*
X017129Y029560D03*
X017129Y029580D03*
X017129Y029520D03*
X017129Y029500D03*
X017129Y029480D03*
X016609Y028280D03*
X016629Y028240D03*
D55*
X028649Y028260D03*
D56*
X028339Y028660D03*
X028359Y028900D03*
X028379Y029040D03*
X028379Y029060D03*
X028679Y028800D03*
X029319Y028700D03*
X029319Y028680D03*
X029319Y028660D03*
X027219Y028660D03*
X027219Y028460D03*
X027219Y028440D03*
X026439Y029780D03*
X025419Y029460D03*
X025419Y029440D03*
X022799Y029480D03*
X022799Y029500D03*
X022799Y029520D03*
X022799Y029540D03*
X022799Y029560D03*
X022799Y029580D03*
X021959Y029540D03*
X020579Y029540D03*
X020659Y028280D03*
X019839Y028260D03*
X018879Y029540D03*
X018039Y029020D03*
X017539Y029040D03*
X017539Y029540D03*
X016679Y029540D03*
X016679Y029020D03*
X016619Y028260D03*
D57*
X028649Y028280D03*
D58*
X028649Y028300D03*
X028649Y029520D03*
D59*
X028669Y028320D03*
D60*
X027359Y028320D03*
D61*
X028669Y028340D03*
D62*
X028659Y028380D03*
X028659Y029460D03*
D63*
X028649Y029440D03*
X028669Y028400D03*
D64*
X028669Y028420D03*
D65*
X028669Y028440D03*
X028669Y029380D03*
X027829Y030320D03*
D66*
X028679Y028460D03*
D67*
X028669Y028480D03*
X028669Y029340D03*
X028669Y029360D03*
D68*
X028679Y028500D03*
D69*
X028669Y028520D03*
X028669Y029300D03*
X028669Y029320D03*
D70*
X028679Y028540D03*
D71*
X028679Y028580D03*
X028679Y028600D03*
X028679Y029240D03*
D72*
X028679Y029200D03*
X028679Y029180D03*
X028679Y028640D03*
X028679Y028620D03*
D73*
X027979Y028680D03*
X027979Y028700D03*
X027959Y028780D03*
X027959Y028800D03*
X027959Y028820D03*
X027959Y028840D03*
X027239Y028680D03*
X027239Y029420D03*
X027239Y029500D03*
X027239Y029520D03*
X023739Y029500D03*
X023219Y029500D03*
X021959Y029520D03*
X020579Y029500D03*
X020579Y029060D03*
X018879Y029520D03*
X018059Y029500D03*
X018039Y029040D03*
X017539Y029060D03*
X017539Y029500D03*
X016679Y029520D03*
X016679Y029040D03*
D74*
X016679Y029060D03*
X017539Y029080D03*
X017539Y029480D03*
X018059Y029080D03*
X020579Y029080D03*
X020579Y029480D03*
X023219Y029480D03*
X023719Y029060D03*
X026399Y029740D03*
X027259Y029600D03*
X027259Y029580D03*
X027259Y028700D03*
X027979Y028900D03*
X027979Y028920D03*
X027979Y028940D03*
X027979Y028960D03*
D75*
X027279Y028860D03*
X027279Y028840D03*
X027279Y028820D03*
X027279Y028800D03*
X027279Y028780D03*
X027279Y028760D03*
X027279Y028740D03*
X027279Y028720D03*
X027279Y029360D03*
X026379Y029060D03*
X026379Y029700D03*
X023739Y029240D03*
X021419Y029480D03*
X021419Y029500D03*
X019819Y029500D03*
X019819Y029480D03*
X019819Y029080D03*
X019819Y029060D03*
D76*
X028679Y029080D03*
X028679Y029100D03*
X028679Y029120D03*
X028679Y029140D03*
D77*
X028669Y029160D03*
D78*
X028669Y029220D03*
D79*
X028659Y029400D03*
X027819Y030280D03*
X027819Y030300D03*
D80*
X028659Y029420D03*
D81*
X028659Y029480D03*
D82*
X028659Y029500D03*
D83*
X028639Y029560D03*
D84*
X028639Y029580D03*
D85*
X028629Y029600D03*
X027629Y030240D03*
D86*
X027599Y030220D03*
X028619Y029620D03*
D87*
X028529Y029720D03*
X027389Y029800D03*
X027389Y029940D03*
X027389Y029640D03*
D88*
X027399Y029660D03*
X027399Y029760D03*
X027399Y029780D03*
X027399Y029960D03*
D89*
X028589Y029680D03*
D90*
X027409Y029680D03*
X027409Y029700D03*
X027409Y029740D03*
X027409Y029980D03*
D91*
X028579Y029700D03*
D92*
X027419Y029720D03*
D93*
X027369Y029860D03*
X027369Y029880D03*
X027369Y029900D03*
D94*
X027429Y030000D03*
D95*
X027439Y030020D03*
D96*
X027579Y030100D03*
X027579Y030120D03*
X027579Y030140D03*
X027579Y030160D03*
X027579Y030180D03*
X027579Y030200D03*
M02*
