G75*
G70*
%OFA0B0*%
%FSLAX24Y24*%
%IPPOS*%
%LPD*%
%AMOC8*
5,1,8,0,0,1.08239X$1,22.5*
%
%ADD10C,0.0000*%
%ADD11C,0.1300*%
%ADD12R,0.0788X0.0709*%
%ADD13R,0.0631X0.0552*%
%ADD14R,0.0749X0.0670*%
%ADD15R,0.0434X0.0316*%
%ADD16R,0.1300X0.0749*%
%ADD17R,0.0280X0.0640*%
%ADD18R,0.0276X0.0906*%
%ADD19R,0.1733X0.1024*%
%ADD20R,0.0434X0.1142*%
%ADD21R,0.0552X0.0631*%
%ADD22R,0.0749X0.0591*%
%ADD23C,0.0906*%
%ADD24R,0.0413X0.0620*%
%ADD25C,0.1040*%
%ADD26C,0.0827*%
%ADD27C,0.0631*%
%ADD28C,0.0634*%
%ADD29R,0.0434X0.0591*%
%ADD30R,0.0591X0.0434*%
%ADD31R,0.0670X0.0500*%
D10*
X003736Y007660D02*
X033762Y007660D01*
X033763Y007660D02*
X033820Y007666D01*
X033877Y007676D01*
X033933Y007690D01*
X033988Y007708D01*
X034042Y007729D01*
X034094Y007754D01*
X034144Y007783D01*
X034192Y007815D01*
X034238Y007850D01*
X034282Y007888D01*
X034322Y007928D01*
X034360Y007972D01*
X034395Y008018D01*
X034427Y008066D01*
X034456Y008116D01*
X034481Y008168D01*
X034502Y008222D01*
X034520Y008277D01*
X034534Y008333D01*
X034544Y008390D01*
X034550Y008447D01*
X034550Y030637D01*
X034550Y030638D02*
X034544Y030695D01*
X034534Y030752D01*
X034520Y030808D01*
X034502Y030863D01*
X034481Y030917D01*
X034456Y030969D01*
X034427Y031019D01*
X034395Y031067D01*
X034360Y031113D01*
X034322Y031157D01*
X034282Y031197D01*
X034238Y031235D01*
X034192Y031270D01*
X034144Y031302D01*
X034094Y031331D01*
X034042Y031356D01*
X033988Y031377D01*
X033933Y031395D01*
X033877Y031409D01*
X033820Y031419D01*
X033763Y031425D01*
X033762Y031425D02*
X003736Y031425D01*
X003679Y031419D01*
X003622Y031409D01*
X003566Y031395D01*
X003511Y031377D01*
X003457Y031356D01*
X003405Y031331D01*
X003355Y031302D01*
X003307Y031270D01*
X003261Y031235D01*
X003217Y031197D01*
X003177Y031157D01*
X003139Y031113D01*
X003104Y031067D01*
X003072Y031019D01*
X003043Y030969D01*
X003018Y030917D01*
X002997Y030863D01*
X002979Y030808D01*
X002965Y030752D01*
X002955Y030695D01*
X002949Y030638D01*
X002949Y030637D02*
X002949Y008447D01*
X002955Y008390D01*
X002965Y008333D01*
X002979Y008277D01*
X002997Y008222D01*
X003018Y008168D01*
X003043Y008116D01*
X003072Y008066D01*
X003104Y008018D01*
X003139Y007972D01*
X003177Y007928D01*
X003217Y007888D01*
X003261Y007850D01*
X003307Y007815D01*
X003355Y007783D01*
X003405Y007754D01*
X003457Y007729D01*
X003511Y007708D01*
X003566Y007690D01*
X003622Y007676D01*
X003679Y007666D01*
X003736Y007660D01*
X004287Y009629D02*
X004289Y009679D01*
X004295Y009729D01*
X004305Y009778D01*
X004319Y009826D01*
X004336Y009873D01*
X004357Y009918D01*
X004382Y009962D01*
X004410Y010003D01*
X004442Y010042D01*
X004476Y010079D01*
X004513Y010113D01*
X004553Y010143D01*
X004595Y010170D01*
X004639Y010194D01*
X004685Y010215D01*
X004732Y010231D01*
X004780Y010244D01*
X004830Y010253D01*
X004879Y010258D01*
X004930Y010259D01*
X004980Y010256D01*
X005029Y010249D01*
X005078Y010238D01*
X005126Y010223D01*
X005172Y010205D01*
X005217Y010183D01*
X005260Y010157D01*
X005301Y010128D01*
X005340Y010096D01*
X005376Y010061D01*
X005408Y010023D01*
X005438Y009983D01*
X005465Y009940D01*
X005488Y009896D01*
X005507Y009850D01*
X005523Y009802D01*
X005535Y009753D01*
X005543Y009704D01*
X005547Y009654D01*
X005547Y009604D01*
X005543Y009554D01*
X005535Y009505D01*
X005523Y009456D01*
X005507Y009408D01*
X005488Y009362D01*
X005465Y009318D01*
X005438Y009275D01*
X005408Y009235D01*
X005376Y009197D01*
X005340Y009162D01*
X005301Y009130D01*
X005260Y009101D01*
X005217Y009075D01*
X005172Y009053D01*
X005126Y009035D01*
X005078Y009020D01*
X005029Y009009D01*
X004980Y009002D01*
X004930Y008999D01*
X004879Y009000D01*
X004830Y009005D01*
X004780Y009014D01*
X004732Y009027D01*
X004685Y009043D01*
X004639Y009064D01*
X004595Y009088D01*
X004553Y009115D01*
X004513Y009145D01*
X004476Y009179D01*
X004442Y009216D01*
X004410Y009255D01*
X004382Y009296D01*
X004357Y009340D01*
X004336Y009385D01*
X004319Y009432D01*
X004305Y009480D01*
X004295Y009529D01*
X004289Y009579D01*
X004287Y009629D01*
X004287Y029456D02*
X004289Y029506D01*
X004295Y029556D01*
X004305Y029605D01*
X004319Y029653D01*
X004336Y029700D01*
X004357Y029745D01*
X004382Y029789D01*
X004410Y029830D01*
X004442Y029869D01*
X004476Y029906D01*
X004513Y029940D01*
X004553Y029970D01*
X004595Y029997D01*
X004639Y030021D01*
X004685Y030042D01*
X004732Y030058D01*
X004780Y030071D01*
X004830Y030080D01*
X004879Y030085D01*
X004930Y030086D01*
X004980Y030083D01*
X005029Y030076D01*
X005078Y030065D01*
X005126Y030050D01*
X005172Y030032D01*
X005217Y030010D01*
X005260Y029984D01*
X005301Y029955D01*
X005340Y029923D01*
X005376Y029888D01*
X005408Y029850D01*
X005438Y029810D01*
X005465Y029767D01*
X005488Y029723D01*
X005507Y029677D01*
X005523Y029629D01*
X005535Y029580D01*
X005543Y029531D01*
X005547Y029481D01*
X005547Y029431D01*
X005543Y029381D01*
X005535Y029332D01*
X005523Y029283D01*
X005507Y029235D01*
X005488Y029189D01*
X005465Y029145D01*
X005438Y029102D01*
X005408Y029062D01*
X005376Y029024D01*
X005340Y028989D01*
X005301Y028957D01*
X005260Y028928D01*
X005217Y028902D01*
X005172Y028880D01*
X005126Y028862D01*
X005078Y028847D01*
X005029Y028836D01*
X004980Y028829D01*
X004930Y028826D01*
X004879Y028827D01*
X004830Y028832D01*
X004780Y028841D01*
X004732Y028854D01*
X004685Y028870D01*
X004639Y028891D01*
X004595Y028915D01*
X004553Y028942D01*
X004513Y028972D01*
X004476Y029006D01*
X004442Y029043D01*
X004410Y029082D01*
X004382Y029123D01*
X004357Y029167D01*
X004336Y029212D01*
X004319Y029259D01*
X004305Y029307D01*
X004295Y029356D01*
X004289Y029406D01*
X004287Y029456D01*
X031951Y029456D02*
X031953Y029506D01*
X031959Y029556D01*
X031969Y029605D01*
X031983Y029653D01*
X032000Y029700D01*
X032021Y029745D01*
X032046Y029789D01*
X032074Y029830D01*
X032106Y029869D01*
X032140Y029906D01*
X032177Y029940D01*
X032217Y029970D01*
X032259Y029997D01*
X032303Y030021D01*
X032349Y030042D01*
X032396Y030058D01*
X032444Y030071D01*
X032494Y030080D01*
X032543Y030085D01*
X032594Y030086D01*
X032644Y030083D01*
X032693Y030076D01*
X032742Y030065D01*
X032790Y030050D01*
X032836Y030032D01*
X032881Y030010D01*
X032924Y029984D01*
X032965Y029955D01*
X033004Y029923D01*
X033040Y029888D01*
X033072Y029850D01*
X033102Y029810D01*
X033129Y029767D01*
X033152Y029723D01*
X033171Y029677D01*
X033187Y029629D01*
X033199Y029580D01*
X033207Y029531D01*
X033211Y029481D01*
X033211Y029431D01*
X033207Y029381D01*
X033199Y029332D01*
X033187Y029283D01*
X033171Y029235D01*
X033152Y029189D01*
X033129Y029145D01*
X033102Y029102D01*
X033072Y029062D01*
X033040Y029024D01*
X033004Y028989D01*
X032965Y028957D01*
X032924Y028928D01*
X032881Y028902D01*
X032836Y028880D01*
X032790Y028862D01*
X032742Y028847D01*
X032693Y028836D01*
X032644Y028829D01*
X032594Y028826D01*
X032543Y028827D01*
X032494Y028832D01*
X032444Y028841D01*
X032396Y028854D01*
X032349Y028870D01*
X032303Y028891D01*
X032259Y028915D01*
X032217Y028942D01*
X032177Y028972D01*
X032140Y029006D01*
X032106Y029043D01*
X032074Y029082D01*
X032046Y029123D01*
X032021Y029167D01*
X032000Y029212D01*
X031983Y029259D01*
X031969Y029307D01*
X031959Y029356D01*
X031953Y029406D01*
X031951Y029456D01*
X031951Y009629D02*
X031953Y009679D01*
X031959Y009729D01*
X031969Y009778D01*
X031983Y009826D01*
X032000Y009873D01*
X032021Y009918D01*
X032046Y009962D01*
X032074Y010003D01*
X032106Y010042D01*
X032140Y010079D01*
X032177Y010113D01*
X032217Y010143D01*
X032259Y010170D01*
X032303Y010194D01*
X032349Y010215D01*
X032396Y010231D01*
X032444Y010244D01*
X032494Y010253D01*
X032543Y010258D01*
X032594Y010259D01*
X032644Y010256D01*
X032693Y010249D01*
X032742Y010238D01*
X032790Y010223D01*
X032836Y010205D01*
X032881Y010183D01*
X032924Y010157D01*
X032965Y010128D01*
X033004Y010096D01*
X033040Y010061D01*
X033072Y010023D01*
X033102Y009983D01*
X033129Y009940D01*
X033152Y009896D01*
X033171Y009850D01*
X033187Y009802D01*
X033199Y009753D01*
X033207Y009704D01*
X033211Y009654D01*
X033211Y009604D01*
X033207Y009554D01*
X033199Y009505D01*
X033187Y009456D01*
X033171Y009408D01*
X033152Y009362D01*
X033129Y009318D01*
X033102Y009275D01*
X033072Y009235D01*
X033040Y009197D01*
X033004Y009162D01*
X032965Y009130D01*
X032924Y009101D01*
X032881Y009075D01*
X032836Y009053D01*
X032790Y009035D01*
X032742Y009020D01*
X032693Y009009D01*
X032644Y009002D01*
X032594Y008999D01*
X032543Y009000D01*
X032494Y009005D01*
X032444Y009014D01*
X032396Y009027D01*
X032349Y009043D01*
X032303Y009064D01*
X032259Y009088D01*
X032217Y009115D01*
X032177Y009145D01*
X032140Y009179D01*
X032106Y009216D01*
X032074Y009255D01*
X032046Y009296D01*
X032021Y009340D01*
X032000Y009385D01*
X031983Y009432D01*
X031969Y009480D01*
X031959Y009529D01*
X031953Y009579D01*
X031951Y009629D01*
D11*
X032581Y009629D03*
X032581Y029456D03*
X004917Y029456D03*
X004917Y009629D03*
D12*
X024177Y023781D03*
X024177Y025789D03*
X024177Y028031D03*
X024177Y030039D03*
X027720Y030039D03*
X027720Y028031D03*
X027720Y025789D03*
X027720Y023781D03*
D13*
X029574Y020909D03*
X029574Y020161D03*
X029699Y018284D03*
X029699Y017536D03*
X028824Y017536D03*
X028824Y018284D03*
X022324Y018284D03*
X022324Y017536D03*
X021449Y017536D03*
X021449Y018284D03*
X021324Y016284D03*
X021324Y015536D03*
X021324Y014659D03*
X021324Y013911D03*
X021949Y012909D03*
X021949Y012161D03*
X018699Y011409D03*
X018699Y010661D03*
X016449Y010536D03*
X016449Y011284D03*
X015574Y011284D03*
X015574Y010536D03*
X014574Y010536D03*
X014574Y011284D03*
X013574Y011284D03*
X013574Y010536D03*
X013574Y009659D03*
X013574Y008911D03*
X010824Y010911D03*
X010824Y011659D03*
X010824Y012536D03*
X010824Y013284D03*
X011699Y013284D03*
X011699Y012536D03*
X012699Y012536D03*
X012699Y013284D03*
X013449Y015161D03*
X013449Y015909D03*
X014324Y016036D03*
X014324Y016784D03*
X015199Y016784D03*
X015199Y016036D03*
X016074Y016036D03*
X016074Y016784D03*
X016949Y016784D03*
X016949Y016036D03*
X017824Y016036D03*
X017824Y016784D03*
X017699Y017786D03*
X017699Y018534D03*
X018574Y018534D03*
X018574Y017786D03*
X019074Y016784D03*
X019074Y016036D03*
X016699Y017786D03*
X016699Y018534D03*
X015699Y018534D03*
X015699Y017786D03*
X014699Y017786D03*
X014699Y018534D03*
X013449Y018161D03*
X013449Y018909D03*
X012199Y018534D03*
X012199Y019286D03*
X012199Y020034D03*
X011199Y018534D03*
X011199Y017786D03*
X012199Y017786D03*
X009949Y013284D03*
X009949Y012536D03*
X016449Y013411D03*
X016449Y014159D03*
X021824Y020411D03*
X021824Y021159D03*
X011324Y023786D03*
X011324Y024534D03*
X010199Y024534D03*
X010199Y023786D03*
X008449Y023786D03*
X008449Y024534D03*
X008449Y025661D03*
X008449Y026409D03*
X006824Y019909D03*
X006824Y019161D03*
D14*
X029199Y024234D03*
X029199Y025336D03*
X029199Y028484D03*
X029199Y029586D03*
D15*
X022265Y014659D03*
X022265Y013911D03*
X023132Y014285D03*
D16*
X007824Y015933D03*
X007824Y018137D03*
D17*
X007824Y013865D03*
X007324Y013865D03*
X006824Y013865D03*
X006324Y013865D03*
X006324Y011705D03*
X006824Y011705D03*
X007324Y011705D03*
X007824Y011705D03*
D18*
X011199Y014511D03*
X011699Y014511D03*
X012199Y014511D03*
X012699Y014511D03*
X014199Y014809D03*
X014699Y014809D03*
X015199Y014809D03*
X015699Y014809D03*
X017199Y014809D03*
X017699Y014809D03*
X018199Y014809D03*
X018699Y014809D03*
X018699Y012761D03*
X018199Y012761D03*
X017699Y012761D03*
X017199Y012761D03*
X015699Y012761D03*
X015199Y012761D03*
X014699Y012761D03*
X014199Y012761D03*
X012699Y016559D03*
X012199Y016559D03*
X011699Y016559D03*
X011199Y016559D03*
D19*
X018190Y024660D03*
X021457Y024660D03*
X021457Y029160D03*
X018190Y029160D03*
D20*
X024199Y018210D03*
X024199Y016360D03*
X026949Y016360D03*
X026949Y018210D03*
D21*
X025573Y010410D03*
X024824Y010410D03*
X010073Y017410D03*
X009324Y017410D03*
X009324Y018785D03*
X010073Y018785D03*
X010073Y020035D03*
X009324Y020035D03*
X009448Y010660D03*
X008699Y010660D03*
X008699Y009660D03*
X009448Y009660D03*
D22*
X012199Y010241D03*
X012199Y011579D03*
X014574Y009704D03*
X014574Y008366D03*
X017699Y010366D03*
X017699Y011704D03*
X021949Y011079D03*
X021949Y009741D03*
X023449Y011866D03*
X023449Y013204D03*
X015199Y019991D03*
X015199Y021329D03*
X011199Y021329D03*
X011199Y019991D03*
D23*
X023574Y020860D02*
X023574Y021450D01*
X027574Y021450D02*
X027574Y020860D01*
D24*
X027574Y020003D03*
X028164Y020003D03*
X026983Y020003D03*
X024164Y020003D03*
X023574Y020003D03*
X022983Y020003D03*
D25*
X004689Y020527D03*
X004689Y018527D03*
X004689Y024402D03*
X004689Y026402D03*
D26*
X032708Y027043D03*
X032708Y025043D03*
X032708Y023043D03*
X032708Y021043D03*
D27*
X026199Y020910D03*
X024949Y020910D03*
X029449Y014535D03*
X029449Y013035D03*
X027449Y011535D03*
X027449Y010285D03*
X025074Y014410D03*
X015449Y023910D03*
X013574Y022785D03*
X008699Y012785D03*
D28*
X032402Y012910D02*
X032995Y012910D01*
X032995Y011910D02*
X032402Y011910D01*
X032402Y013910D02*
X032995Y013910D01*
X032995Y014910D02*
X032402Y014910D01*
X032402Y015910D02*
X032995Y015910D01*
X032995Y016910D02*
X032402Y016910D01*
X032402Y017910D02*
X032995Y017910D01*
X032995Y018910D02*
X032402Y018910D01*
D29*
X016573Y008352D03*
X015824Y008352D03*
X016199Y009218D03*
X013449Y019977D03*
X013823Y020843D03*
X013074Y020843D03*
D30*
X022890Y010784D03*
X022890Y010036D03*
X023757Y010410D03*
D31*
X028949Y010310D03*
X028949Y010910D03*
X028949Y011510D03*
M02*
