G75*
G70*
%OFA0B0*%
%FSLAX24Y24*%
%IPPOS*%
%LPD*%
%AMOC8*
5,1,8,0,0,1.08239X$1,22.5*
%
%ADD10C,0.0070*%
%ADD11C,0.0040*%
%ADD12C,0.0120*%
%ADD13C,0.0050*%
%ADD14C,0.0000*%
%ADD15C,0.0060*%
%ADD16R,0.0167X0.0128*%
%ADD17R,0.0138X0.0138*%
%ADD18C,0.0100*%
%ADD19C,0.0010*%
%ADD20C,0.0030*%
%ADD21C,0.0080*%
%ADD22R,0.0433X0.0226*%
%ADD23C,0.0059*%
D10*
X018395Y008295D02*
X018682Y008295D01*
X018538Y008295D02*
X018538Y008725D01*
X018395Y008582D01*
X018855Y008654D02*
X018927Y008725D01*
X019071Y008725D01*
X019142Y008654D01*
X019142Y008582D01*
X019071Y008510D01*
X019142Y008438D01*
X019142Y008367D01*
X019071Y008295D01*
X018927Y008295D01*
X018855Y008367D01*
X018999Y008510D02*
X019071Y008510D01*
X019316Y008367D02*
X019603Y008654D01*
X019603Y008367D01*
X019531Y008295D01*
X019388Y008295D01*
X019316Y008367D01*
X019316Y008654D01*
X019388Y008725D01*
X019531Y008725D01*
X019603Y008654D01*
X019776Y008510D02*
X020063Y008510D01*
X020237Y008654D02*
X020308Y008725D01*
X020452Y008725D01*
X020523Y008654D01*
X020523Y008582D01*
X020237Y008295D01*
X020523Y008295D01*
X020697Y008367D02*
X020984Y008654D01*
X020984Y008367D01*
X020912Y008295D01*
X020769Y008295D01*
X020697Y008367D01*
X020697Y008654D01*
X020769Y008725D01*
X020912Y008725D01*
X020984Y008654D01*
X021157Y008582D02*
X021301Y008725D01*
X021301Y008295D01*
X021444Y008295D02*
X021157Y008295D01*
X021618Y008367D02*
X021689Y008295D01*
X021833Y008295D01*
X021905Y008367D01*
X021905Y008654D01*
X021833Y008725D01*
X021689Y008725D01*
X021618Y008654D01*
X021618Y008582D01*
X021689Y008510D01*
X021905Y008510D01*
X021920Y009195D02*
X021848Y009267D01*
X021848Y009410D01*
X021920Y009482D01*
X022063Y009482D01*
X022135Y009410D01*
X022135Y009267D01*
X022063Y009195D01*
X021920Y009195D01*
X021613Y009195D02*
X021613Y009554D01*
X021684Y009625D01*
X021684Y009410D02*
X021541Y009410D01*
X021368Y009625D02*
X021081Y009195D01*
X020620Y009195D02*
X020907Y009625D01*
X021004Y010045D02*
X021219Y010045D01*
X021291Y010117D01*
X021291Y010188D01*
X021219Y010260D01*
X021004Y010260D01*
X021004Y010045D02*
X021004Y010475D01*
X021219Y010475D01*
X021291Y010404D01*
X021291Y010332D01*
X021219Y010260D01*
X021464Y010260D02*
X021464Y010117D01*
X021536Y010045D01*
X021679Y010045D01*
X021751Y010117D01*
X021751Y010260D01*
X021679Y010332D01*
X021536Y010332D01*
X021464Y010260D01*
X020830Y010117D02*
X020830Y010475D01*
X020543Y010475D02*
X020543Y010117D01*
X020615Y010045D01*
X020759Y010045D01*
X020830Y010117D01*
X020370Y010117D02*
X020298Y010045D01*
X020155Y010045D01*
X020083Y010117D01*
X020083Y010404D01*
X020155Y010475D01*
X020298Y010475D01*
X020370Y010404D01*
X019910Y010475D02*
X019910Y010045D01*
X019623Y010045D02*
X019623Y010475D01*
X019766Y010332D01*
X019910Y010475D01*
X019388Y010475D02*
X019388Y010547D01*
X019388Y010332D02*
X019388Y010045D01*
X019459Y010045D02*
X019316Y010045D01*
X019142Y010045D02*
X019142Y010260D01*
X019071Y010332D01*
X018855Y010332D01*
X018855Y010045D01*
X018682Y010117D02*
X018682Y010475D01*
X018395Y010475D02*
X018395Y010117D01*
X018467Y010045D01*
X018610Y010045D01*
X018682Y010117D01*
X018395Y009625D02*
X018395Y009195D01*
X018395Y009410D02*
X018467Y009482D01*
X018610Y009482D01*
X018682Y009410D01*
X018682Y009195D01*
X018927Y009267D02*
X018927Y009554D01*
X018855Y009482D02*
X018999Y009482D01*
X019162Y009482D02*
X019306Y009482D01*
X019234Y009554D02*
X019234Y009267D01*
X019306Y009195D01*
X019469Y009195D02*
X019684Y009195D01*
X019756Y009267D01*
X019756Y009410D01*
X019684Y009482D01*
X019469Y009482D01*
X019469Y009052D01*
X019930Y009195D02*
X020145Y009195D01*
X020217Y009267D01*
X020145Y009338D01*
X020001Y009338D01*
X019930Y009410D01*
X020001Y009482D01*
X020217Y009482D01*
X020390Y009482D02*
X020390Y009410D01*
X020462Y009410D01*
X020462Y009482D01*
X020390Y009482D01*
X020390Y009267D02*
X020390Y009195D01*
X020462Y009195D01*
X020462Y009267D01*
X020390Y009267D01*
X019991Y008725D02*
X019776Y008510D01*
X019991Y008295D02*
X019991Y008725D01*
X018999Y009195D02*
X018927Y009267D01*
X019316Y010332D02*
X019388Y010332D01*
X021925Y010117D02*
X021996Y010188D01*
X022212Y010188D01*
X022212Y010260D02*
X022212Y010045D01*
X021996Y010045D01*
X021925Y010117D01*
X021996Y010332D02*
X022140Y010332D01*
X022212Y010260D01*
X022385Y010188D02*
X022529Y010332D01*
X022600Y010332D01*
X022769Y010260D02*
X022840Y010332D01*
X023056Y010332D01*
X023056Y010475D02*
X023056Y010045D01*
X022840Y010045D01*
X022769Y010117D01*
X022769Y010260D01*
X022385Y010332D02*
X022385Y010045D01*
X022452Y009482D02*
X022308Y009338D01*
X022308Y009195D02*
X022308Y009482D01*
X022452Y009482D02*
X022524Y009482D01*
X022692Y009482D02*
X022692Y009267D01*
X022764Y009195D01*
X022979Y009195D01*
X022979Y009482D01*
X023152Y009482D02*
X023224Y009482D01*
X023296Y009410D01*
X023368Y009482D01*
X023439Y009410D01*
X023439Y009195D01*
X023296Y009195D02*
X023296Y009410D01*
X023152Y009482D02*
X023152Y009195D01*
X023613Y009195D02*
X023685Y009195D01*
X023685Y009267D01*
X023613Y009267D01*
X023613Y009195D01*
X023843Y009267D02*
X023915Y009195D01*
X024130Y009195D01*
X024130Y009123D02*
X024058Y009052D01*
X023986Y009052D01*
X024130Y009123D02*
X024130Y009482D01*
X024303Y009482D02*
X024303Y009267D01*
X024375Y009195D01*
X024590Y009195D01*
X024590Y009482D01*
X024764Y009554D02*
X024835Y009625D01*
X024979Y009625D01*
X025051Y009554D01*
X025051Y009482D01*
X024979Y009410D01*
X025051Y009338D01*
X025051Y009267D01*
X024979Y009195D01*
X024835Y009195D01*
X024764Y009267D01*
X024907Y009410D02*
X024979Y009410D01*
X025224Y009482D02*
X025296Y009482D01*
X025368Y009410D01*
X025439Y009482D01*
X025511Y009410D01*
X025511Y009195D01*
X025368Y009195D02*
X025368Y009410D01*
X025224Y009482D02*
X025224Y009195D01*
X025685Y009267D02*
X025756Y009338D01*
X025971Y009338D01*
X025971Y009410D02*
X025971Y009195D01*
X025756Y009195D01*
X025685Y009267D01*
X025756Y009482D02*
X025900Y009482D01*
X025971Y009410D01*
X026145Y009267D02*
X026217Y009267D01*
X026217Y009195D01*
X026145Y009195D01*
X026145Y009267D01*
X026375Y009195D02*
X026375Y009482D01*
X026590Y009482D01*
X026662Y009410D01*
X026662Y009195D01*
X026836Y009267D02*
X026836Y009410D01*
X026907Y009482D01*
X027051Y009482D01*
X027122Y009410D01*
X027122Y009338D01*
X026836Y009338D01*
X026836Y009267D02*
X026907Y009195D01*
X027051Y009195D01*
X027368Y009267D02*
X027368Y009554D01*
X027296Y009482D02*
X027439Y009482D01*
X027368Y009267D02*
X027439Y009195D01*
X027603Y009195D02*
X027890Y009625D01*
X025588Y010117D02*
X025516Y010045D01*
X025373Y010045D01*
X025301Y010117D01*
X025588Y010404D01*
X025588Y010117D01*
X025588Y010404D02*
X025516Y010475D01*
X025373Y010475D01*
X025301Y010404D01*
X025301Y010117D01*
X025127Y010260D02*
X024840Y010260D01*
X025056Y010475D01*
X025056Y010045D01*
X024682Y010045D02*
X024610Y010045D01*
X024610Y010117D01*
X024682Y010117D01*
X024682Y010045D01*
X024437Y010045D02*
X024150Y010045D01*
X024293Y010045D02*
X024293Y010475D01*
X024150Y010332D01*
X023976Y010332D02*
X023833Y010045D01*
X023690Y010332D01*
X023843Y009482D02*
X023843Y009267D01*
D11*
X029680Y012945D02*
X029867Y012945D01*
X029773Y013039D02*
X029773Y012852D01*
X029975Y012805D02*
X030161Y012992D01*
X030161Y013039D01*
X030115Y013085D01*
X030021Y013085D01*
X029975Y013039D01*
X029975Y012805D02*
X030161Y012805D01*
X030269Y012898D02*
X030363Y012805D01*
X030456Y012898D01*
X030456Y013085D01*
X030564Y013085D02*
X030564Y012945D01*
X030657Y012992D01*
X030704Y012992D01*
X030751Y012945D01*
X030751Y012852D01*
X030704Y012805D01*
X030611Y012805D01*
X030564Y012852D01*
X030564Y013085D02*
X030751Y013085D01*
X030269Y013085D02*
X030269Y012898D01*
X030316Y013680D02*
X030409Y013680D01*
X030456Y013727D01*
X030564Y013680D02*
X030564Y013960D01*
X030456Y013914D02*
X030409Y013960D01*
X030316Y013960D01*
X030269Y013914D01*
X030269Y013727D01*
X030316Y013680D01*
X030161Y013727D02*
X030161Y013914D01*
X030115Y013960D01*
X029975Y013960D01*
X029975Y013680D01*
X030115Y013680D01*
X030161Y013727D01*
X029867Y013680D02*
X029867Y013867D01*
X029773Y013960D01*
X029680Y013867D01*
X029680Y013680D01*
X029680Y013820D02*
X029867Y013820D01*
X030564Y013820D02*
X030751Y013820D01*
X030751Y013960D02*
X030751Y013680D01*
X030661Y014680D02*
X030568Y014773D01*
X030615Y014773D02*
X030475Y014773D01*
X030475Y014680D02*
X030475Y014960D01*
X030615Y014960D01*
X030661Y014914D01*
X030661Y014820D01*
X030615Y014773D01*
X030367Y014820D02*
X030180Y014820D01*
X030180Y014680D02*
X030180Y014960D01*
X030367Y014960D02*
X030367Y014680D01*
X030409Y015805D02*
X030456Y015852D01*
X030409Y015805D02*
X030316Y015805D01*
X030269Y015852D01*
X030269Y016039D01*
X030316Y016085D01*
X030409Y016085D01*
X030456Y016039D01*
X030564Y016085D02*
X030564Y015805D01*
X030751Y015805D01*
X030161Y015852D02*
X030115Y015805D01*
X029975Y015805D01*
X029975Y016085D01*
X030115Y016085D01*
X030161Y016039D01*
X030161Y015852D01*
X029867Y015805D02*
X029867Y015992D01*
X029773Y016085D01*
X029680Y015992D01*
X029680Y015805D01*
X029680Y015945D02*
X029867Y015945D01*
X029867Y016805D02*
X029867Y016992D01*
X029773Y017085D01*
X029680Y016992D01*
X029680Y016805D01*
X029680Y016945D02*
X029867Y016945D01*
X029975Y016805D02*
X030115Y016805D01*
X030161Y016852D01*
X030161Y017039D01*
X030115Y017085D01*
X029975Y017085D01*
X029975Y016805D01*
X030269Y016852D02*
X030316Y016805D01*
X030409Y016805D01*
X030456Y016852D01*
X030564Y016898D02*
X030657Y016805D01*
X030751Y016898D01*
X030751Y017085D01*
X030564Y017085D02*
X030564Y016898D01*
X030456Y017039D02*
X030409Y017085D01*
X030316Y017085D01*
X030269Y017039D01*
X030269Y016852D01*
X030269Y017805D02*
X030409Y017805D01*
X030456Y017852D01*
X030456Y018039D01*
X030409Y018085D01*
X030269Y018085D01*
X030269Y017805D01*
X030161Y017898D02*
X030161Y018085D01*
X029975Y018085D02*
X029975Y017898D01*
X030068Y017805D01*
X030161Y017898D01*
X029867Y017945D02*
X029680Y017945D01*
X030564Y017852D02*
X030611Y017805D01*
X030704Y017805D01*
X030751Y017852D01*
X030751Y018039D02*
X030704Y018085D01*
X030611Y018085D01*
X030564Y018039D01*
X030564Y017852D01*
X030611Y018805D02*
X030704Y018805D01*
X030751Y018852D01*
X030611Y018805D02*
X030564Y018852D01*
X030564Y019039D01*
X030611Y019085D01*
X030704Y019085D01*
X030751Y019039D01*
X030456Y019039D02*
X030456Y018852D01*
X030409Y018805D01*
X030269Y018805D01*
X030269Y019085D01*
X030409Y019085D01*
X030456Y019039D01*
X030161Y019085D02*
X030161Y018898D01*
X030068Y018805D01*
X029975Y018898D01*
X029975Y019085D01*
X029867Y018945D02*
X029680Y018945D01*
X029773Y018852D02*
X029773Y019039D01*
X024140Y020727D02*
X024140Y020820D01*
X024093Y020867D01*
X024000Y020867D01*
X024000Y020773D01*
X024093Y020680D02*
X024140Y020727D01*
X024093Y020680D02*
X023906Y020680D01*
X023860Y020727D01*
X023860Y020820D01*
X023906Y020867D01*
X023860Y020975D02*
X024140Y021161D01*
X023860Y021161D01*
X023860Y021269D02*
X023860Y021409D01*
X023906Y021456D01*
X024093Y021456D01*
X024140Y021409D01*
X024140Y021269D01*
X023860Y021269D01*
X023860Y020975D02*
X024140Y020975D01*
X021536Y022102D02*
X021490Y022055D01*
X021396Y022055D01*
X021350Y022102D01*
X021242Y022055D02*
X021148Y022148D01*
X021195Y022148D02*
X021055Y022148D01*
X021055Y022055D02*
X021055Y022335D01*
X021195Y022335D01*
X021242Y022289D01*
X021242Y022195D01*
X021195Y022148D01*
X021350Y022289D02*
X021396Y022335D01*
X021490Y022335D01*
X021536Y022289D01*
X021536Y022242D01*
X021490Y022195D01*
X021536Y022148D01*
X021536Y022102D01*
X021490Y022195D02*
X021443Y022195D01*
X021490Y022930D02*
X021490Y023210D01*
X021350Y023070D01*
X021536Y023070D01*
X021242Y023070D02*
X021195Y023023D01*
X021055Y023023D01*
X021055Y022930D02*
X021055Y023210D01*
X021195Y023210D01*
X021242Y023164D01*
X021242Y023070D01*
X021148Y023023D02*
X021242Y022930D01*
X021242Y023680D02*
X021148Y023773D01*
X021195Y023773D02*
X021055Y023773D01*
X021055Y023680D02*
X021055Y023960D01*
X021195Y023960D01*
X021242Y023914D01*
X021242Y023820D01*
X021195Y023773D01*
X021350Y023727D02*
X021396Y023680D01*
X021490Y023680D01*
X021536Y023727D01*
X021536Y023820D01*
X021490Y023867D01*
X021443Y023867D01*
X021350Y023820D01*
X021350Y023960D01*
X021536Y023960D01*
X020140Y024227D02*
X020140Y024320D01*
X020093Y024367D01*
X020093Y024475D02*
X020140Y024521D01*
X020140Y024615D01*
X020093Y024661D01*
X019906Y024661D01*
X019860Y024615D01*
X019860Y024521D01*
X019906Y024475D01*
X019953Y024475D01*
X020000Y024521D01*
X020000Y024661D01*
X019906Y024367D02*
X019860Y024320D01*
X019860Y024227D01*
X019906Y024180D01*
X020093Y024180D01*
X020140Y024227D01*
X019140Y024227D02*
X019140Y024320D01*
X019093Y024367D01*
X019000Y024475D02*
X019000Y024661D01*
X019140Y024615D02*
X018860Y024615D01*
X019000Y024475D01*
X018906Y024367D02*
X018860Y024320D01*
X018860Y024227D01*
X018906Y024180D01*
X019093Y024180D01*
X019140Y024227D01*
X018265Y024227D02*
X018265Y024320D01*
X018218Y024367D01*
X018218Y024475D02*
X018265Y024521D01*
X018265Y024615D01*
X018218Y024661D01*
X018172Y024661D01*
X018125Y024615D01*
X018125Y024568D01*
X018125Y024615D02*
X018078Y024661D01*
X018031Y024661D01*
X017985Y024615D01*
X017985Y024521D01*
X018031Y024475D01*
X018031Y024367D02*
X017985Y024320D01*
X017985Y024227D01*
X018031Y024180D01*
X018218Y024180D01*
X018265Y024227D01*
X016265Y024430D02*
X015985Y024430D01*
X015985Y024570D01*
X016031Y024617D01*
X016125Y024617D01*
X016172Y024570D01*
X016172Y024430D01*
X016172Y024523D02*
X016265Y024617D01*
X016265Y024725D02*
X016218Y024725D01*
X016031Y024911D01*
X015985Y024911D01*
X015985Y024725D01*
X015515Y024771D02*
X015515Y024865D01*
X015468Y024911D01*
X015422Y024911D01*
X015375Y024865D01*
X015375Y024725D01*
X015468Y024725D01*
X015515Y024771D01*
X015375Y024725D02*
X015281Y024818D01*
X015235Y024911D01*
X015281Y024617D02*
X015375Y024617D01*
X015422Y024570D01*
X015422Y024430D01*
X015515Y024430D02*
X015235Y024430D01*
X015235Y024570D01*
X015281Y024617D01*
X015422Y024523D02*
X015515Y024617D01*
X014765Y024617D02*
X014672Y024523D01*
X014672Y024570D02*
X014672Y024430D01*
X014765Y024430D02*
X014485Y024430D01*
X014485Y024570D01*
X014531Y024617D01*
X014625Y024617D01*
X014672Y024570D01*
X014672Y024725D02*
X014625Y024771D01*
X014625Y024865D01*
X014672Y024911D01*
X014718Y024911D01*
X014765Y024865D01*
X014765Y024771D01*
X014718Y024725D01*
X014672Y024725D01*
X014625Y024771D02*
X014578Y024725D01*
X014531Y024725D01*
X014485Y024771D01*
X014485Y024865D01*
X014531Y024911D01*
X014578Y024911D01*
X014625Y024865D01*
X011206Y021835D02*
X011113Y021789D01*
X011019Y021695D01*
X011159Y021695D01*
X011206Y021648D01*
X011206Y021602D01*
X011159Y021555D01*
X011066Y021555D01*
X011019Y021602D01*
X011019Y021695D01*
X010911Y021555D02*
X010725Y021555D01*
X010818Y021555D02*
X010818Y021835D01*
X010725Y021742D01*
X010617Y021789D02*
X010570Y021835D01*
X010477Y021835D01*
X010430Y021789D01*
X010430Y021602D01*
X010477Y021555D01*
X010570Y021555D01*
X010617Y021602D01*
X010761Y021158D02*
X010714Y021111D01*
X010714Y020924D01*
X010761Y020878D01*
X010855Y020878D01*
X010901Y020924D01*
X011009Y020924D02*
X011056Y020878D01*
X011149Y020878D01*
X011196Y020924D01*
X011196Y020971D01*
X011149Y021018D01*
X011009Y021018D01*
X011009Y020924D01*
X011009Y021018D02*
X011103Y021111D01*
X011196Y021158D01*
X010901Y021111D02*
X010855Y021158D01*
X010761Y021158D01*
X010566Y019210D02*
X010472Y019210D01*
X010426Y019164D01*
X010519Y019070D02*
X010566Y019070D01*
X010612Y019023D01*
X010612Y018977D01*
X010566Y018930D01*
X010472Y018930D01*
X010426Y018977D01*
X010318Y018930D02*
X010131Y018930D01*
X010224Y018930D02*
X010224Y019210D01*
X010131Y019117D01*
X010023Y019164D02*
X009976Y019210D01*
X009883Y019210D01*
X009836Y019164D01*
X009836Y018977D01*
X009883Y018930D01*
X009976Y018930D01*
X010023Y018977D01*
X010566Y019070D02*
X010612Y019117D01*
X010612Y019164D01*
X010566Y019210D01*
X007765Y022930D02*
X007485Y022930D01*
X007485Y023070D01*
X007531Y023117D01*
X007625Y023117D01*
X007672Y023070D01*
X007672Y022930D01*
X007672Y023023D02*
X007765Y023117D01*
X007765Y023225D02*
X007765Y023411D01*
X007765Y023318D02*
X007485Y023318D01*
X007578Y023225D01*
X007015Y023225D02*
X006828Y023411D01*
X006781Y023411D01*
X006735Y023365D01*
X006735Y023271D01*
X006781Y023225D01*
X006781Y023117D02*
X006875Y023117D01*
X006922Y023070D01*
X006922Y022930D01*
X007015Y022930D02*
X006735Y022930D01*
X006735Y023070D01*
X006781Y023117D01*
X006922Y023023D02*
X007015Y023117D01*
X007015Y023225D02*
X007015Y023411D01*
X004890Y023204D02*
X004890Y023111D01*
X004843Y023064D01*
X004797Y022956D02*
X004610Y022956D01*
X004656Y023064D02*
X004610Y023111D01*
X004610Y023204D01*
X004656Y023251D01*
X004703Y023251D01*
X004750Y023204D01*
X004797Y023251D01*
X004843Y023251D01*
X004890Y023204D01*
X004750Y023204D02*
X004750Y023157D01*
X004797Y022956D02*
X004890Y022863D01*
X004797Y022769D01*
X004610Y022769D01*
X004656Y022661D02*
X004703Y022661D01*
X004750Y022615D01*
X004797Y022661D01*
X004843Y022661D01*
X004890Y022615D01*
X004890Y022521D01*
X004843Y022475D01*
X004750Y022568D02*
X004750Y022615D01*
X004656Y022661D02*
X004610Y022615D01*
X004610Y022521D01*
X004656Y022475D01*
X004750Y022367D02*
X004750Y022180D01*
X004843Y022273D02*
X004656Y022273D01*
X004656Y021278D02*
X004610Y021231D01*
X004610Y021137D01*
X004656Y021091D01*
X004843Y021091D01*
X004890Y021137D01*
X004890Y021231D01*
X004843Y021278D01*
X004843Y020983D02*
X004890Y020936D01*
X004890Y020843D01*
X004843Y020796D01*
X004656Y020796D01*
X004610Y020843D01*
X004610Y020936D01*
X004656Y020983D01*
X004656Y020688D02*
X004610Y020642D01*
X004610Y020548D01*
X004656Y020501D01*
X004610Y020398D02*
X004610Y020305D01*
X004610Y020352D02*
X004890Y020352D01*
X004890Y020398D02*
X004890Y020305D01*
X004890Y020501D02*
X004703Y020688D01*
X004656Y020688D01*
X004890Y020688D02*
X004890Y020501D01*
X003015Y021180D02*
X003015Y021273D01*
X003015Y021227D02*
X002735Y021227D01*
X002735Y021273D02*
X002735Y021180D01*
X002781Y021376D02*
X002735Y021423D01*
X002735Y021517D01*
X002781Y021563D01*
X002828Y021563D01*
X003015Y021376D01*
X003015Y021563D01*
X002968Y021671D02*
X003015Y021718D01*
X003015Y021811D01*
X002968Y021858D01*
X003015Y021966D02*
X003015Y022106D01*
X002968Y022153D01*
X002781Y022153D01*
X002735Y022106D01*
X002735Y021966D01*
X003015Y021966D01*
X002781Y021858D02*
X002735Y021811D01*
X002735Y021718D01*
X002781Y021671D01*
X002968Y021671D01*
X002875Y023180D02*
X002875Y023367D01*
X002875Y023475D02*
X002828Y023568D01*
X002828Y023615D01*
X002875Y023661D01*
X002968Y023661D01*
X003015Y023615D01*
X003015Y023521D01*
X002968Y023475D01*
X002875Y023475D02*
X002735Y023475D01*
X002735Y023661D01*
X002735Y023769D02*
X002922Y023769D01*
X003015Y023863D01*
X002922Y023956D01*
X002735Y023956D01*
X002781Y023273D02*
X002968Y023273D01*
X004610Y024227D02*
X004656Y024180D01*
X004843Y024180D01*
X004890Y024227D01*
X004890Y024320D01*
X004843Y024367D01*
X004750Y024367D01*
X004750Y024273D01*
X004656Y024367D02*
X004610Y024320D01*
X004610Y024227D01*
X004610Y024475D02*
X004890Y024661D01*
X004610Y024661D01*
X004610Y024769D02*
X004610Y024909D01*
X004656Y024956D01*
X004843Y024956D01*
X004890Y024909D01*
X004890Y024769D01*
X004610Y024769D01*
X004610Y024475D02*
X004890Y024475D01*
X006376Y018397D02*
X006423Y018397D01*
X006470Y018350D01*
X006517Y018397D01*
X006563Y018397D01*
X006610Y018350D01*
X006610Y018257D01*
X006563Y018210D01*
X006610Y018103D02*
X006610Y017916D01*
X006610Y018009D02*
X006330Y018009D01*
X006423Y017916D01*
X006376Y017808D02*
X006470Y017808D01*
X006517Y017761D01*
X006517Y017621D01*
X006610Y017621D02*
X006330Y017621D01*
X006330Y017761D01*
X006376Y017808D01*
X006517Y017714D02*
X006610Y017808D01*
X006376Y018210D02*
X006330Y018257D01*
X006330Y018350D01*
X006376Y018397D01*
X006470Y018350D02*
X006470Y018304D01*
X005975Y015341D02*
X005975Y015061D01*
X005882Y015061D02*
X006069Y015061D01*
X005882Y015248D02*
X005975Y015341D01*
X005774Y015295D02*
X005774Y015248D01*
X005727Y015201D01*
X005774Y015155D01*
X005774Y015108D01*
X005727Y015061D01*
X005634Y015061D01*
X005587Y015108D01*
X005479Y015061D02*
X005386Y015155D01*
X005433Y015155D02*
X005293Y015155D01*
X005293Y015061D02*
X005293Y015341D01*
X005433Y015341D01*
X005479Y015295D01*
X005479Y015201D01*
X005433Y015155D01*
X005587Y015295D02*
X005634Y015341D01*
X005727Y015341D01*
X005774Y015295D01*
X005727Y015201D02*
X005681Y015201D01*
X004590Y015239D02*
X004403Y015052D01*
X004450Y015005D01*
X004543Y015005D01*
X004590Y015052D01*
X004590Y015239D01*
X004543Y015285D01*
X004450Y015285D01*
X004403Y015239D01*
X004403Y015052D01*
X004295Y015052D02*
X004295Y015239D01*
X004249Y015285D01*
X004109Y015285D01*
X004109Y015005D01*
X004249Y015005D01*
X004295Y015052D01*
X004001Y015005D02*
X003814Y015005D01*
X003814Y015285D01*
X004001Y015285D01*
X003907Y015145D02*
X003814Y015145D01*
X003706Y015005D02*
X003519Y015005D01*
X003519Y015285D01*
X003411Y015285D02*
X003225Y015285D01*
X003318Y015285D02*
X003318Y015005D01*
X003117Y015052D02*
X003070Y015005D01*
X002977Y015005D01*
X002930Y015052D01*
X002977Y015145D02*
X003070Y015145D01*
X003117Y015098D01*
X003117Y015052D01*
X002977Y015145D02*
X002930Y015192D01*
X002930Y015239D01*
X002977Y015285D01*
X003070Y015285D01*
X003117Y015239D01*
X006985Y011831D02*
X007172Y011831D01*
X007265Y011738D01*
X007172Y011644D01*
X006985Y011644D01*
X006985Y011536D02*
X006985Y011350D01*
X007125Y011350D01*
X007078Y011443D01*
X007078Y011490D01*
X007125Y011536D01*
X007218Y011536D01*
X007265Y011490D01*
X007265Y011396D01*
X007218Y011350D01*
X007125Y011242D02*
X007125Y011055D01*
X007218Y011148D02*
X007031Y011148D01*
X007985Y011055D02*
X008078Y011148D01*
X007985Y011242D01*
X008265Y011242D01*
X008218Y011350D02*
X008265Y011396D01*
X008265Y011490D01*
X008218Y011536D01*
X008172Y011644D02*
X008172Y011784D01*
X008125Y011831D01*
X008031Y011831D01*
X007985Y011784D01*
X007985Y011644D01*
X008265Y011644D01*
X008172Y011738D02*
X008265Y011831D01*
X008265Y011939D02*
X007985Y012126D01*
X008078Y012234D02*
X007985Y012327D01*
X008265Y012327D01*
X008265Y012234D02*
X008265Y012420D01*
X008265Y012126D02*
X007985Y011939D01*
X008031Y011536D02*
X007985Y011490D01*
X007985Y011396D01*
X008031Y011350D01*
X008218Y011350D01*
X008265Y011055D02*
X007985Y011055D01*
X008985Y011055D02*
X009078Y011148D01*
X008985Y011242D01*
X009265Y011242D01*
X009218Y011350D02*
X009031Y011350D01*
X008985Y011396D01*
X008985Y011490D01*
X009031Y011536D01*
X008985Y011644D02*
X008985Y011831D01*
X008985Y011738D02*
X009265Y011738D01*
X009265Y011939D02*
X008985Y012126D01*
X009078Y012234D02*
X008985Y012327D01*
X009265Y012327D01*
X009265Y012234D02*
X009265Y012420D01*
X009265Y012126D02*
X008985Y011939D01*
X009218Y011536D02*
X009265Y011490D01*
X009265Y011396D01*
X009218Y011350D01*
X009265Y011055D02*
X008985Y011055D01*
X009985Y011102D02*
X010031Y011055D01*
X010218Y011055D01*
X010265Y011102D01*
X010265Y011195D01*
X010218Y011242D01*
X010125Y011242D01*
X010125Y011148D01*
X010031Y011242D02*
X009985Y011195D01*
X009985Y011102D01*
X009985Y011350D02*
X010265Y011536D01*
X009985Y011536D01*
X009985Y011644D02*
X009985Y011784D01*
X010031Y011831D01*
X010218Y011831D01*
X010265Y011784D01*
X010265Y011644D01*
X009985Y011644D01*
X009985Y011350D02*
X010265Y011350D01*
X011610Y011350D02*
X011750Y011350D01*
X011703Y011443D01*
X011703Y011490D01*
X011750Y011536D01*
X011843Y011536D01*
X011890Y011490D01*
X011890Y011396D01*
X011843Y011350D01*
X011750Y011242D02*
X011750Y011055D01*
X011843Y011148D02*
X011656Y011148D01*
X011610Y011350D02*
X011610Y011536D01*
X011610Y011644D02*
X011797Y011644D01*
X011890Y011738D01*
X011797Y011831D01*
X011610Y011831D01*
X012610Y011784D02*
X012610Y011644D01*
X012890Y011644D01*
X012797Y011644D02*
X012797Y011784D01*
X012750Y011831D01*
X012656Y011831D01*
X012610Y011784D01*
X012610Y011939D02*
X012890Y012126D01*
X012890Y012234D02*
X012703Y012420D01*
X012656Y012420D01*
X012610Y012374D01*
X012610Y012280D01*
X012656Y012234D01*
X012610Y012126D02*
X012890Y011939D01*
X012890Y011831D02*
X012797Y011738D01*
X012843Y011536D02*
X012890Y011490D01*
X012890Y011396D01*
X012843Y011350D01*
X012656Y011350D01*
X012610Y011396D01*
X012610Y011490D01*
X012656Y011536D01*
X012610Y011242D02*
X012890Y011242D01*
X012890Y011055D02*
X012610Y011055D01*
X012703Y011148D01*
X012610Y011242D01*
X013610Y011242D02*
X013890Y011242D01*
X013843Y011350D02*
X013890Y011396D01*
X013890Y011490D01*
X013843Y011536D01*
X013843Y011350D02*
X013656Y011350D01*
X013610Y011396D01*
X013610Y011490D01*
X013656Y011536D01*
X013610Y011644D02*
X013610Y011831D01*
X013610Y011738D02*
X013890Y011738D01*
X013890Y011939D02*
X013610Y012126D01*
X013656Y012234D02*
X013610Y012280D01*
X013610Y012374D01*
X013656Y012420D01*
X013703Y012420D01*
X013890Y012234D01*
X013890Y012420D01*
X013890Y012126D02*
X013610Y011939D01*
X013610Y011242D02*
X013703Y011148D01*
X013610Y011055D01*
X013890Y011055D01*
X014610Y011102D02*
X014656Y011055D01*
X014843Y011055D01*
X014890Y011102D01*
X014890Y011195D01*
X014843Y011242D01*
X014750Y011242D01*
X014750Y011148D01*
X014656Y011242D02*
X014610Y011195D01*
X014610Y011102D01*
X014610Y011350D02*
X014890Y011536D01*
X014610Y011536D01*
X014610Y011644D02*
X014610Y011784D01*
X014656Y011831D01*
X014843Y011831D01*
X014890Y011784D01*
X014890Y011644D01*
X014610Y011644D01*
X014610Y011350D02*
X014890Y011350D01*
X012890Y012234D02*
X012890Y012420D01*
X017633Y019096D02*
X017726Y019096D01*
X017773Y019143D01*
X017881Y019096D02*
X018068Y019096D01*
X017974Y019096D02*
X017974Y019376D01*
X017881Y019283D01*
X017773Y019329D02*
X017726Y019376D01*
X017633Y019376D01*
X017586Y019329D01*
X017586Y019143D01*
X017633Y019096D01*
X018461Y019914D02*
X018508Y019868D01*
X018601Y019868D01*
X018648Y019914D01*
X018756Y019868D02*
X018943Y020054D01*
X018943Y020101D01*
X018896Y020148D01*
X018803Y020148D01*
X018756Y020101D01*
X018648Y020101D02*
X018601Y020148D01*
X018508Y020148D01*
X018461Y020101D01*
X018461Y019914D01*
X018756Y019868D02*
X018943Y019868D01*
X018865Y020555D02*
X018771Y020555D01*
X018725Y020602D01*
X018725Y020695D02*
X018818Y020742D01*
X018865Y020742D01*
X018911Y020695D01*
X018911Y020602D01*
X018865Y020555D01*
X018725Y020695D02*
X018725Y020835D01*
X018911Y020835D01*
X018617Y020789D02*
X018570Y020835D01*
X018477Y020835D01*
X018430Y020789D01*
X018430Y020602D01*
X018477Y020555D01*
X018570Y020555D01*
X018617Y020602D01*
X020364Y019592D02*
X020364Y019312D01*
X020364Y019405D02*
X020504Y019405D01*
X020550Y019452D01*
X020550Y019546D01*
X020504Y019592D01*
X020364Y019592D01*
X020457Y019405D02*
X020550Y019312D01*
X020658Y019312D02*
X020845Y019499D01*
X020845Y019546D01*
X020798Y019592D01*
X020705Y019592D01*
X020658Y019546D01*
X020658Y019312D02*
X020845Y019312D01*
X020953Y019312D02*
X021140Y019499D01*
X021140Y019546D01*
X021093Y019592D01*
X021000Y019592D01*
X020953Y019546D01*
X020953Y019312D02*
X021140Y019312D01*
X020749Y018938D02*
X020796Y018891D01*
X020796Y018845D01*
X020749Y018798D01*
X020656Y018798D01*
X020609Y018845D01*
X020609Y018891D01*
X020656Y018938D01*
X020749Y018938D01*
X020749Y018798D02*
X020796Y018751D01*
X020796Y018705D01*
X020749Y018658D01*
X020656Y018658D01*
X020609Y018705D01*
X020609Y018751D01*
X020656Y018798D01*
X020501Y018891D02*
X020454Y018938D01*
X020361Y018938D01*
X020314Y018891D01*
X020314Y018705D01*
X020361Y018658D01*
X020454Y018658D01*
X020501Y018705D01*
X029930Y012039D02*
X029930Y011852D01*
X029977Y011805D01*
X030070Y011805D01*
X030117Y011852D01*
X030117Y011945D01*
X030023Y011945D01*
X029930Y012039D02*
X029977Y012085D01*
X030070Y012085D01*
X030117Y012039D01*
X030225Y012085D02*
X030411Y011805D01*
X030411Y012085D01*
X030519Y012085D02*
X030659Y012085D01*
X030706Y012039D01*
X030706Y011852D01*
X030659Y011805D01*
X030519Y011805D01*
X030519Y012085D01*
X030225Y012085D02*
X030225Y011805D01*
D12*
X016360Y018348D02*
X016362Y018369D01*
X016368Y018389D01*
X016377Y018407D01*
X016389Y018424D01*
X016405Y018438D01*
X016423Y018449D01*
X016442Y018457D01*
X016463Y018461D01*
X016483Y018461D01*
X016504Y018457D01*
X016523Y018449D01*
X016541Y018438D01*
X016557Y018424D01*
X016569Y018407D01*
X016578Y018389D01*
X016584Y018369D01*
X016586Y018348D01*
X016584Y018327D01*
X016578Y018307D01*
X016569Y018289D01*
X016557Y018272D01*
X016541Y018258D01*
X016523Y018247D01*
X016504Y018239D01*
X016483Y018235D01*
X016463Y018235D01*
X016442Y018239D01*
X016423Y018247D01*
X016405Y018258D01*
X016389Y018272D01*
X016377Y018289D01*
X016368Y018307D01*
X016362Y018327D01*
X016360Y018348D01*
X009360Y014848D02*
X009362Y014869D01*
X009368Y014889D01*
X009377Y014907D01*
X009389Y014924D01*
X009405Y014938D01*
X009423Y014949D01*
X009442Y014957D01*
X009463Y014961D01*
X009483Y014961D01*
X009504Y014957D01*
X009523Y014949D01*
X009541Y014938D01*
X009557Y014924D01*
X009569Y014907D01*
X009578Y014889D01*
X009584Y014869D01*
X009586Y014848D01*
X009584Y014827D01*
X009578Y014807D01*
X009569Y014789D01*
X009557Y014772D01*
X009541Y014758D01*
X009523Y014747D01*
X009504Y014739D01*
X009483Y014735D01*
X009463Y014735D01*
X009442Y014739D01*
X009423Y014747D01*
X009405Y014758D01*
X009389Y014772D01*
X009377Y014789D01*
X009368Y014807D01*
X009362Y014827D01*
X009360Y014848D01*
D13*
X009535Y015185D02*
X009535Y015302D01*
X009535Y015243D02*
X009185Y015243D01*
X009185Y015185D02*
X009185Y015302D01*
X009243Y015431D02*
X009185Y015489D01*
X009185Y015606D01*
X009243Y015664D01*
X009185Y015799D02*
X009360Y015799D01*
X009301Y015916D01*
X009301Y015974D01*
X009360Y016032D01*
X009477Y016032D01*
X009535Y015974D01*
X009535Y015857D01*
X009477Y015799D01*
X009477Y015664D02*
X009535Y015606D01*
X009535Y015489D01*
X009477Y015431D01*
X009243Y015431D01*
X009185Y015799D02*
X009185Y016032D01*
X009904Y015721D02*
X009906Y015748D01*
X009912Y015775D01*
X009921Y015801D01*
X009934Y015825D01*
X009950Y015848D01*
X009969Y015867D01*
X009991Y015884D01*
X010015Y015898D01*
X010040Y015908D01*
X010067Y015915D01*
X010094Y015918D01*
X010122Y015917D01*
X010149Y015912D01*
X010175Y015904D01*
X010199Y015892D01*
X010222Y015876D01*
X010243Y015858D01*
X010260Y015837D01*
X010275Y015813D01*
X010286Y015788D01*
X010294Y015762D01*
X010298Y015735D01*
X010298Y015707D01*
X010294Y015680D01*
X010286Y015654D01*
X010275Y015629D01*
X010260Y015605D01*
X010243Y015584D01*
X010222Y015566D01*
X010200Y015550D01*
X010175Y015538D01*
X010149Y015530D01*
X010122Y015525D01*
X010094Y015524D01*
X010067Y015527D01*
X010040Y015534D01*
X010015Y015544D01*
X009991Y015558D01*
X009969Y015575D01*
X009950Y015594D01*
X009934Y015617D01*
X009921Y015641D01*
X009912Y015667D01*
X009906Y015694D01*
X009904Y015721D01*
X012511Y018711D02*
X012511Y018827D01*
X012511Y018769D02*
X012861Y018769D01*
X012861Y018711D02*
X012861Y018827D01*
X012803Y018956D02*
X012861Y019015D01*
X012861Y019131D01*
X012803Y019190D01*
X012686Y019324D02*
X012686Y019558D01*
X012511Y019500D02*
X012686Y019324D01*
X012569Y019190D02*
X012511Y019131D01*
X012511Y019015D01*
X012569Y018956D01*
X012803Y018956D01*
X013532Y018532D02*
X013532Y021288D01*
X016288Y021288D01*
X016288Y018532D01*
X013532Y018532D01*
X012861Y019500D02*
X012511Y019500D01*
X010785Y019785D02*
X021285Y019785D01*
X021329Y019787D01*
X021372Y019793D01*
X021414Y019802D01*
X021456Y019815D01*
X021496Y019832D01*
X021535Y019852D01*
X021572Y019875D01*
X021606Y019902D01*
X021639Y019931D01*
X021668Y019964D01*
X021695Y019998D01*
X021718Y020035D01*
X021738Y020074D01*
X021755Y020114D01*
X021768Y020156D01*
X021777Y020198D01*
X021783Y020241D01*
X021785Y020285D01*
X021785Y030785D01*
X021965Y030636D02*
X021965Y030411D01*
X022415Y030411D01*
X022415Y030636D01*
X022340Y030711D01*
X022040Y030711D01*
X021965Y030636D01*
X022115Y030872D02*
X021965Y031022D01*
X022415Y031022D01*
X022415Y030872D02*
X022415Y031172D01*
X022415Y030251D02*
X022415Y029951D01*
X021965Y029951D01*
X021965Y030251D01*
X022190Y030101D02*
X022190Y029951D01*
X022415Y029791D02*
X022415Y029490D01*
X021965Y029490D01*
X022040Y029330D02*
X021965Y029255D01*
X021965Y029105D01*
X022040Y029030D01*
X022340Y029030D01*
X022415Y029105D01*
X022415Y029255D01*
X022340Y029330D01*
X022040Y029330D01*
X021785Y030785D02*
X021783Y030829D01*
X021777Y030872D01*
X021768Y030914D01*
X021755Y030956D01*
X021738Y030996D01*
X021718Y031035D01*
X021695Y031072D01*
X021668Y031106D01*
X021639Y031139D01*
X021606Y031168D01*
X021572Y031195D01*
X021535Y031218D01*
X021496Y031238D01*
X021456Y031255D01*
X021414Y031268D01*
X021372Y031277D01*
X021329Y031283D01*
X021285Y031285D01*
X010785Y031285D01*
X010741Y031283D01*
X010698Y031277D01*
X010656Y031268D01*
X010614Y031255D01*
X010574Y031238D01*
X010535Y031218D01*
X010498Y031195D01*
X010464Y031168D01*
X010431Y031139D01*
X010402Y031106D01*
X010375Y031072D01*
X010352Y031035D01*
X010332Y030996D01*
X010315Y030956D01*
X010302Y030914D01*
X010293Y030872D01*
X010287Y030829D01*
X010285Y030785D01*
X010285Y020285D01*
X010287Y020241D01*
X010293Y020198D01*
X010302Y020156D01*
X010315Y020114D01*
X010332Y020074D01*
X010352Y020035D01*
X010375Y019998D01*
X010402Y019964D01*
X010431Y019931D01*
X010464Y019902D01*
X010498Y019875D01*
X010535Y019852D01*
X010574Y019832D01*
X010614Y019815D01*
X010656Y019802D01*
X010698Y019793D01*
X010741Y019787D01*
X010785Y019785D01*
X007044Y018685D02*
X006810Y018685D01*
X006927Y018685D02*
X006927Y019035D01*
X006810Y018919D01*
X005602Y022078D02*
X005660Y022136D01*
X005660Y022311D01*
X005310Y022311D01*
X005310Y022136D01*
X005368Y022078D01*
X005602Y022078D01*
X005660Y022446D02*
X005310Y022446D01*
X005660Y022680D01*
X005310Y022680D01*
X005310Y022814D02*
X005544Y022814D01*
X005660Y022931D01*
X005544Y023048D01*
X005310Y023048D01*
X005485Y023048D02*
X005485Y022814D01*
X005485Y023183D02*
X005427Y023241D01*
X005427Y023416D01*
X005310Y023416D02*
X005660Y023416D01*
X005660Y023241D01*
X005602Y023183D01*
X005485Y023183D01*
X005310Y023551D02*
X005660Y023785D01*
X005660Y023919D02*
X005660Y024153D01*
X005310Y024153D01*
X005310Y023919D01*
X005310Y023785D02*
X005660Y023551D01*
X005485Y024036D02*
X005485Y024153D01*
X005368Y024288D02*
X005310Y024346D01*
X005310Y024463D01*
X005368Y024521D01*
X005602Y024521D01*
X005660Y024463D01*
X005660Y024346D01*
X005602Y024288D01*
X005602Y024656D02*
X005660Y024714D01*
X005660Y024831D01*
X005602Y024889D01*
X005660Y025018D02*
X005660Y025135D01*
X005660Y025077D02*
X005310Y025077D01*
X005310Y025135D02*
X005310Y025018D01*
X005310Y024889D02*
X005544Y024656D01*
X005602Y024656D01*
X005310Y024656D02*
X005310Y024889D01*
X006910Y025373D02*
X006910Y025548D01*
X006968Y025606D01*
X007085Y025606D01*
X007143Y025548D01*
X007143Y025373D01*
X007143Y025489D02*
X007260Y025606D01*
X007260Y025741D02*
X007260Y025974D01*
X007260Y025858D02*
X006910Y025858D01*
X007026Y025741D01*
X007026Y026109D02*
X006968Y026109D01*
X006910Y026168D01*
X006910Y026284D01*
X006968Y026343D01*
X007202Y026343D01*
X007260Y026284D01*
X007260Y026168D01*
X007202Y026109D01*
X007085Y026168D02*
X007085Y026343D01*
X007085Y026168D02*
X007026Y026109D01*
X006910Y025373D02*
X007260Y025373D01*
X008785Y025373D02*
X008785Y025548D01*
X008843Y025606D01*
X008960Y025606D01*
X009018Y025548D01*
X009018Y025373D01*
X009018Y025489D02*
X009135Y025606D01*
X009135Y025741D02*
X008901Y025974D01*
X008843Y025974D01*
X008785Y025916D01*
X008785Y025799D01*
X008843Y025741D01*
X009135Y025741D02*
X009135Y025974D01*
X009077Y026109D02*
X008843Y026343D01*
X009077Y026343D01*
X009135Y026284D01*
X009135Y026168D01*
X009077Y026109D01*
X008843Y026109D01*
X008785Y026168D01*
X008785Y026284D01*
X008843Y026343D01*
X008785Y025373D02*
X009135Y025373D01*
X008160Y030027D02*
X007660Y030027D01*
X007410Y031277D01*
X007035Y031277D02*
X007160Y030277D01*
X006660Y030277D02*
X006785Y031277D01*
X007035Y031277D01*
X008410Y031277D02*
X008160Y030027D01*
X008660Y030277D02*
X008785Y031277D01*
X009035Y031277D01*
X009160Y030277D01*
X013935Y030985D02*
X014169Y030985D01*
X014052Y031102D02*
X014052Y030868D01*
X014303Y030868D02*
X014362Y030810D01*
X014478Y030810D01*
X014537Y030868D01*
X014537Y030927D01*
X014478Y030985D01*
X014420Y030985D01*
X014478Y030985D02*
X014537Y031044D01*
X014537Y031102D01*
X014478Y031160D01*
X014362Y031160D01*
X014303Y031102D01*
X014672Y031160D02*
X014672Y030927D01*
X014788Y030810D01*
X014905Y030927D01*
X014905Y031160D01*
X015040Y031102D02*
X015098Y031160D01*
X015215Y031160D01*
X015273Y031102D01*
X015273Y031044D01*
X015215Y030985D01*
X015273Y030927D01*
X015273Y030868D01*
X015215Y030810D01*
X015098Y030810D01*
X015040Y030868D01*
X015157Y030985D02*
X015215Y030985D01*
X016310Y031044D02*
X016368Y030985D01*
X016485Y030985D01*
X016544Y030927D01*
X016544Y030868D01*
X016485Y030810D01*
X016368Y030810D01*
X016310Y030868D01*
X016310Y031044D02*
X016310Y031102D01*
X016368Y031160D01*
X016485Y031160D01*
X016544Y031102D01*
X016678Y031102D02*
X016678Y030868D01*
X016737Y030810D01*
X016853Y030810D01*
X016912Y030868D01*
X017047Y030810D02*
X017280Y030810D01*
X017047Y030810D02*
X017047Y031160D01*
X016912Y031102D02*
X016853Y031160D01*
X016737Y031160D01*
X016678Y031102D01*
X016222Y028660D02*
X016047Y028660D01*
X016047Y028310D01*
X016222Y028310D01*
X016280Y028368D01*
X016280Y028602D01*
X016222Y028660D01*
X015912Y028660D02*
X015912Y028310D01*
X015678Y028660D01*
X015678Y028310D01*
X015544Y028368D02*
X015544Y028485D01*
X015427Y028485D01*
X015544Y028368D02*
X015485Y028310D01*
X015368Y028310D01*
X015310Y028368D01*
X015310Y028602D01*
X015368Y028660D01*
X015485Y028660D01*
X015544Y028602D01*
X017310Y028602D02*
X017310Y028544D01*
X017368Y028485D01*
X017485Y028485D01*
X017544Y028427D01*
X017544Y028368D01*
X017485Y028310D01*
X017368Y028310D01*
X017310Y028368D01*
X017310Y028602D02*
X017368Y028660D01*
X017485Y028660D01*
X017544Y028602D01*
X017678Y028660D02*
X017853Y028660D01*
X017912Y028602D01*
X017912Y028368D01*
X017853Y028310D01*
X017678Y028310D01*
X017678Y028660D01*
X018047Y028544D02*
X018047Y028310D01*
X018047Y028485D02*
X018280Y028485D01*
X018280Y028544D02*
X018280Y028310D01*
X018280Y028544D02*
X018163Y028660D01*
X018047Y028544D01*
X024823Y029728D02*
X024823Y030179D01*
X025048Y030179D01*
X025123Y030104D01*
X025123Y029953D01*
X025048Y029878D01*
X024823Y029878D01*
X024973Y029878D02*
X025123Y029728D01*
X025283Y029803D02*
X025358Y029728D01*
X025508Y029728D01*
X025583Y029803D01*
X025583Y030104D01*
X025508Y030179D01*
X025358Y030179D01*
X025283Y030104D01*
X025283Y029803D01*
X025744Y030179D02*
X026044Y030179D01*
X025894Y030179D02*
X025894Y029728D01*
X026204Y029728D02*
X026204Y030029D01*
X026354Y030179D01*
X026504Y030029D01*
X026504Y029728D01*
X026664Y029728D02*
X026664Y030179D01*
X026890Y030179D01*
X026965Y030104D01*
X026965Y029953D01*
X026890Y029878D01*
X026664Y029878D01*
X026814Y029878D02*
X026965Y029728D01*
X027275Y029728D02*
X027275Y029953D01*
X027425Y030104D01*
X027425Y030179D01*
X027585Y030179D02*
X027585Y029728D01*
X027885Y029728D01*
X028046Y029728D02*
X028046Y030179D01*
X028346Y029728D01*
X028346Y030179D01*
X028506Y030104D02*
X028506Y029803D01*
X028581Y029728D01*
X028731Y029728D01*
X028806Y029803D01*
X028806Y030104D02*
X028731Y030179D01*
X028581Y030179D01*
X028506Y030104D01*
X027885Y030179D02*
X027585Y030179D01*
X027585Y029953D02*
X027735Y029953D01*
X027275Y029953D02*
X027125Y030104D01*
X027125Y030179D01*
X026504Y029953D02*
X026204Y029953D01*
X023225Y021914D02*
X023075Y021914D01*
X023000Y021839D01*
X023000Y021764D01*
X023075Y021613D01*
X022850Y021613D01*
X022850Y021914D01*
X023225Y021914D02*
X023300Y021839D01*
X023300Y021688D01*
X023225Y021613D01*
X025035Y016905D02*
X025093Y016788D01*
X025210Y016672D01*
X025210Y016847D01*
X025268Y016905D01*
X025327Y016905D01*
X025385Y016847D01*
X025385Y016730D01*
X025327Y016672D01*
X025210Y016672D01*
X025210Y016537D02*
X025327Y016537D01*
X025385Y016478D01*
X025385Y016362D01*
X025327Y016303D01*
X025210Y016303D02*
X025151Y016420D01*
X025151Y016478D01*
X025210Y016537D01*
X025035Y016537D02*
X025035Y016303D01*
X025210Y016303D01*
X025327Y016169D02*
X025385Y016110D01*
X025385Y015993D01*
X025327Y015935D01*
X025093Y015935D01*
X025035Y015993D01*
X025035Y016110D01*
X025093Y016169D01*
X025035Y015530D02*
X025035Y015297D01*
X025210Y015297D01*
X025151Y015413D01*
X025151Y015472D01*
X025210Y015530D01*
X025327Y015530D01*
X025385Y015472D01*
X025385Y015355D01*
X025327Y015297D01*
X025327Y015162D02*
X025385Y015103D01*
X025385Y014987D01*
X025327Y014928D01*
X025210Y014928D02*
X025151Y015045D01*
X025151Y015103D01*
X025210Y015162D01*
X025327Y015162D01*
X025210Y014928D02*
X025035Y014928D01*
X025035Y015162D01*
X025093Y014794D02*
X025035Y014735D01*
X025035Y014618D01*
X025093Y014560D01*
X025327Y014560D01*
X025385Y014618D01*
X025385Y014735D01*
X025327Y014794D01*
X023300Y016063D02*
X023300Y016364D01*
X023300Y016214D02*
X022850Y016214D01*
X023000Y016063D01*
X021050Y014385D02*
X021050Y014327D01*
X020817Y014093D01*
X020817Y014035D01*
X020682Y014093D02*
X020624Y014035D01*
X020507Y014035D01*
X020448Y014093D01*
X020448Y014210D02*
X020565Y014269D01*
X020624Y014269D01*
X020682Y014210D01*
X020682Y014093D01*
X020448Y014210D02*
X020448Y014385D01*
X020682Y014385D01*
X020817Y014385D02*
X021050Y014385D01*
X020314Y014327D02*
X020255Y014385D01*
X020138Y014385D01*
X020080Y014327D01*
X020080Y014093D01*
X020138Y014035D01*
X020255Y014035D01*
X020314Y014093D01*
X018764Y015591D02*
X018823Y015650D01*
X018823Y015766D01*
X018764Y015825D01*
X018823Y015960D02*
X018823Y016193D01*
X018823Y016076D02*
X018472Y016076D01*
X018589Y015960D01*
X018531Y015825D02*
X018472Y015766D01*
X018472Y015650D01*
X018531Y015591D01*
X018764Y015591D01*
X018229Y015650D02*
X018229Y015766D01*
X018170Y015825D01*
X018229Y015960D02*
X018229Y016193D01*
X018229Y016076D02*
X017878Y016076D01*
X017995Y015960D01*
X017937Y015825D02*
X017878Y015766D01*
X017878Y015650D01*
X017937Y015591D01*
X018170Y015591D01*
X018229Y015650D01*
X018170Y016328D02*
X018229Y016386D01*
X018229Y016503D01*
X018170Y016561D01*
X017937Y016561D01*
X017878Y016503D01*
X017878Y016386D01*
X017937Y016328D01*
X017995Y016328D01*
X018054Y016386D01*
X018054Y016561D01*
X018472Y016503D02*
X018531Y016561D01*
X018589Y016561D01*
X018647Y016503D01*
X018647Y016386D01*
X018589Y016328D01*
X018531Y016328D01*
X018472Y016386D01*
X018472Y016503D01*
X018647Y016503D02*
X018706Y016561D01*
X018764Y016561D01*
X018823Y016503D01*
X018823Y016386D01*
X018764Y016328D01*
X018706Y016328D01*
X018647Y016386D01*
X018178Y017810D02*
X018178Y017868D01*
X018412Y018102D01*
X018412Y018160D01*
X018178Y018160D01*
X018044Y018102D02*
X017985Y018160D01*
X017868Y018160D01*
X017810Y018102D01*
X017810Y017868D01*
X017868Y017810D01*
X017985Y017810D01*
X018044Y017868D01*
X015820Y018839D02*
X015822Y018865D01*
X015828Y018891D01*
X015838Y018916D01*
X015851Y018939D01*
X015867Y018959D01*
X015887Y018977D01*
X015909Y018992D01*
X015932Y019004D01*
X015958Y019012D01*
X015984Y019016D01*
X016010Y019016D01*
X016036Y019012D01*
X016062Y019004D01*
X016086Y018992D01*
X016107Y018977D01*
X016127Y018959D01*
X016143Y018939D01*
X016156Y018916D01*
X016166Y018891D01*
X016172Y018865D01*
X016174Y018839D01*
X016172Y018813D01*
X016166Y018787D01*
X016156Y018762D01*
X016143Y018739D01*
X016127Y018719D01*
X016107Y018701D01*
X016085Y018686D01*
X016062Y018674D01*
X016036Y018666D01*
X016010Y018662D01*
X015984Y018662D01*
X015958Y018666D01*
X015932Y018674D01*
X015908Y018686D01*
X015887Y018701D01*
X015867Y018719D01*
X015851Y018739D01*
X015838Y018762D01*
X015828Y018787D01*
X015822Y018813D01*
X015820Y018839D01*
X017160Y013357D02*
X017218Y013357D01*
X017452Y013124D01*
X017510Y013124D01*
X017452Y012989D02*
X017510Y012931D01*
X017510Y012814D01*
X017452Y012756D01*
X017218Y012756D01*
X017160Y012814D01*
X017160Y012931D01*
X017218Y012989D01*
X017160Y013124D02*
X017160Y013357D01*
X017160Y012627D02*
X017160Y012510D01*
X017160Y012568D02*
X017510Y012568D01*
X017510Y012510D02*
X017510Y012627D01*
X020080Y011827D02*
X020080Y011593D01*
X020138Y011535D01*
X020255Y011535D01*
X020314Y011593D01*
X020448Y011593D02*
X020507Y011535D01*
X020624Y011535D01*
X020682Y011593D01*
X020682Y011710D01*
X020624Y011769D01*
X020565Y011769D01*
X020448Y011710D01*
X020448Y011885D01*
X020682Y011885D01*
X020817Y011827D02*
X020817Y011769D01*
X020875Y011710D01*
X020992Y011710D01*
X021050Y011652D01*
X021050Y011593D01*
X020992Y011535D01*
X020875Y011535D01*
X020817Y011593D01*
X020817Y011652D01*
X020875Y011710D01*
X020992Y011710D02*
X021050Y011769D01*
X021050Y011827D01*
X020992Y011885D01*
X020875Y011885D01*
X020817Y011827D01*
X020314Y011827D02*
X020255Y011885D01*
X020138Y011885D01*
X020080Y011827D01*
X023951Y011935D02*
X023951Y011585D01*
X024185Y011585D01*
X024320Y011585D02*
X024553Y011585D01*
X024436Y011585D02*
X024436Y011935D01*
X024320Y011819D01*
X025080Y011702D02*
X025080Y011468D01*
X025138Y011410D01*
X025255Y011410D01*
X025314Y011468D01*
X025448Y011468D02*
X025507Y011410D01*
X025624Y011410D01*
X025682Y011468D01*
X025682Y011585D01*
X025624Y011644D01*
X025565Y011644D01*
X025448Y011585D01*
X025448Y011760D01*
X025682Y011760D01*
X025817Y011702D02*
X025875Y011760D01*
X025992Y011760D01*
X026050Y011702D01*
X026050Y011644D01*
X025992Y011585D01*
X026050Y011527D01*
X026050Y011468D01*
X025992Y011410D01*
X025875Y011410D01*
X025817Y011468D01*
X025933Y011585D02*
X025992Y011585D01*
X025314Y011702D02*
X025255Y011760D01*
X025138Y011760D01*
X025080Y011702D01*
X027935Y011935D02*
X027935Y012285D01*
X028110Y012285D01*
X028169Y012227D01*
X028169Y012110D01*
X028110Y012052D01*
X027935Y012052D01*
X028052Y012052D02*
X028169Y011935D01*
X028303Y011935D02*
X028537Y011935D01*
X028420Y011935D02*
X028420Y012285D01*
X028303Y012169D01*
X028672Y012110D02*
X028788Y012227D01*
X028905Y012285D01*
X028847Y012110D02*
X028672Y012110D01*
X028672Y011993D01*
X028730Y011935D01*
X028847Y011935D01*
X028905Y011993D01*
X028905Y012052D01*
X028847Y012110D01*
X028847Y012560D02*
X028847Y012910D01*
X028672Y012735D01*
X028905Y012735D01*
X028537Y012735D02*
X028537Y012618D01*
X028478Y012560D01*
X028362Y012560D01*
X028303Y012618D01*
X028303Y012735D02*
X028420Y012794D01*
X028478Y012794D01*
X028537Y012735D01*
X028537Y012910D02*
X028303Y012910D01*
X028303Y012735D01*
X028169Y012618D02*
X028110Y012560D01*
X027993Y012560D01*
X027935Y012618D01*
X027935Y012852D01*
X027993Y012910D01*
X028110Y012910D01*
X028169Y012852D01*
X028110Y011410D02*
X027935Y011410D01*
X027935Y011060D01*
X027935Y011177D02*
X028110Y011177D01*
X028169Y011235D01*
X028169Y011352D01*
X028110Y011410D01*
X028303Y011352D02*
X028362Y011410D01*
X028478Y011410D01*
X028537Y011352D01*
X028537Y011294D01*
X028303Y011060D01*
X028537Y011060D01*
X028672Y011118D02*
X028730Y011060D01*
X028847Y011060D01*
X028905Y011118D01*
X028905Y011352D01*
X028847Y011410D01*
X028730Y011410D01*
X028672Y011352D01*
X028672Y011294D01*
X028730Y011235D01*
X028905Y011235D01*
X028169Y011060D02*
X028052Y011177D01*
X033535Y011435D02*
X033535Y011552D01*
X033535Y011493D02*
X033885Y011493D01*
X033885Y011435D02*
X033885Y011552D01*
X033827Y011681D02*
X033885Y011739D01*
X033885Y011856D01*
X033827Y011914D01*
X033593Y011914D01*
X033535Y011856D01*
X033535Y011739D01*
X033593Y011681D01*
X033827Y011681D01*
X033885Y012049D02*
X033535Y012049D01*
X033535Y012224D01*
X033593Y012282D01*
X033710Y012282D01*
X033768Y012224D01*
X033768Y012049D01*
X033827Y012417D02*
X033593Y012417D01*
X033535Y012476D01*
X033535Y012592D01*
X033593Y012651D01*
X033827Y012651D01*
X033885Y012592D01*
X033885Y012476D01*
X033827Y012417D01*
X033885Y012785D02*
X033535Y012785D01*
X033535Y012961D01*
X033593Y013019D01*
X033710Y013019D01*
X033768Y012961D01*
X033768Y012785D01*
X033768Y012902D02*
X033885Y013019D01*
X033885Y013271D02*
X033535Y013271D01*
X033535Y013387D02*
X033535Y013154D01*
X013017Y008102D02*
X012958Y008160D01*
X012842Y008160D01*
X012783Y008102D01*
X012648Y008160D02*
X012415Y008160D01*
X012532Y008160D02*
X012532Y007810D01*
X012783Y007810D02*
X013017Y008044D01*
X013017Y008102D01*
X013017Y007810D02*
X012783Y007810D01*
X012280Y007810D02*
X012163Y007927D01*
X012222Y007927D02*
X012047Y007927D01*
X012047Y007810D02*
X012047Y008160D01*
X012222Y008160D01*
X012280Y008102D01*
X012280Y007985D01*
X012222Y007927D01*
X011912Y007985D02*
X011678Y007985D01*
X011678Y008044D02*
X011795Y008160D01*
X011912Y008044D01*
X011912Y007810D01*
X011678Y007810D02*
X011678Y008044D01*
X011544Y008160D02*
X011544Y007868D01*
X011485Y007810D01*
X011368Y007810D01*
X011310Y007868D01*
X011310Y008160D01*
X008392Y007810D02*
X008158Y007810D01*
X008275Y007810D02*
X008275Y008160D01*
X008158Y008044D01*
X008023Y008160D02*
X007790Y008160D01*
X007907Y008160D02*
X007907Y007810D01*
X007655Y007810D02*
X007538Y007927D01*
X007597Y007927D02*
X007422Y007927D01*
X007422Y007810D02*
X007422Y008160D01*
X007597Y008160D01*
X007655Y008102D01*
X007655Y007985D01*
X007597Y007927D01*
X007287Y007985D02*
X007053Y007985D01*
X007053Y008044D02*
X007170Y008160D01*
X007287Y008044D01*
X007287Y007810D01*
X007053Y007810D02*
X007053Y008044D01*
X006919Y008160D02*
X006919Y007868D01*
X006860Y007810D01*
X006743Y007810D01*
X006685Y007868D01*
X006685Y008160D01*
X003160Y017372D02*
X003160Y017605D01*
X003160Y017488D02*
X002810Y017488D01*
X002868Y017740D02*
X003102Y017740D01*
X003160Y017798D01*
X003160Y017915D01*
X003102Y017973D01*
X002868Y017973D01*
X002810Y017915D01*
X002810Y017798D01*
X002868Y017740D01*
X002868Y018108D02*
X003102Y018108D01*
X003160Y018167D01*
X003160Y018283D01*
X003102Y018342D01*
X002868Y018342D01*
X002810Y018283D01*
X002810Y018167D01*
X002868Y018108D01*
X002868Y018476D02*
X002810Y018535D01*
X002810Y018710D01*
X003160Y018710D01*
X003160Y018535D01*
X003102Y018476D01*
X003044Y018476D01*
X002985Y018535D01*
X002985Y018710D01*
X002985Y018535D02*
X002927Y018476D01*
X002868Y018476D01*
D14*
X003197Y007660D02*
X033224Y007660D01*
X033281Y007666D01*
X033338Y007676D01*
X033394Y007690D01*
X033449Y007708D01*
X033503Y007729D01*
X033555Y007754D01*
X033605Y007783D01*
X033653Y007815D01*
X033699Y007850D01*
X033743Y007888D01*
X033783Y007928D01*
X033821Y007972D01*
X033856Y008018D01*
X033888Y008066D01*
X033917Y008116D01*
X033942Y008168D01*
X033963Y008222D01*
X033981Y008277D01*
X033995Y008333D01*
X034005Y008390D01*
X034011Y008447D01*
X034011Y030637D01*
X034011Y030638D02*
X034005Y030695D01*
X033995Y030752D01*
X033981Y030808D01*
X033963Y030863D01*
X033942Y030917D01*
X033917Y030969D01*
X033888Y031019D01*
X033856Y031067D01*
X033821Y031113D01*
X033783Y031157D01*
X033743Y031197D01*
X033699Y031235D01*
X033653Y031270D01*
X033605Y031302D01*
X033555Y031331D01*
X033503Y031356D01*
X033449Y031377D01*
X033394Y031395D01*
X033338Y031409D01*
X033281Y031419D01*
X033224Y031425D01*
X003197Y031425D01*
X003140Y031419D01*
X003083Y031409D01*
X003027Y031395D01*
X002972Y031377D01*
X002918Y031356D01*
X002866Y031331D01*
X002816Y031302D01*
X002768Y031270D01*
X002722Y031235D01*
X002678Y031197D01*
X002638Y031157D01*
X002600Y031113D01*
X002565Y031067D01*
X002533Y031019D01*
X002504Y030969D01*
X002479Y030917D01*
X002458Y030863D01*
X002440Y030808D01*
X002426Y030752D01*
X002416Y030695D01*
X002410Y030638D01*
X002410Y030637D02*
X002410Y008447D01*
X002416Y008390D01*
X002426Y008333D01*
X002440Y008277D01*
X002458Y008222D01*
X002479Y008168D01*
X002504Y008116D01*
X002533Y008066D01*
X002565Y008018D01*
X002600Y007972D01*
X002638Y007928D01*
X002678Y007888D01*
X002722Y007850D01*
X002768Y007815D01*
X002816Y007783D01*
X002866Y007754D01*
X002918Y007729D01*
X002972Y007708D01*
X003027Y007690D01*
X003083Y007676D01*
X003140Y007666D01*
X003197Y007660D01*
X003749Y009629D02*
X003751Y009679D01*
X003757Y009729D01*
X003767Y009778D01*
X003781Y009826D01*
X003798Y009873D01*
X003819Y009918D01*
X003844Y009962D01*
X003872Y010003D01*
X003904Y010042D01*
X003938Y010079D01*
X003975Y010113D01*
X004015Y010143D01*
X004057Y010170D01*
X004101Y010194D01*
X004147Y010215D01*
X004194Y010231D01*
X004242Y010244D01*
X004292Y010253D01*
X004341Y010258D01*
X004392Y010259D01*
X004442Y010256D01*
X004491Y010249D01*
X004540Y010238D01*
X004588Y010223D01*
X004634Y010205D01*
X004679Y010183D01*
X004722Y010157D01*
X004763Y010128D01*
X004802Y010096D01*
X004838Y010061D01*
X004870Y010023D01*
X004900Y009983D01*
X004927Y009940D01*
X004950Y009896D01*
X004969Y009850D01*
X004985Y009802D01*
X004997Y009753D01*
X005005Y009704D01*
X005009Y009654D01*
X005009Y009604D01*
X005005Y009554D01*
X004997Y009505D01*
X004985Y009456D01*
X004969Y009408D01*
X004950Y009362D01*
X004927Y009318D01*
X004900Y009275D01*
X004870Y009235D01*
X004838Y009197D01*
X004802Y009162D01*
X004763Y009130D01*
X004722Y009101D01*
X004679Y009075D01*
X004634Y009053D01*
X004588Y009035D01*
X004540Y009020D01*
X004491Y009009D01*
X004442Y009002D01*
X004392Y008999D01*
X004341Y009000D01*
X004292Y009005D01*
X004242Y009014D01*
X004194Y009027D01*
X004147Y009043D01*
X004101Y009064D01*
X004057Y009088D01*
X004015Y009115D01*
X003975Y009145D01*
X003938Y009179D01*
X003904Y009216D01*
X003872Y009255D01*
X003844Y009296D01*
X003819Y009340D01*
X003798Y009385D01*
X003781Y009432D01*
X003767Y009480D01*
X003757Y009529D01*
X003751Y009579D01*
X003749Y009629D01*
X003749Y029456D02*
X003751Y029506D01*
X003757Y029556D01*
X003767Y029605D01*
X003781Y029653D01*
X003798Y029700D01*
X003819Y029745D01*
X003844Y029789D01*
X003872Y029830D01*
X003904Y029869D01*
X003938Y029906D01*
X003975Y029940D01*
X004015Y029970D01*
X004057Y029997D01*
X004101Y030021D01*
X004147Y030042D01*
X004194Y030058D01*
X004242Y030071D01*
X004292Y030080D01*
X004341Y030085D01*
X004392Y030086D01*
X004442Y030083D01*
X004491Y030076D01*
X004540Y030065D01*
X004588Y030050D01*
X004634Y030032D01*
X004679Y030010D01*
X004722Y029984D01*
X004763Y029955D01*
X004802Y029923D01*
X004838Y029888D01*
X004870Y029850D01*
X004900Y029810D01*
X004927Y029767D01*
X004950Y029723D01*
X004969Y029677D01*
X004985Y029629D01*
X004997Y029580D01*
X005005Y029531D01*
X005009Y029481D01*
X005009Y029431D01*
X005005Y029381D01*
X004997Y029332D01*
X004985Y029283D01*
X004969Y029235D01*
X004950Y029189D01*
X004927Y029145D01*
X004900Y029102D01*
X004870Y029062D01*
X004838Y029024D01*
X004802Y028989D01*
X004763Y028957D01*
X004722Y028928D01*
X004679Y028902D01*
X004634Y028880D01*
X004588Y028862D01*
X004540Y028847D01*
X004491Y028836D01*
X004442Y028829D01*
X004392Y028826D01*
X004341Y028827D01*
X004292Y028832D01*
X004242Y028841D01*
X004194Y028854D01*
X004147Y028870D01*
X004101Y028891D01*
X004057Y028915D01*
X004015Y028942D01*
X003975Y028972D01*
X003938Y029006D01*
X003904Y029043D01*
X003872Y029082D01*
X003844Y029123D01*
X003819Y029167D01*
X003798Y029212D01*
X003781Y029259D01*
X003767Y029307D01*
X003757Y029356D01*
X003751Y029406D01*
X003749Y029456D01*
X031413Y029456D02*
X031415Y029506D01*
X031421Y029556D01*
X031431Y029605D01*
X031445Y029653D01*
X031462Y029700D01*
X031483Y029745D01*
X031508Y029789D01*
X031536Y029830D01*
X031568Y029869D01*
X031602Y029906D01*
X031639Y029940D01*
X031679Y029970D01*
X031721Y029997D01*
X031765Y030021D01*
X031811Y030042D01*
X031858Y030058D01*
X031906Y030071D01*
X031956Y030080D01*
X032005Y030085D01*
X032056Y030086D01*
X032106Y030083D01*
X032155Y030076D01*
X032204Y030065D01*
X032252Y030050D01*
X032298Y030032D01*
X032343Y030010D01*
X032386Y029984D01*
X032427Y029955D01*
X032466Y029923D01*
X032502Y029888D01*
X032534Y029850D01*
X032564Y029810D01*
X032591Y029767D01*
X032614Y029723D01*
X032633Y029677D01*
X032649Y029629D01*
X032661Y029580D01*
X032669Y029531D01*
X032673Y029481D01*
X032673Y029431D01*
X032669Y029381D01*
X032661Y029332D01*
X032649Y029283D01*
X032633Y029235D01*
X032614Y029189D01*
X032591Y029145D01*
X032564Y029102D01*
X032534Y029062D01*
X032502Y029024D01*
X032466Y028989D01*
X032427Y028957D01*
X032386Y028928D01*
X032343Y028902D01*
X032298Y028880D01*
X032252Y028862D01*
X032204Y028847D01*
X032155Y028836D01*
X032106Y028829D01*
X032056Y028826D01*
X032005Y028827D01*
X031956Y028832D01*
X031906Y028841D01*
X031858Y028854D01*
X031811Y028870D01*
X031765Y028891D01*
X031721Y028915D01*
X031679Y028942D01*
X031639Y028972D01*
X031602Y029006D01*
X031568Y029043D01*
X031536Y029082D01*
X031508Y029123D01*
X031483Y029167D01*
X031462Y029212D01*
X031445Y029259D01*
X031431Y029307D01*
X031421Y029356D01*
X031415Y029406D01*
X031413Y029456D01*
X031413Y009629D02*
X031415Y009679D01*
X031421Y009729D01*
X031431Y009778D01*
X031445Y009826D01*
X031462Y009873D01*
X031483Y009918D01*
X031508Y009962D01*
X031536Y010003D01*
X031568Y010042D01*
X031602Y010079D01*
X031639Y010113D01*
X031679Y010143D01*
X031721Y010170D01*
X031765Y010194D01*
X031811Y010215D01*
X031858Y010231D01*
X031906Y010244D01*
X031956Y010253D01*
X032005Y010258D01*
X032056Y010259D01*
X032106Y010256D01*
X032155Y010249D01*
X032204Y010238D01*
X032252Y010223D01*
X032298Y010205D01*
X032343Y010183D01*
X032386Y010157D01*
X032427Y010128D01*
X032466Y010096D01*
X032502Y010061D01*
X032534Y010023D01*
X032564Y009983D01*
X032591Y009940D01*
X032614Y009896D01*
X032633Y009850D01*
X032649Y009802D01*
X032661Y009753D01*
X032669Y009704D01*
X032673Y009654D01*
X032673Y009604D01*
X032669Y009554D01*
X032661Y009505D01*
X032649Y009456D01*
X032633Y009408D01*
X032614Y009362D01*
X032591Y009318D01*
X032564Y009275D01*
X032534Y009235D01*
X032502Y009197D01*
X032466Y009162D01*
X032427Y009130D01*
X032386Y009101D01*
X032343Y009075D01*
X032298Y009053D01*
X032252Y009035D01*
X032204Y009020D01*
X032155Y009009D01*
X032106Y009002D01*
X032056Y008999D01*
X032005Y009000D01*
X031956Y009005D01*
X031906Y009014D01*
X031858Y009027D01*
X031811Y009043D01*
X031765Y009064D01*
X031721Y009088D01*
X031679Y009115D01*
X031639Y009145D01*
X031602Y009179D01*
X031568Y009216D01*
X031536Y009255D01*
X031508Y009296D01*
X031483Y009340D01*
X031462Y009385D01*
X031445Y009432D01*
X031431Y009480D01*
X031421Y009529D01*
X031415Y009579D01*
X031413Y009629D01*
D15*
X026997Y012930D02*
X026997Y013898D01*
X026996Y013894D02*
X026995Y013911D01*
X026990Y013928D01*
X026983Y013943D01*
X026973Y013957D01*
X026961Y013969D01*
X026947Y013979D01*
X026932Y013986D01*
X026915Y013991D01*
X026898Y013992D01*
X026898Y013993D02*
X025926Y013993D01*
X025926Y013992D02*
X025909Y013991D01*
X025892Y013986D01*
X025877Y013979D01*
X025863Y013969D01*
X025851Y013957D01*
X025841Y013943D01*
X025834Y013928D01*
X025829Y013911D01*
X025828Y013894D01*
X025827Y013898D02*
X025827Y012930D01*
X025926Y012827D02*
X026894Y012827D01*
X023575Y016488D02*
X023575Y017388D01*
X023475Y017488D01*
X023575Y017588D01*
X023575Y018388D01*
X023475Y018488D01*
X023575Y018588D01*
X023575Y019388D01*
X023475Y019488D01*
X023575Y019588D01*
X023575Y020388D01*
X023475Y020488D01*
X023575Y020588D01*
X023575Y021488D01*
X022575Y021488D01*
X022575Y020588D01*
X022675Y020488D01*
X022575Y020388D01*
X022575Y019588D01*
X022675Y019488D01*
X022575Y019388D01*
X022575Y018588D01*
X022675Y018488D01*
X022575Y018388D01*
X022575Y017588D01*
X022675Y017488D01*
X022575Y017388D01*
X022575Y016488D01*
X023575Y016488D01*
X022270Y016518D02*
X022270Y016665D01*
X022270Y016592D02*
X021830Y016592D01*
X021830Y016665D02*
X021830Y016518D01*
X021903Y016825D02*
X022197Y016825D01*
X022270Y016899D01*
X022270Y017046D01*
X022197Y017119D01*
X022197Y017286D02*
X022270Y017359D01*
X022270Y017506D01*
X022197Y017579D01*
X022123Y017579D01*
X022050Y017506D01*
X022050Y017359D01*
X021977Y017286D01*
X021903Y017286D01*
X021830Y017359D01*
X021830Y017506D01*
X021903Y017579D01*
X021830Y017746D02*
X021830Y017966D01*
X021903Y018040D01*
X022050Y018040D01*
X022123Y017966D01*
X022123Y017746D01*
X022270Y017746D02*
X021830Y017746D01*
X021903Y017119D02*
X021830Y017046D01*
X021830Y016899D01*
X021903Y016825D01*
X024469Y024367D02*
X024469Y025623D01*
X025091Y024438D02*
X025093Y024466D01*
X025099Y024493D01*
X025108Y024520D01*
X025122Y024545D01*
X025138Y024567D01*
X025158Y024587D01*
X025180Y024605D01*
X025204Y024619D01*
X025230Y024629D01*
X025257Y024636D01*
X025285Y024639D01*
X025313Y024638D01*
X025341Y024633D01*
X025367Y024624D01*
X025392Y024612D01*
X025416Y024596D01*
X025437Y024578D01*
X025455Y024556D01*
X025469Y024532D01*
X025481Y024507D01*
X025489Y024480D01*
X025493Y024452D01*
X025493Y024424D01*
X025489Y024396D01*
X025481Y024369D01*
X025469Y024344D01*
X025455Y024320D01*
X025437Y024298D01*
X025416Y024280D01*
X025393Y024264D01*
X025367Y024252D01*
X025341Y024243D01*
X025313Y024238D01*
X025285Y024237D01*
X025257Y024240D01*
X025230Y024247D01*
X025204Y024257D01*
X025180Y024271D01*
X025158Y024289D01*
X025138Y024309D01*
X025122Y024331D01*
X025108Y024356D01*
X025099Y024383D01*
X025093Y024410D01*
X025091Y024438D01*
X024670Y024367D02*
X024672Y024321D01*
X024678Y024276D01*
X024687Y024231D01*
X024700Y024187D01*
X024717Y024144D01*
X024737Y024103D01*
X024760Y024063D01*
X024787Y024026D01*
X024817Y023991D01*
X024849Y023959D01*
X024884Y023929D01*
X024921Y023902D01*
X024961Y023879D01*
X025002Y023859D01*
X025045Y023842D01*
X025089Y023829D01*
X025134Y023820D01*
X025179Y023814D01*
X025225Y023812D01*
X024670Y024367D02*
X024469Y024367D01*
X026532Y025505D02*
X026733Y025242D01*
X026735Y025242D02*
X026733Y027001D01*
X026532Y026800D01*
X026532Y025505D01*
X027087Y025242D02*
X027288Y025505D01*
X027288Y026800D01*
X027809Y026800D01*
X027933Y027001D01*
X027087Y027001D01*
X027288Y026800D01*
X027087Y027001D02*
X027087Y025242D01*
X027288Y025506D02*
X027343Y025530D01*
X027395Y025558D01*
X027446Y025589D01*
X027495Y025623D01*
X027542Y025660D01*
X027587Y025700D01*
X027629Y025743D01*
X027668Y025788D01*
X027705Y025835D01*
X027738Y025884D01*
X027769Y025936D01*
X027796Y025989D01*
X027820Y026043D01*
X027841Y026100D01*
X027858Y026157D01*
X027872Y026215D01*
X027882Y026274D01*
X027888Y026333D01*
X027891Y026393D01*
X027890Y026453D01*
X027886Y026512D01*
X027877Y026571D01*
X027866Y026630D01*
X027850Y026688D01*
X027832Y026744D01*
X027810Y026800D01*
X027087Y027001D02*
X026733Y027001D01*
X025887Y027001D01*
X026011Y026800D01*
X026532Y026800D01*
X026010Y026800D02*
X025988Y026744D01*
X025970Y026688D01*
X025954Y026630D01*
X025943Y026571D01*
X025934Y026512D01*
X025930Y026453D01*
X025929Y026393D01*
X025932Y026333D01*
X025938Y026274D01*
X025948Y026215D01*
X025962Y026157D01*
X025979Y026100D01*
X026000Y026043D01*
X026024Y025989D01*
X026051Y025936D01*
X026082Y025884D01*
X026115Y025835D01*
X026152Y025788D01*
X026191Y025743D01*
X026233Y025700D01*
X026278Y025660D01*
X026325Y025623D01*
X026374Y025589D01*
X026425Y025558D01*
X026477Y025530D01*
X026532Y025506D01*
X025729Y026410D02*
X025731Y026479D01*
X025737Y026547D01*
X025747Y026615D01*
X025761Y026682D01*
X025779Y026749D01*
X025800Y026814D01*
X025826Y026878D01*
X025855Y026940D01*
X025887Y027000D01*
X025923Y027059D01*
X025963Y027115D01*
X026005Y027169D01*
X026051Y027220D01*
X026100Y027269D01*
X026151Y027315D01*
X026205Y027357D01*
X026261Y027397D01*
X026319Y027433D01*
X026380Y027465D01*
X026442Y027494D01*
X026506Y027520D01*
X026571Y027541D01*
X026638Y027559D01*
X026705Y027573D01*
X026773Y027583D01*
X026841Y027589D01*
X026910Y027591D01*
X026979Y027589D01*
X027047Y027583D01*
X027115Y027573D01*
X027182Y027559D01*
X027249Y027541D01*
X027314Y027520D01*
X027378Y027494D01*
X027440Y027465D01*
X027500Y027433D01*
X027559Y027397D01*
X027615Y027357D01*
X027669Y027315D01*
X027720Y027269D01*
X027769Y027220D01*
X027815Y027169D01*
X027857Y027115D01*
X027897Y027059D01*
X027933Y027000D01*
X027965Y026940D01*
X027994Y026878D01*
X028020Y026814D01*
X028041Y026749D01*
X028059Y026682D01*
X028073Y026615D01*
X028083Y026547D01*
X028089Y026479D01*
X028091Y026410D01*
X028089Y026341D01*
X028083Y026273D01*
X028073Y026205D01*
X028059Y026138D01*
X028041Y026071D01*
X028020Y026006D01*
X027994Y025942D01*
X027965Y025880D01*
X027933Y025819D01*
X027897Y025761D01*
X027857Y025705D01*
X027815Y025651D01*
X027769Y025600D01*
X027720Y025551D01*
X027669Y025505D01*
X027615Y025463D01*
X027559Y025423D01*
X027501Y025387D01*
X027440Y025355D01*
X027378Y025326D01*
X027314Y025300D01*
X027249Y025279D01*
X027182Y025261D01*
X027115Y025247D01*
X027047Y025237D01*
X026979Y025231D01*
X026910Y025229D01*
X026841Y025231D01*
X026773Y025237D01*
X026705Y025247D01*
X026638Y025261D01*
X026571Y025279D01*
X026506Y025300D01*
X026442Y025326D01*
X026380Y025355D01*
X026319Y025387D01*
X026261Y025423D01*
X026205Y025463D01*
X026151Y025505D01*
X026100Y025551D01*
X026051Y025600D01*
X026005Y025651D01*
X025963Y025705D01*
X025923Y025761D01*
X025887Y025819D01*
X025855Y025880D01*
X025826Y025942D01*
X025800Y026006D01*
X025779Y026071D01*
X025761Y026138D01*
X025747Y026205D01*
X025737Y026273D01*
X025731Y026341D01*
X025729Y026410D01*
X025571Y026410D02*
X025573Y026483D01*
X025579Y026556D01*
X025589Y026628D01*
X025603Y026700D01*
X025621Y026771D01*
X025642Y026841D01*
X025668Y026910D01*
X025697Y026977D01*
X025730Y027042D01*
X025766Y027106D01*
X025806Y027167D01*
X025849Y027226D01*
X025895Y027283D01*
X025944Y027337D01*
X025996Y027389D01*
X026051Y027437D01*
X026108Y027482D01*
X026168Y027525D01*
X026230Y027563D01*
X026294Y027599D01*
X026360Y027631D01*
X026427Y027659D01*
X026496Y027683D01*
X026566Y027704D01*
X026638Y027721D01*
X026710Y027734D01*
X026782Y027743D01*
X026855Y027748D01*
X026928Y027749D01*
X027001Y027746D01*
X027074Y027739D01*
X027147Y027728D01*
X027218Y027713D01*
X027289Y027694D01*
X027358Y027672D01*
X027427Y027645D01*
X027493Y027615D01*
X027558Y027582D01*
X027621Y027544D01*
X027682Y027504D01*
X027741Y027460D01*
X027797Y027413D01*
X027850Y027363D01*
X027901Y027310D01*
X027949Y027255D01*
X027993Y027197D01*
X028035Y027137D01*
X028073Y027074D01*
X028107Y027010D01*
X028138Y026943D01*
X028165Y026876D01*
X028189Y026806D01*
X028209Y026736D01*
X028225Y026664D01*
X028237Y026592D01*
X028245Y026520D01*
X028249Y026447D01*
X028249Y026373D01*
X028245Y026300D01*
X028237Y026228D01*
X028225Y026156D01*
X028209Y026084D01*
X028189Y026014D01*
X028165Y025944D01*
X028138Y025877D01*
X028107Y025810D01*
X028073Y025746D01*
X028035Y025683D01*
X027993Y025623D01*
X027949Y025565D01*
X027901Y025510D01*
X027850Y025457D01*
X027797Y025407D01*
X027741Y025360D01*
X027682Y025316D01*
X027621Y025276D01*
X027558Y025238D01*
X027493Y025205D01*
X027427Y025175D01*
X027358Y025148D01*
X027289Y025126D01*
X027218Y025107D01*
X027147Y025092D01*
X027074Y025081D01*
X027001Y025074D01*
X026928Y025071D01*
X026855Y025072D01*
X026782Y025077D01*
X026710Y025086D01*
X026638Y025099D01*
X026566Y025116D01*
X026496Y025137D01*
X026427Y025161D01*
X026360Y025189D01*
X026294Y025221D01*
X026230Y025257D01*
X026168Y025295D01*
X026108Y025338D01*
X026051Y025383D01*
X025996Y025431D01*
X025944Y025483D01*
X025895Y025537D01*
X025849Y025594D01*
X025806Y025653D01*
X025766Y025714D01*
X025730Y025778D01*
X025697Y025843D01*
X025668Y025910D01*
X025642Y025979D01*
X025621Y026049D01*
X025603Y026120D01*
X025589Y026192D01*
X025579Y026264D01*
X025573Y026337D01*
X025571Y026410D01*
X024469Y027197D02*
X024469Y028453D01*
X024670Y028453D01*
X024672Y028499D01*
X024678Y028544D01*
X024687Y028589D01*
X024700Y028633D01*
X024717Y028676D01*
X024737Y028717D01*
X024760Y028757D01*
X024787Y028794D01*
X024817Y028829D01*
X024849Y028861D01*
X024884Y028891D01*
X024921Y028918D01*
X024961Y028941D01*
X025002Y028961D01*
X025045Y028978D01*
X025089Y028991D01*
X025134Y029000D01*
X025179Y029006D01*
X025225Y029008D01*
X025091Y028382D02*
X025093Y028410D01*
X025099Y028437D01*
X025108Y028464D01*
X025122Y028489D01*
X025138Y028511D01*
X025158Y028531D01*
X025180Y028549D01*
X025204Y028563D01*
X025230Y028573D01*
X025257Y028580D01*
X025285Y028583D01*
X025313Y028582D01*
X025341Y028577D01*
X025367Y028568D01*
X025392Y028556D01*
X025416Y028540D01*
X025437Y028522D01*
X025455Y028500D01*
X025469Y028476D01*
X025481Y028451D01*
X025489Y028424D01*
X025493Y028396D01*
X025493Y028368D01*
X025489Y028340D01*
X025481Y028313D01*
X025469Y028288D01*
X025455Y028264D01*
X025437Y028242D01*
X025416Y028224D01*
X025393Y028208D01*
X025367Y028196D01*
X025341Y028187D01*
X025313Y028182D01*
X025285Y028181D01*
X025257Y028184D01*
X025230Y028191D01*
X025204Y028201D01*
X025180Y028215D01*
X025158Y028233D01*
X025138Y028253D01*
X025122Y028275D01*
X025108Y028300D01*
X025099Y028327D01*
X025093Y028354D01*
X025091Y028382D01*
X026406Y029008D02*
X027414Y029008D01*
X028327Y028382D02*
X028329Y028410D01*
X028335Y028437D01*
X028344Y028464D01*
X028358Y028489D01*
X028374Y028511D01*
X028394Y028531D01*
X028416Y028549D01*
X028440Y028563D01*
X028466Y028573D01*
X028493Y028580D01*
X028521Y028583D01*
X028549Y028582D01*
X028577Y028577D01*
X028603Y028568D01*
X028628Y028556D01*
X028652Y028540D01*
X028673Y028522D01*
X028691Y028500D01*
X028705Y028476D01*
X028717Y028451D01*
X028725Y028424D01*
X028729Y028396D01*
X028729Y028368D01*
X028725Y028340D01*
X028717Y028313D01*
X028705Y028288D01*
X028691Y028264D01*
X028673Y028242D01*
X028652Y028224D01*
X028629Y028208D01*
X028603Y028196D01*
X028577Y028187D01*
X028549Y028182D01*
X028521Y028181D01*
X028493Y028184D01*
X028466Y028191D01*
X028440Y028201D01*
X028416Y028215D01*
X028394Y028233D01*
X028374Y028253D01*
X028358Y028275D01*
X028344Y028300D01*
X028335Y028327D01*
X028329Y028354D01*
X028327Y028382D01*
X028595Y029008D02*
X028641Y029006D01*
X028686Y029000D01*
X028731Y028991D01*
X028775Y028978D01*
X028818Y028961D01*
X028859Y028941D01*
X028899Y028918D01*
X028936Y028891D01*
X028971Y028861D01*
X029003Y028829D01*
X029033Y028794D01*
X029060Y028757D01*
X029083Y028717D01*
X029103Y028676D01*
X029120Y028633D01*
X029133Y028589D01*
X029142Y028544D01*
X029148Y028499D01*
X029150Y028453D01*
X029351Y028453D01*
X029351Y027197D01*
X029351Y025623D02*
X029351Y024367D01*
X029150Y024367D01*
X029148Y024321D01*
X029142Y024276D01*
X029133Y024231D01*
X029120Y024187D01*
X029103Y024144D01*
X029083Y024103D01*
X029060Y024063D01*
X029033Y024026D01*
X029003Y023991D01*
X028971Y023959D01*
X028936Y023929D01*
X028899Y023902D01*
X028859Y023879D01*
X028818Y023859D01*
X028775Y023842D01*
X028731Y023829D01*
X028686Y023820D01*
X028641Y023814D01*
X028595Y023812D01*
X028327Y024438D02*
X028329Y024466D01*
X028335Y024493D01*
X028344Y024520D01*
X028358Y024545D01*
X028374Y024567D01*
X028394Y024587D01*
X028416Y024605D01*
X028440Y024619D01*
X028466Y024629D01*
X028493Y024636D01*
X028521Y024639D01*
X028549Y024638D01*
X028577Y024633D01*
X028603Y024624D01*
X028628Y024612D01*
X028652Y024596D01*
X028673Y024578D01*
X028691Y024556D01*
X028705Y024532D01*
X028717Y024507D01*
X028725Y024480D01*
X028729Y024452D01*
X028729Y024424D01*
X028725Y024396D01*
X028717Y024369D01*
X028705Y024344D01*
X028691Y024320D01*
X028673Y024298D01*
X028652Y024280D01*
X028629Y024264D01*
X028603Y024252D01*
X028577Y024243D01*
X028549Y024238D01*
X028521Y024237D01*
X028493Y024240D01*
X028466Y024247D01*
X028440Y024257D01*
X028416Y024271D01*
X028394Y024289D01*
X028374Y024309D01*
X028358Y024331D01*
X028344Y024356D01*
X028335Y024383D01*
X028329Y024410D01*
X028327Y024438D01*
X011684Y017046D02*
X011684Y015274D01*
X011577Y015176D02*
X011526Y015176D01*
X011286Y015176D02*
X011030Y015176D01*
X010786Y015176D02*
X010530Y015176D01*
X010286Y015176D02*
X010034Y015176D01*
X009790Y015176D02*
X009739Y015176D01*
X009636Y015278D02*
X009636Y017046D01*
X009739Y017144D02*
X009790Y017144D01*
X010034Y017144D02*
X010286Y017144D01*
X010534Y017144D02*
X010786Y017144D01*
X011034Y017144D02*
X011286Y017144D01*
X011530Y017144D02*
X011589Y017144D01*
X011585Y017144D02*
X011602Y017143D01*
X011619Y017138D01*
X011634Y017131D01*
X011648Y017121D01*
X011660Y017109D01*
X011670Y017095D01*
X011677Y017080D01*
X011682Y017063D01*
X011683Y017046D01*
X005260Y017160D02*
X005160Y017160D01*
X005160Y016860D01*
X004960Y016860D01*
X005160Y016760D02*
X003760Y016760D01*
X003760Y017210D01*
X003760Y019660D01*
X005160Y019660D01*
X005160Y019560D02*
X004960Y019560D01*
X005160Y019560D02*
X005160Y019260D01*
X005260Y019260D01*
X005260Y018960D01*
X005160Y018960D01*
X005160Y018510D01*
X005060Y018510D01*
X005060Y017910D01*
X005160Y017910D01*
X005160Y017510D01*
X005260Y017510D01*
X005260Y017160D01*
X004360Y016860D02*
X003860Y016860D01*
X003860Y017960D01*
X004260Y017960D01*
X004260Y018460D01*
X003860Y018460D01*
X003860Y017960D01*
X003660Y017710D02*
X003660Y017210D01*
X003760Y017210D01*
X003660Y017710D02*
X003510Y017710D01*
X003510Y018710D01*
X003660Y018710D01*
X003660Y017710D01*
X003860Y018460D02*
X003860Y019560D01*
X004360Y019560D01*
X003760Y019210D02*
X003660Y019210D01*
X003660Y018710D01*
X005938Y027257D02*
X006085Y027257D01*
X006159Y027330D01*
X006159Y027697D01*
X006325Y027624D02*
X006325Y027551D01*
X006399Y027477D01*
X006546Y027477D01*
X006619Y027404D01*
X006619Y027330D01*
X006546Y027257D01*
X006399Y027257D01*
X006325Y027330D01*
X006325Y027624D02*
X006399Y027697D01*
X006546Y027697D01*
X006619Y027624D01*
X006786Y027697D02*
X007006Y027697D01*
X007079Y027624D01*
X007079Y027551D01*
X007006Y027477D01*
X006786Y027477D01*
X007006Y027477D02*
X007079Y027404D01*
X007079Y027330D01*
X007006Y027257D01*
X006786Y027257D01*
X006786Y027697D01*
X005865Y027697D02*
X005865Y027330D01*
X005938Y027257D01*
D16*
X004006Y016006D03*
X004006Y015464D03*
D17*
X003854Y015735D03*
D18*
X003285Y020160D02*
X002535Y020160D01*
X002535Y025160D01*
X003285Y025160D01*
X003285Y020160D01*
X005035Y020160D01*
X005035Y025160D01*
X003285Y025160D01*
X006660Y010785D02*
X006660Y010035D01*
X010660Y010035D01*
X010660Y008285D01*
X006660Y008285D01*
X006660Y010035D01*
X006660Y010785D02*
X010660Y010785D01*
X010660Y010035D01*
X011285Y010035D02*
X011285Y010785D01*
X015285Y010785D01*
X015285Y010035D01*
X011285Y010035D01*
X011285Y008285D01*
X015285Y008285D01*
X015285Y010035D01*
X026538Y013154D02*
X026540Y013176D01*
X026546Y013198D01*
X026555Y013218D01*
X026568Y013236D01*
X026584Y013252D01*
X026602Y013265D01*
X026622Y013274D01*
X026644Y013280D01*
X026666Y013282D01*
X026688Y013280D01*
X026710Y013274D01*
X026730Y013265D01*
X026748Y013252D01*
X026764Y013236D01*
X026777Y013218D01*
X026786Y013198D01*
X026792Y013176D01*
X026794Y013154D01*
X026792Y013132D01*
X026786Y013110D01*
X026777Y013090D01*
X026764Y013072D01*
X026748Y013056D01*
X026730Y013043D01*
X026710Y013034D01*
X026688Y013028D01*
X026666Y013026D01*
X026644Y013028D01*
X026622Y013034D01*
X026602Y013043D01*
X026584Y013056D01*
X026568Y013072D01*
X026555Y013090D01*
X026546Y013110D01*
X026540Y013132D01*
X026538Y013154D01*
X030910Y011410D02*
X030910Y019410D01*
X032660Y019410D01*
X032660Y011410D01*
X030910Y011410D01*
X032660Y011410D02*
X033410Y011410D01*
X033410Y019410D01*
X032660Y019410D01*
D19*
X026902Y012804D02*
X026902Y012854D01*
X026903Y012853D02*
X026918Y012856D01*
X026932Y012861D01*
X026944Y012869D01*
X026955Y012880D01*
X026963Y012892D01*
X026968Y012906D01*
X026971Y012921D01*
X027020Y012922D01*
X027021Y012921D01*
X027018Y012901D01*
X027013Y012881D01*
X027004Y012863D01*
X026992Y012847D01*
X026977Y012832D01*
X026961Y012820D01*
X026943Y012811D01*
X026923Y012806D01*
X026903Y012803D01*
X026903Y012812D01*
X026922Y012814D01*
X026940Y012820D01*
X026956Y012828D01*
X026972Y012839D01*
X026985Y012852D01*
X026996Y012868D01*
X027004Y012884D01*
X027010Y012902D01*
X027012Y012921D01*
X027003Y012921D01*
X027000Y012902D01*
X026994Y012884D01*
X026985Y012867D01*
X026972Y012852D01*
X026957Y012839D01*
X026940Y012830D01*
X026922Y012824D01*
X026903Y012821D01*
X026903Y012830D01*
X026920Y012833D01*
X026937Y012838D01*
X026952Y012847D01*
X026966Y012858D01*
X026977Y012872D01*
X026986Y012887D01*
X026991Y012904D01*
X026994Y012921D01*
X026985Y012921D01*
X026982Y012903D01*
X026975Y012886D01*
X026966Y012871D01*
X026953Y012858D01*
X026938Y012849D01*
X026921Y012842D01*
X026903Y012839D01*
X026903Y012848D01*
X026919Y012851D01*
X026934Y012857D01*
X026947Y012865D01*
X026959Y012877D01*
X026967Y012890D01*
X026973Y012905D01*
X026976Y012921D01*
X025804Y012922D02*
X025854Y012922D01*
X025853Y012921D02*
X025856Y012906D01*
X025861Y012892D01*
X025869Y012880D01*
X025880Y012869D01*
X025892Y012861D01*
X025906Y012856D01*
X025921Y012853D01*
X025922Y012804D01*
X025921Y012803D01*
X025901Y012806D01*
X025881Y012811D01*
X025863Y012820D01*
X025847Y012832D01*
X025832Y012847D01*
X025820Y012863D01*
X025811Y012881D01*
X025806Y012901D01*
X025803Y012921D01*
X025812Y012921D01*
X025814Y012902D01*
X025820Y012884D01*
X025828Y012868D01*
X025839Y012852D01*
X025852Y012839D01*
X025868Y012828D01*
X025884Y012820D01*
X025902Y012814D01*
X025921Y012812D01*
X025921Y012821D01*
X025902Y012824D01*
X025884Y012830D01*
X025867Y012839D01*
X025852Y012852D01*
X025839Y012867D01*
X025830Y012884D01*
X025824Y012902D01*
X025821Y012921D01*
X025830Y012921D01*
X025833Y012904D01*
X025838Y012887D01*
X025847Y012872D01*
X025858Y012858D01*
X025872Y012847D01*
X025887Y012838D01*
X025904Y012833D01*
X025921Y012830D01*
X025921Y012839D01*
X025903Y012842D01*
X025886Y012849D01*
X025871Y012858D01*
X025858Y012871D01*
X025849Y012886D01*
X025842Y012903D01*
X025839Y012921D01*
X025848Y012921D01*
X025851Y012905D01*
X025857Y012890D01*
X025865Y012877D01*
X025877Y012865D01*
X025890Y012857D01*
X025905Y012851D01*
X025921Y012848D01*
X011589Y015152D02*
X011589Y015202D01*
X011590Y015201D02*
X011605Y015204D01*
X011619Y015209D01*
X011631Y015217D01*
X011642Y015228D01*
X011650Y015240D01*
X011655Y015254D01*
X011658Y015269D01*
X011707Y015270D01*
X011708Y015269D01*
X011705Y015249D01*
X011700Y015229D01*
X011691Y015211D01*
X011679Y015195D01*
X011664Y015180D01*
X011648Y015168D01*
X011630Y015159D01*
X011610Y015154D01*
X011590Y015151D01*
X011590Y015160D01*
X011609Y015162D01*
X011627Y015168D01*
X011643Y015176D01*
X011659Y015187D01*
X011672Y015200D01*
X011683Y015216D01*
X011691Y015232D01*
X011697Y015250D01*
X011699Y015269D01*
X011690Y015269D01*
X011687Y015250D01*
X011681Y015232D01*
X011672Y015215D01*
X011659Y015200D01*
X011644Y015187D01*
X011627Y015178D01*
X011609Y015172D01*
X011590Y015169D01*
X011590Y015178D01*
X011607Y015181D01*
X011624Y015186D01*
X011639Y015195D01*
X011653Y015206D01*
X011664Y015220D01*
X011673Y015235D01*
X011678Y015252D01*
X011681Y015269D01*
X011672Y015269D01*
X011669Y015251D01*
X011662Y015234D01*
X011653Y015219D01*
X011640Y015206D01*
X011625Y015197D01*
X011608Y015190D01*
X011590Y015187D01*
X011590Y015196D01*
X011606Y015199D01*
X011621Y015205D01*
X011634Y015213D01*
X011646Y015225D01*
X011654Y015238D01*
X011660Y015253D01*
X011663Y015269D01*
X009613Y015270D02*
X009663Y015270D01*
X009662Y015269D02*
X009665Y015254D01*
X009670Y015240D01*
X009678Y015228D01*
X009689Y015217D01*
X009701Y015209D01*
X009715Y015204D01*
X009730Y015201D01*
X009731Y015152D01*
X009730Y015151D01*
X009710Y015154D01*
X009690Y015159D01*
X009672Y015168D01*
X009656Y015180D01*
X009641Y015195D01*
X009629Y015211D01*
X009620Y015229D01*
X009615Y015249D01*
X009612Y015269D01*
X009621Y015269D01*
X009623Y015250D01*
X009629Y015232D01*
X009637Y015216D01*
X009648Y015200D01*
X009661Y015187D01*
X009677Y015176D01*
X009693Y015168D01*
X009711Y015162D01*
X009730Y015160D01*
X009730Y015169D01*
X009711Y015172D01*
X009693Y015178D01*
X009676Y015187D01*
X009661Y015200D01*
X009648Y015215D01*
X009639Y015232D01*
X009633Y015250D01*
X009630Y015269D01*
X009639Y015269D01*
X009642Y015252D01*
X009647Y015235D01*
X009656Y015220D01*
X009667Y015206D01*
X009681Y015195D01*
X009696Y015186D01*
X009713Y015181D01*
X009730Y015178D01*
X009730Y015187D01*
X009712Y015190D01*
X009695Y015197D01*
X009680Y015206D01*
X009667Y015219D01*
X009658Y015234D01*
X009651Y015251D01*
X009648Y015269D01*
X009657Y015269D01*
X009660Y015253D01*
X009666Y015238D01*
X009674Y015225D01*
X009686Y015213D01*
X009699Y015205D01*
X009714Y015199D01*
X009730Y015196D01*
X009731Y017168D02*
X009731Y017118D01*
X009730Y017119D02*
X009715Y017116D01*
X009701Y017111D01*
X009689Y017103D01*
X009678Y017092D01*
X009670Y017080D01*
X009665Y017066D01*
X009662Y017051D01*
X009613Y017050D01*
X009612Y017051D01*
X009615Y017071D01*
X009620Y017091D01*
X009629Y017109D01*
X009641Y017125D01*
X009656Y017140D01*
X009672Y017152D01*
X009690Y017161D01*
X009710Y017166D01*
X009730Y017169D01*
X009730Y017160D01*
X009711Y017158D01*
X009693Y017152D01*
X009677Y017144D01*
X009661Y017133D01*
X009648Y017120D01*
X009637Y017104D01*
X009629Y017088D01*
X009623Y017070D01*
X009621Y017051D01*
X009630Y017051D01*
X009633Y017070D01*
X009639Y017088D01*
X009648Y017105D01*
X009661Y017120D01*
X009676Y017133D01*
X009693Y017142D01*
X009711Y017148D01*
X009730Y017151D01*
X009730Y017142D01*
X009713Y017139D01*
X009696Y017134D01*
X009681Y017125D01*
X009667Y017114D01*
X009656Y017100D01*
X009647Y017085D01*
X009642Y017068D01*
X009639Y017051D01*
X009648Y017051D01*
X009651Y017069D01*
X009658Y017086D01*
X009667Y017101D01*
X009680Y017114D01*
X009695Y017123D01*
X009712Y017130D01*
X009730Y017133D01*
X009730Y017124D01*
X009714Y017121D01*
X009699Y017115D01*
X009686Y017107D01*
X009674Y017095D01*
X009666Y017082D01*
X009660Y017067D01*
X009657Y017051D01*
D20*
X027014Y014270D02*
X027111Y014270D01*
X027063Y014270D02*
X027063Y013980D01*
X027111Y013980D02*
X027014Y013980D01*
X027211Y014028D02*
X027259Y013980D01*
X027356Y013980D01*
X027404Y014028D01*
X027505Y014028D02*
X027554Y013980D01*
X027650Y013980D01*
X027699Y014028D01*
X027699Y014077D01*
X027650Y014125D01*
X027602Y014125D01*
X027650Y014125D02*
X027699Y014173D01*
X027699Y014222D01*
X027650Y014270D01*
X027554Y014270D01*
X027505Y014222D01*
X027404Y014222D02*
X027356Y014270D01*
X027259Y014270D01*
X027211Y014222D01*
X027211Y014028D01*
D21*
X024742Y014992D02*
X024742Y012078D01*
X021828Y012078D01*
X021828Y014992D01*
X024742Y014992D01*
X023285Y014706D02*
X023220Y014704D01*
X023155Y014699D01*
X023091Y014690D01*
X023028Y014677D01*
X022965Y014661D01*
X022903Y014641D01*
X022843Y014619D01*
X022784Y014592D01*
X022726Y014563D01*
X022670Y014530D01*
X022616Y014495D01*
X022564Y014456D01*
X022514Y014415D01*
X022467Y014371D01*
X022422Y014324D01*
X022380Y014275D01*
X022340Y014224D01*
X023285Y014706D02*
X023350Y014704D01*
X023415Y014699D01*
X023479Y014690D01*
X023542Y014677D01*
X023605Y014661D01*
X023667Y014641D01*
X023727Y014619D01*
X023786Y014592D01*
X023844Y014563D01*
X023900Y014530D01*
X023954Y014495D01*
X024006Y014456D01*
X024056Y014415D01*
X024103Y014371D01*
X024148Y014324D01*
X024190Y014275D01*
X024230Y014224D01*
X023285Y012364D02*
X023220Y012366D01*
X023155Y012371D01*
X023091Y012380D01*
X023028Y012393D01*
X022965Y012409D01*
X022903Y012429D01*
X022843Y012451D01*
X022784Y012478D01*
X022726Y012507D01*
X022670Y012540D01*
X022616Y012575D01*
X022564Y012614D01*
X022514Y012655D01*
X022467Y012699D01*
X022422Y012746D01*
X022380Y012795D01*
X022340Y012846D01*
X023285Y012364D02*
X023350Y012366D01*
X023415Y012371D01*
X023479Y012380D01*
X023542Y012393D01*
X023605Y012409D01*
X023667Y012429D01*
X023727Y012451D01*
X023786Y012478D01*
X023844Y012507D01*
X023900Y012540D01*
X023954Y012575D01*
X024006Y012614D01*
X024056Y012655D01*
X024103Y012699D01*
X024148Y012746D01*
X024190Y012795D01*
X024230Y012846D01*
X019959Y026325D02*
X019498Y026325D01*
X019498Y027246D01*
X019959Y027246D01*
X020112Y027092D01*
X020112Y026478D01*
X019959Y026325D01*
X019191Y026325D02*
X018577Y026325D01*
X018577Y027246D01*
X019191Y027246D01*
X018884Y026785D02*
X018577Y026785D01*
X018271Y026325D02*
X017657Y026325D01*
X017657Y027246D01*
X017350Y027092D02*
X017196Y027246D01*
X016889Y027246D01*
X016736Y027092D01*
X016736Y026478D01*
X016889Y026325D01*
X017196Y026325D01*
X017350Y026478D01*
X017350Y027092D01*
X015508Y027092D02*
X015355Y026939D01*
X015508Y027092D02*
X015508Y027399D01*
X015201Y027399D02*
X015201Y027092D01*
X015048Y026939D01*
X014741Y027246D02*
X014434Y027092D01*
X014127Y026785D01*
X014587Y026785D01*
X014741Y026632D01*
X014741Y026478D01*
X014587Y026325D01*
X014280Y026325D01*
X014127Y026478D01*
X014127Y026785D01*
X013820Y026785D02*
X013360Y026785D01*
X013206Y026939D01*
X013206Y027092D01*
X013360Y027246D01*
X013667Y027246D01*
X013820Y027092D01*
X013820Y026478D01*
X013667Y026325D01*
X013360Y026325D01*
X013206Y026478D01*
X012899Y026478D02*
X012899Y026325D01*
X012746Y026325D01*
X012746Y026478D01*
X012899Y026478D01*
X012439Y026478D02*
X012439Y027092D01*
X011825Y026478D01*
X011978Y026325D01*
X012285Y026325D01*
X012439Y026478D01*
X012439Y027092D02*
X012285Y027246D01*
X011978Y027246D01*
X011825Y027092D01*
X011825Y026478D01*
X014285Y029535D02*
X014285Y030035D01*
X018285Y030035D02*
X018285Y029535D01*
D22*
G36*
X022623Y014501D02*
X022319Y014197D01*
X022159Y014357D01*
X022463Y014661D01*
X022623Y014501D01*
G37*
G36*
X024251Y014197D02*
X023947Y014501D01*
X024107Y014661D01*
X024411Y014357D01*
X024251Y014197D01*
G37*
G36*
X023947Y012569D02*
X024251Y012873D01*
X024411Y012713D01*
X024107Y012409D01*
X023947Y012569D01*
G37*
G36*
X022319Y012873D02*
X022623Y012569D01*
X022463Y012409D01*
X022159Y012713D01*
X022319Y012873D01*
G37*
D23*
X005512Y013040D02*
X005512Y013280D01*
X005194Y013312D01*
X005160Y013419D01*
X005109Y013519D01*
X005311Y013766D01*
X005141Y013936D01*
X004894Y013734D01*
X004794Y013785D01*
X004687Y013819D01*
X004655Y014137D01*
X004415Y014137D01*
X004383Y013819D01*
X004276Y013785D01*
X004176Y013734D01*
X003929Y013936D01*
X003759Y013766D01*
X003961Y013519D01*
X003910Y013419D01*
X003876Y013312D01*
X003558Y013280D01*
X003558Y013040D01*
X003876Y013008D01*
X003910Y012901D01*
X003961Y012801D01*
X003759Y012554D01*
X003929Y012384D01*
X004176Y012586D01*
X004276Y012535D01*
X004417Y012876D01*
X004364Y012904D01*
X004317Y012942D01*
X004279Y012989D01*
X004251Y013042D01*
X004233Y013100D01*
X004227Y013160D01*
X004234Y013223D01*
X004253Y013283D01*
X004284Y013338D01*
X004326Y013385D01*
X004376Y013423D01*
X004433Y013450D01*
X004495Y013465D01*
X004558Y013467D01*
X004620Y013456D01*
X004679Y013432D01*
X004731Y013397D01*
X004775Y013352D01*
X004810Y013299D01*
X004832Y013240D01*
X004842Y013177D01*
X004839Y013114D01*
X004823Y013053D01*
X004795Y012996D01*
X004757Y012947D01*
X004708Y012906D01*
X004653Y012876D01*
X004794Y012535D01*
X004894Y012586D01*
X005141Y012384D01*
X005311Y012554D01*
X005109Y012801D01*
X005160Y012901D01*
X005194Y013008D01*
X005512Y013040D01*
X005512Y013070D02*
X004828Y013070D01*
X004840Y013128D02*
X005512Y013128D01*
X005512Y013185D02*
X004841Y013185D01*
X004831Y013243D02*
X005512Y013243D01*
X005310Y013300D02*
X004808Y013300D01*
X004769Y013358D02*
X005180Y013358D01*
X005161Y013416D02*
X004703Y013416D01*
X004366Y013416D02*
X003909Y013416D01*
X003890Y013358D02*
X004302Y013358D01*
X004263Y013300D02*
X003760Y013300D01*
X003558Y013243D02*
X004240Y013243D01*
X004230Y013185D02*
X003558Y013185D01*
X003558Y013128D02*
X004231Y013128D01*
X004242Y013070D02*
X003558Y013070D01*
X003828Y013013D02*
X004267Y013013D01*
X004307Y012955D02*
X003893Y012955D01*
X003912Y012898D02*
X004377Y012898D01*
X004402Y012840D02*
X003941Y012840D01*
X003946Y012782D02*
X004379Y012782D01*
X004355Y012725D02*
X003899Y012725D01*
X003852Y012667D02*
X004331Y012667D01*
X004307Y012610D02*
X003805Y012610D01*
X003761Y012552D02*
X004135Y012552D01*
X004064Y012495D02*
X003819Y012495D01*
X003876Y012437D02*
X003994Y012437D01*
X004242Y012552D02*
X004283Y012552D01*
X004715Y012725D02*
X005171Y012725D01*
X005124Y012782D02*
X004691Y012782D01*
X004668Y012840D02*
X005129Y012840D01*
X005158Y012898D02*
X004693Y012898D01*
X004763Y012955D02*
X005177Y012955D01*
X005242Y013013D02*
X004803Y013013D01*
X004739Y012667D02*
X005218Y012667D01*
X005265Y012610D02*
X004763Y012610D01*
X004787Y012552D02*
X004828Y012552D01*
X004935Y012552D02*
X005309Y012552D01*
X005251Y012495D02*
X005006Y012495D01*
X005076Y012437D02*
X005194Y012437D01*
X005132Y013473D02*
X003938Y013473D01*
X003951Y013531D02*
X005119Y013531D01*
X005166Y013588D02*
X003904Y013588D01*
X003857Y013646D02*
X005213Y013646D01*
X005259Y013703D02*
X003811Y013703D01*
X003764Y013761D02*
X004143Y013761D01*
X004229Y013761D02*
X004841Y013761D01*
X004927Y013761D02*
X005306Y013761D01*
X005258Y013818D02*
X004997Y013818D01*
X005068Y013876D02*
X005201Y013876D01*
X005143Y013934D02*
X005138Y013934D01*
X004681Y013876D02*
X004389Y013876D01*
X004394Y013934D02*
X004676Y013934D01*
X004670Y013991D02*
X004400Y013991D01*
X004406Y014049D02*
X004664Y014049D01*
X004658Y014106D02*
X004412Y014106D01*
X004380Y013818D02*
X004690Y013818D01*
X004073Y013818D02*
X003812Y013818D01*
X003869Y013876D02*
X004002Y013876D01*
X003932Y013934D02*
X003927Y013934D01*
M02*
