%
M48
M72
T01C0.0122
T02C0.0320
T03C0.0354
T04C0.0394
T05C0.0400
T06C0.0440
T07C0.0590
T08C0.0866
T09C0.1260
%
T01
X8910Y26645
X12660Y19085
X23729Y17510
X20785Y18335
X19285Y16835
X19285Y17585
X29035Y7960
X33660Y10835
X33660Y8960
X17410Y9835
X18660Y8960
X31535Y7960
X18035Y7960
X33035Y8085
X22160Y8960
X22535Y8960
X22160Y9835
X20535Y9835
X19785Y14085
X19785Y13335
X26160Y10835
X23035Y10835
X19785Y14460
X3035Y17585
X12660Y18835
X12160Y19085
X17910Y12085
X17910Y12835
X7410Y13460
X7660Y13460
X7410Y13210
X7660Y13210
X17441Y10960
X12660Y18585
X12160Y18585
X12160Y18835
X11285Y18585
X7285Y17085
X9660Y13210
X18660Y18335
X18660Y18710
X18660Y19085
X16223Y11929
X20410Y18335
X19285Y14460
X16910Y17085
X17035Y17960
X18035Y17710
X20785Y17335
X17410Y9085
X19598Y22679
X9285Y18270
X10285Y26645
X8910Y25645
X8910Y26270
X11285Y24020
X13160Y25645
X10285Y25520
X12570Y25025
X19195Y26525
X19195Y26775
X20695Y23400
X21320Y21775
X11535Y22210
X10285Y22335
X10285Y21085
X11660Y20085
X16195Y26650
X16570Y26650
X3570Y31150
X17910Y12460
X14348Y21054
X13973Y21054
X13973Y20179
X13723Y19804
X14098Y18804
X14348Y18804
X12598Y22804
X17598Y23804
X20348Y22304
X19598Y20491
X17035Y21023
X18598Y20054
X22348Y18429
X15973Y23804
X17848Y22554
X12598Y23804
X28235Y13910
X23235Y14410
X19535Y15085
X19285Y15085
X19785Y15085
X21785Y10960
X22160Y11335
X22354Y16760
X7160Y26645
X7160Y26020
X7160Y25395
X9285Y21085
X12785Y21460
X12785Y21835
X13473Y21835
X13473Y21460
X14723Y21054
X3035Y18210
X9285Y19835
X17848Y21085
X18848Y21116
X16195Y27025
X16570Y27025
X17320Y27025
X18320Y27025
X19195Y27025
X24910Y23770
X7535Y27145
X8660Y27020
X8660Y27645
X6035Y27020
X2785Y27020
X2785Y25520
X2785Y26270
X3785Y27020
X4785Y27020
X17191Y14210
X15785Y19523
X23235Y12660
X26360Y13160
X26360Y12785
X23235Y13535
X24410Y8960
X24910Y9835
X29360Y11785
X11210Y12910
X27910Y9835
X19973Y20054
X21223Y19429
X21223Y18804
X25673Y12691
X25423Y12691
X26735Y12785
X26110Y13535
X26110Y13910
X25485Y14160
X25735Y14160
X28735Y13910
X28235Y16285
X27985Y14535
X27985Y15535
X28360Y11285
X28360Y12285
X28360Y11785
X24860Y16410
X24860Y16910
X24110Y16910
X24110Y16410
X23860Y14910
X24985Y14910
X19735Y10785
X19735Y12910
X15610Y14160
X19735Y12160
X20485Y10785
X28360Y10535
X21110Y11285
X22235Y14785
X21860Y14785
X22610Y14785
X22985Y11660
X23485Y11660
X15445Y31025
X13820Y31025
X12195Y31025
X10820Y31025
X24695Y31150
X23820Y19400
X11285Y22460
X12160Y20085
X11035Y20085
X10285Y21710
X9285Y21710
X9285Y22335
X7410Y25085
X8785Y25085
X10035Y23835
X10285Y23460
X11660Y19085
X11035Y19085
X10410Y19085
X12035Y17085
X12660Y17085
X14660Y17085
X13535Y23145
X13535Y22770
X20035Y21895
X21285Y22645
X23285Y22645
X24285Y22645
X23910Y23395
X23285Y23395
X7660Y24835
X7910Y24585
X8160Y24335
X9035Y24835
X9285Y24585
X9535Y24335
X9785Y24085
X8410Y24085
X8660Y23835
X8910Y23585
X7535Y27645
X10285Y18145
X7285Y16585
X7785Y16585
X9535Y17085
X9535Y17835
X12035Y15335
X12910Y15335
X14160Y15335
X18035Y15835
X18660Y15835
X12285Y22035
X17441Y18441
X17441Y19660
X8660Y23035
X20785Y18785
X4785Y21160
X14410Y27410
X10910Y15410
X10410Y16910
X14660Y26285
X12785Y20410
X7660Y20660
X10910Y20660
X12535Y20160
X10660Y28035
X12660Y28035
X10660Y20410
X6910Y21535
X15160Y19535
X14660Y15535
X26285Y11285
X21035Y13035
X13535Y19160
X16410Y21660
X13910Y19160
X16785Y21410
X18410Y21410
X15910Y20410
X16035Y16285
X15535Y19910
X13160Y14160
X14410Y14160
X16285Y20035
X13285Y18254
X29035Y9410
X22910Y23785
X28535Y16910
X22910Y22285
X28785Y15910
X22910Y23035
X8160Y16410
X8660Y16660
X26535Y25035
X15410Y24660
X16035Y24410
X13660Y20785
X13160Y21660
X14660Y24910
X14129Y17535
X14754Y17535
X10410Y14160
X13285Y17160
X15691Y19035
X15691Y15816
X9910Y14160
X11985Y14860
X14285Y23160
X17785Y23160
X21285Y23785
X14660Y22910
X19035Y22785
X21285Y23035
T02
X23075Y16988
X23075Y17988
X23075Y18988
X23075Y19988
X23075Y20988
T03
X8776Y29460
X7044Y29460
T04
X3785Y20660
X3785Y21660
X3785Y22660
X3785Y23660
X3785Y24660
X11785Y9535
X12785Y9535
X13785Y9535
X14785Y9535
X7160Y9535
X8160Y9535
X9160Y9535
X10160Y9535
X25926Y29166
X27894Y29166
X25926Y23457
X26910Y23457
X27894Y23457
X32160Y18910
X32160Y17910
X32160Y16910
X32160Y15910
X32160Y14910
X32160Y13910
X32160Y12910
X32160Y11910
T05
X4670Y19100
X4670Y17320
T06
X14785Y29785
X15785Y29785
X16785Y29785
X17785Y29785
T07
X5650Y19590
X5650Y16830
T08
X24312Y26410
X29508Y26410
T09
X4379Y9629
X32043Y29456
X4379Y29456
X32043Y9629
M30
